<svg width="151" height="40" viewBox="0 0 151 40" fill="none" xmlns="http://www.w3.org/2000/svg">
<g clip-path="url(#clip0_9514_6315)">
<path d="M39.1673 21.4998H32.1619C26.0426 21.4998 21.082 26.559 21.082 32.7998V39.9444C30.74 39.214 38.4511 31.3497 39.1673 21.4998Z" fill="#003DF6"/>
<path d="M18.14 39.9444V32.7998C18.14 26.559 13.1794 21.4998 7.0601 21.4998H0.0546875C0.770794 31.3497 8.48195 39.214 18.14 39.9444Z" fill="#003DF6"/>
<path d="M39.1673 18.4998C38.4511 8.64987 30.74 0.78551 21.082 0.0551758V7.19977C21.082 13.4406 26.0426 18.4998 32.1619 18.4998H39.1673Z" fill="#003DF6"/>
<path d="M18.14 0.0551758C8.48195 0.78551 0.770794 8.64987 0.0546875 18.4998H7.0601C13.1794 18.4998 18.14 13.4406 18.14 7.19977V0.0551758Z" fill="#003DF6"/>
<path d="M13.3184 19.9998C16.0368 18.6145 18.2523 16.355 19.6105 13.5825C20.9689 16.355 23.1842 18.6145 25.9028 19.9998C23.1842 21.385 20.9689 23.6445 19.6105 26.417C18.2523 23.6445 16.0368 21.385 13.3184 19.9998Z" fill="#003DF6"/>
</g>
<path d="M55.779 28.8753C54.122 28.8753 52.6287 28.4843 51.299 27.7025C49.9897 26.8995 48.9567 25.8217 48.1998 24.4693C47.4429 23.0958 47.0645 21.5532 47.0645 19.8415C47.0645 18.1299 47.4429 16.5978 48.1998 15.2454C48.9567 13.893 49.9897 12.8258 51.299 12.044C52.6287 11.2621 54.122 10.8712 55.779 10.8712C56.9655 10.8712 58.0701 11.093 59.0929 11.5368C60.1158 11.9594 60.9954 12.5511 61.7318 13.3119C62.4887 14.0515 63.0308 14.939 63.3581 15.9744L59.8294 17.5593C59.5225 16.6929 59.0009 15.9956 58.2644 15.4673C57.5485 14.939 56.72 14.6748 55.779 14.6748C54.8993 14.6748 54.1118 14.8967 53.4162 15.3405C52.7412 15.7843 52.2093 16.3971 51.8206 17.1789C51.4319 17.9608 51.2376 18.8589 51.2376 19.8732C51.2376 20.8875 51.4319 21.7856 51.8206 22.5675C52.2093 23.3494 52.7412 23.9622 53.4162 24.4059C54.1118 24.8497 54.8993 25.0716 55.779 25.0716C56.7404 25.0716 57.5792 24.8074 58.2951 24.2791C59.0111 23.7508 59.5225 23.0429 59.8294 22.1554L63.3581 23.8037C63.0308 24.7757 62.499 25.6527 61.7625 26.4346C61.0261 27.1953 60.1465 27.7975 59.1236 28.2413C58.1008 28.6639 56.9859 28.8753 55.779 28.8753Z" fill="#003DF6"/>
<path d="M71.7473 28.8753C70.4586 28.8753 69.3335 28.5794 68.372 27.9877C67.431 27.396 66.7048 26.5719 66.1934 25.5153C65.7024 24.4588 65.4569 23.2226 65.4569 21.8067V11.2515H69.4767V21.4581C69.4767 22.1765 69.6096 22.8105 69.8756 23.3599C70.162 23.8882 70.5609 24.3108 71.0723 24.6278C71.6042 24.9237 72.1974 25.0716 72.852 25.0716C73.5066 25.0716 74.0896 24.9237 74.601 24.6278C75.1125 24.3108 75.5114 23.8776 75.7978 23.3282C76.0842 22.7788 76.2273 22.1237 76.2273 21.363V11.2515H80.2471V28.4949H76.4421V25.1033L76.7797 25.7055C76.391 26.7621 75.7466 27.5545 74.8465 28.0828C73.9669 28.6111 72.9338 28.8753 71.7473 28.8753Z" fill="#003DF6"/>
<path d="M88.433 28.8753C87.267 28.8753 86.2544 28.6745 85.3952 28.273C84.536 27.8715 83.8712 27.301 83.4007 26.5613C82.9302 25.8006 82.6949 24.9237 82.6949 23.9305C82.6949 22.9795 82.8995 22.1343 83.3086 21.3947C83.7177 20.6339 84.3519 20 85.2111 19.4928C86.0703 18.9857 87.1544 18.6264 88.4637 18.4151L93.9256 17.4959V20.6656L89.2308 21.4898C88.433 21.6377 87.8397 21.9018 87.4511 22.2822C87.0624 22.6626 86.8681 23.1592 86.8681 23.772C86.8681 24.3637 87.0829 24.8391 87.5124 25.1984C87.9625 25.5365 88.5148 25.7055 89.1694 25.7055C90.0081 25.7055 90.7446 25.5259 91.3787 25.1667C92.0334 24.7863 92.5345 24.2686 92.8823 23.6135C93.2505 22.9584 93.4346 22.2399 93.4346 21.4581V17.0204C93.4346 16.2808 93.1482 15.668 92.5755 15.182C92.0231 14.6748 91.2867 14.4213 90.3661 14.4213C89.507 14.4213 88.7398 14.6643 88.0648 15.1503C87.4102 15.6152 86.9294 16.2386 86.6226 17.0204L83.3393 15.3722C83.6666 14.4635 84.178 13.6817 84.8735 13.0266C85.5895 12.3504 86.4282 11.8221 87.3897 11.4417C88.3512 11.0613 89.3944 10.8712 90.5196 10.8712C91.8902 10.8712 93.0971 11.1353 94.1404 11.6636C95.1837 12.1708 95.9917 12.8892 96.5645 13.819C97.1577 14.7277 97.4544 15.7948 97.4544 17.0204V28.4949H93.6494V25.547L94.5086 25.4836C94.079 26.2232 93.5676 26.8466 92.9744 27.3538C92.3811 27.8398 91.706 28.2202 90.9492 28.4949C90.1923 28.7485 89.3535 28.8753 88.433 28.8753Z" fill="#003DF6"/>
<path d="M100.556 28.4949V11.2515H104.33V14.6431L104.023 14.0409C104.412 13.0055 105.046 12.2236 105.926 11.6953C106.826 11.1459 107.869 10.8712 109.056 10.8712C110.283 10.8712 111.367 11.1459 112.308 11.6953C113.27 12.2447 114.016 13.016 114.548 14.0092C115.08 14.9813 115.346 16.1118 115.346 17.4008V28.4949H111.326V18.3834C111.326 17.6227 111.183 16.9676 110.897 16.4182C110.61 15.8688 110.211 15.4461 109.7 15.1503C109.209 14.8333 108.626 14.6748 107.951 14.6748C107.296 14.6748 106.713 14.8333 106.202 15.1503C105.691 15.4461 105.292 15.8688 105.005 16.4182C104.719 16.9676 104.576 17.6227 104.576 18.3834V28.4949H100.556Z" fill="#003DF6"/>
<path d="M118.131 28.4949V4.5H122.151V20.2219L120.617 19.7464L128.472 11.2515H133.474L127.306 18.1933L133.597 28.4949H128.994L123.532 19.5562L125.925 19.0491L120.893 24.6278L122.151 22.092V28.4949H118.131Z" fill="#003DF6"/>
<path d="M137.253 35.5C136.803 35.5 136.363 35.4577 135.933 35.3732C135.504 35.3098 135.115 35.1936 134.767 35.0245V31.5378C135.033 31.6012 135.35 31.6646 135.718 31.728C136.107 31.7914 136.465 31.8231 136.792 31.8231C137.713 31.8231 138.378 31.6012 138.787 31.1575C139.217 30.7137 139.595 30.1326 139.922 29.4141L141.027 26.7515L140.966 30.2382L133.693 11.2515H138.02L143.114 25.2618H141.579L146.642 11.2515H151L143.727 30.2382C143.298 31.3582 142.776 32.3091 142.162 33.091C141.549 33.8729 140.833 34.4646 140.014 34.8661C139.217 35.2887 138.296 35.5 137.253 35.5Z" fill="#003DF6"/>
<defs>
<clipPath id="clip0_9514_6315">
<rect width="39.2208" height="40" fill="white"/>
</clipPath>
</defs>
</svg>
