<svg width="148" height="43" viewBox="0 0 148 43" fill="none" xmlns="http://www.w3.org/2000/svg">
<path d="M11.3911 36.4907L10.1587 40.9072H10.0855L8.94734 36.857H7.70455L6.56641 40.9072H6.49315L5.26082 36.4907H4.20117L5.6245 41.6006H7.19435L8.29062 37.6943H8.36388L9.45755 41.6006H11.0274L12.4507 36.4907H11.3911Z" fill="#18365F"/>
<path d="M14.3115 36.4907L12.2314 41.6006H13.2832L13.7647 40.3604H16.5381L17.0195 41.6006H18.0713L15.9912 36.4907H14.3115ZM14.0211 39.8109L15.1173 37.1108H15.1906L16.2843 39.8109H14.0211Z" fill="#18365F"/>
<path d="M17.6338 37.0376H19.6039V41.6006H20.6636V37.0376H22.6337V36.4907H17.6338V37.0376Z" fill="#18365F"/>
<path d="M27.2706 38.8272H24.2774V36.4907H23.2178V41.6006H24.2774V39.374H27.2706V41.6006H28.3276V36.4907H27.2706V38.8272Z" fill="#18365F"/>
<path d="M30.4066 36.4907H29.3496V41.6006H30.4066V36.4907Z" fill="#18365F"/>
<path d="M36.3178 37.0376C36.0614 36.8073 35.7553 36.6347 35.3969 36.5195C35.041 36.4018 34.6407 36.3442 34.2038 36.3442C33.7668 36.3442 33.3665 36.4018 33.0055 36.5195C32.647 36.6373 32.3383 36.81 32.0819 37.0376C31.8281 37.2678 31.6292 37.5478 31.4906 37.8853C31.3519 38.2202 31.2812 38.6074 31.2812 39.0444C31.2812 39.4813 31.3493 39.8685 31.4906 40.2061C31.6292 40.5436 31.8255 40.8235 32.0819 41.0538C32.3383 41.2814 32.6444 41.4541 33.0055 41.5718C33.3665 41.6896 33.7642 41.7471 34.2038 41.7471C34.5491 41.7471 34.8684 41.7105 35.1614 41.6372L35.8103 42.3672L36.3205 41.8937L35.8521 41.3756C36.2498 41.1611 36.5638 40.8602 36.7862 40.4703C37.0112 40.0805 37.1211 39.6069 37.1211 39.047C37.1211 38.6101 37.0504 38.2228 36.9092 37.8879C36.7679 37.5504 36.569 37.2704 36.3152 37.0402M35.8207 40.1119C35.7056 40.4049 35.5512 40.6378 35.3576 40.8131L34.8239 40.2139L34.3137 40.6875L34.7297 41.1611C34.5701 41.2108 34.3948 41.2343 34.2038 41.2343C33.9552 41.2343 33.7224 41.1898 33.5078 41.1035C33.2907 41.0171 33.1023 40.8811 32.9427 40.7006C32.7831 40.52 32.6549 40.2924 32.5607 40.0177C32.4665 39.743 32.4194 39.4185 32.4194 39.0444C32.4194 38.6702 32.4665 38.3458 32.5607 38.0711C32.6549 37.7963 32.7831 37.5687 32.9427 37.3882C33.1023 37.2077 33.2907 37.0742 33.5078 36.9879C33.725 36.8989 33.9578 36.8571 34.2038 36.8571C34.4497 36.8571 34.6852 36.9015 34.8997 36.9879C35.1169 37.0768 35.3053 37.2103 35.4649 37.3882C35.6245 37.5687 35.7527 37.7963 35.8469 38.0711C35.9411 38.3458 35.9882 38.6702 35.9882 39.0444C35.9882 39.463 35.9306 39.8188 35.8155 40.1093" fill="#18365F"/>
<path d="M65.9774 8.88595L63.2851 6.25122L60.6504 8.88595L63.2851 11.5782L65.9774 8.88595Z" fill="#18365F"/>
<path d="M68.9501 5.07337L66.3153 2.43604L63.623 5.07337L66.3153 7.76566L68.9501 5.07337Z" fill="#18365F"/>
<path d="M69.3427 11.5782L71.98 8.88595L69.3427 6.25122L66.6504 8.88595L69.3427 11.5782Z" fill="#18365F"/>
<path d="M46.4755 35.5264L43.8408 38.1611L46.4755 40.7958L49.1678 38.1611L46.4755 35.5264Z" fill="#18365F"/>
<path d="M49.5049 38.1611L52.1396 40.7958L54.8319 38.1611L52.1396 35.5264L49.5049 38.1611Z" fill="#18365F"/>
<path d="M30.787 8.94351L28.1523 6.25122L25.5176 8.94351L28.1523 11.5782L30.787 8.94351Z" fill="#18365F"/>
<path d="M36.5093 8.94351L33.817 6.25122L31.1797 8.94351L33.817 11.5782L36.5093 8.94351Z" fill="#18365F"/>
<path d="M71.08 17.5216V31.038C71.08 31.1505 71.0853 31.263 71.0983 31.3729H61.5458V14.6593L57.2837 16.9042V31.038C57.2837 31.1505 57.2889 31.263 57.302 31.3729H41.3838V23.2411C41.3838 17.1841 36.7841 13.2595 31.0097 13.2595C25.2353 13.2595 20.6906 17.1841 20.6906 23.2411C20.6906 23.3432 20.6906 23.4452 20.6958 23.5446C20.6932 23.6467 20.6906 23.7539 20.6906 23.8586C20.6906 27.0506 21.9752 29.6199 23.9951 31.3729H10.3165C8.29664 31.3729 4.20457 30.1955 4.20457 23.2411V15.9492L0 18.1914V23.856C0 29.913 4.59965 33.8402 10.3191 33.8402H35.8919L37.4068 32.2128C37.8542 33.1678 38.8642 33.8402 39.9317 33.8402H55.999L57.5689 32.2128C58.0163 33.1678 59.0262 33.8402 60.0911 33.8402H69.8477L71.3626 32.2128C71.8126 33.1678 72.8226 33.8402 73.8874 33.8402H75.3448V14.6593L71.0826 16.9042V17.5216H71.08ZM31.0123 31.3729C29.0238 31.3729 25.026 30.2322 24.903 23.5629C24.903 23.5551 24.903 23.5472 24.903 23.5368C24.903 23.44 24.9004 23.3405 24.9004 23.2411C24.9004 16.2867 28.9951 15.1093 31.0149 15.1093C33.0348 15.1093 37.1269 16.2867 37.1269 23.2411V31.038C37.1269 31.1505 37.1321 31.263 37.1452 31.3729H31.0123Z" fill="#18365F"/>
<path d="M90.9333 13.2594C85.1563 13.2594 80.5566 17.184 80.5566 23.2436C80.5566 23.3457 80.5566 23.4503 80.5619 23.5523C80.5593 23.6544 80.5566 23.7564 80.5566 23.8611C80.5566 29.9181 85.1563 33.8427 90.9333 33.8427H95.5879L97.0374 32.3382C96.8412 38.3246 93.5497 39.8369 91.454 40.041C91.4488 40.041 91.4435 40.041 91.4383 40.041C91.3127 40.0567 91.1296 40.0645 90.9386 40.0697C90.7214 40.075 90.4938 40.0724 90.3289 40.0697L92.5607 42.3643C97.6078 41.6919 101.255 37.8772 101.255 32.4377V23.2384C101.255 17.1814 96.6554 13.2542 90.9359 13.2542M97.0453 31.3728H90.9333C88.8899 31.3728 84.947 30.232 84.8214 23.5628V23.5366C84.8214 23.4398 84.8188 23.3404 84.8188 23.241C84.8188 16.2866 88.8585 15.1092 90.9333 15.1092C93.0081 15.1092 97.0453 16.2866 97.0453 23.241V31.3728Z" fill="#18365F"/>
<path d="M113.479 2.4385V38.3121L117.926 37.2655L136.498 32.883L124.703 29.4817L121.998 28.6994L122.081 4.87176L139.227 8.34635V36.2661L137.557 36.6847L113.479 42.3702L147.999 40.905V0.0104599V0L113.479 2.4385Z" fill="#2E9C95"/>
</svg>
