<svg width="164" height="164" viewBox="0 0 164 164" fill="none" xmlns="http://www.w3.org/2000/svg">
<path fill-rule="evenodd" clip-rule="evenodd" d="M68.3809 25.7731L27.3809 62.2175C23.0044 66.1078 20.5003 71.6838 20.5003 77.5394V145.209H13.667C10.8365 145.209 8.54199 147.503 8.54199 150.334C8.54199 153.164 10.8365 155.459 13.667 155.459H150.334C153.164 155.459 155.459 153.164 155.459 150.334C155.459 147.503 153.164 145.209 150.334 145.209H143.5V77.5394C143.5 71.6838 140.996 66.1078 136.62 62.2175L95.6198 25.7731C87.8526 18.8689 76.148 18.8689 68.3809 25.7731ZM68.3337 56.3752C65.5032 56.3752 63.2087 58.6698 63.2087 61.5002C63.2087 64.3307 65.5032 66.6252 68.3337 66.6252H95.667C98.4974 66.6252 100.792 64.3307 100.792 61.5002C100.792 58.6698 98.4974 56.3752 95.667 56.3752H68.3337ZM96.0223 76.8752C102.162 76.875 107.282 76.8748 111.346 77.4213C115.636 77.998 119.509 79.2668 122.621 82.3792C125.734 85.4916 127.002 89.3647 127.579 93.6546C128.126 97.719 128.126 102.839 128.125 108.978L128.125 145.209H117.875H46.1253H35.8753L35.8753 108.978C35.8751 102.839 35.8749 97.7189 36.4214 93.6546C36.9981 89.3647 38.2669 85.4915 41.3793 82.3792C44.4917 79.2668 48.3648 77.998 52.6547 77.4213C56.7191 76.8748 61.8387 76.875 67.9783 76.8752H96.0223Z" fill="#E1E1E2"/>
<path opacity="0.5" d="M96.022 76.875H67.978C61.8385 76.8748 56.7187 76.8746 52.6544 77.4211C48.3645 77.9978 44.4914 79.2666 41.379 82.379C38.2666 85.4913 36.9978 89.3645 36.4211 93.6544C35.8747 97.7187 35.8748 102.838 35.875 108.978L35.875 145.208H128.125L128.125 108.978V108.978C128.125 102.838 128.125 97.7186 127.579 93.6544C127.002 89.3645 125.733 85.4914 122.621 82.379C119.509 79.2666 115.636 77.9978 111.346 77.4211C107.281 76.8746 102.162 76.8748 96.022 76.875Z" fill="#E1E1E2"/>
<path d="M61.5 100.792C58.6695 100.792 56.375 103.086 56.375 105.917C56.375 108.747 58.6695 111.042 61.5 111.042H102.5C105.33 111.042 107.625 108.747 107.625 105.917C107.625 103.086 105.33 100.792 102.5 100.792H61.5Z" fill="#E1E1E2"/>
<path d="M61.5 121.292C58.6695 121.292 56.375 123.586 56.375 126.417C56.375 129.247 58.6695 131.542 61.5 131.542H102.5C105.33 131.542 107.625 129.247 107.625 126.417C107.625 123.586 105.33 121.292 102.5 121.292H61.5Z" fill="#E1E1E2"/>
</svg>
