<svg width="160" height="156" viewBox="0 0 160 156" fill="none" xmlns="http://www.w3.org/2000/svg">
<g clip-path="url(#clip0_11533_110204)">
<path d="M101.574 35.0839H58.4611C57.4786 35.0851 56.5367 35.4755 55.842 36.1694C55.1473 36.8633 54.7565 37.8041 54.7553 38.7855V134.494L54.2612 134.645L43.6848 137.88C43.1836 138.033 42.6422 137.98 42.1795 137.735C41.7168 137.489 41.3706 137.07 41.2169 136.57L9.75714 33.9266C9.60404 33.4259 9.65622 32.885 9.90221 32.4228C10.1482 31.9605 10.5679 31.6147 11.069 31.4614L27.3671 26.4767L74.6158 12.0309L90.9138 7.04621C91.1618 6.96996 91.4225 6.94332 91.6808 6.9678C91.9392 6.99228 92.1902 7.06742 92.4194 7.18889C92.6487 7.31037 92.8517 7.47581 93.0168 7.67575C93.182 7.87569 93.306 8.10619 93.3819 8.35407L101.423 34.5904L101.574 35.0839Z" fill="#FAFAFA"/>
<path d="M110.982 34.5903L101.29 2.9695C101.129 2.44264 100.865 1.95268 100.514 1.52762C100.163 1.10255 99.7321 0.750722 99.245 0.492222C98.7579 0.233723 98.2246 0.073621 97.6755 0.0210722C97.1265 -0.0314766 96.5725 0.024557 96.0451 0.185965L73.131 7.1917L25.8848 21.6399L2.9707 28.6481C1.90623 28.9746 1.01494 29.7096 0.492458 30.6918C-0.0300227 31.674 -0.141005 32.8232 0.183877 33.887L33.3087 141.954C33.5726 142.813 34.1051 143.564 34.8281 144.099C35.5511 144.633 36.4265 144.922 37.3258 144.923C37.742 144.923 38.1559 144.86 38.5536 144.737L54.2612 139.935L54.7553 139.782V139.267L54.2612 139.417L38.4079 144.266C37.4683 144.552 36.4534 144.454 35.586 143.994C34.7185 143.534 34.0692 142.749 33.7806 141.811L0.658318 33.7414C0.515297 33.2767 0.465451 32.7884 0.511631 32.3045C0.557811 31.8205 0.699108 31.3504 0.927439 30.9211C1.15577 30.4918 1.46665 30.1116 1.84227 29.8025C2.21788 29.4933 2.65086 29.2612 3.11642 29.1195L26.0305 22.1113L73.2768 7.66549L96.1909 0.657296C96.5441 0.549656 96.9112 0.494772 97.2804 0.494429C98.0727 0.496206 98.8436 0.751353 99.4803 1.2225C100.117 1.69364 100.586 2.35603 100.818 3.11263L110.466 34.5903L110.619 35.0838H111.133L110.982 34.5903Z" fill="#E0E0E0"/>
<path d="M30.3084 31.5419C29.8322 31.5416 29.3687 31.3888 28.9858 31.1061C28.6029 30.8233 28.3209 30.4254 28.181 29.9708L24.9988 19.5889C24.9133 19.31 24.8836 19.017 24.9115 18.7267C24.9394 18.4364 25.0242 18.1544 25.1612 17.8968C25.2982 17.6392 25.4847 17.4111 25.7099 17.2255C25.9352 17.0399 26.1948 16.9005 26.474 16.8151L69.9402 3.52331C70.504 3.35144 71.1131 3.41006 71.6338 3.68629C72.1544 3.96252 72.5441 4.4338 72.7172 4.99669L75.8993 15.3788C76.0713 15.942 76.0126 16.5503 75.736 17.0703C75.4595 17.5904 74.9877 17.9796 74.4243 18.1526L30.958 31.4444C30.7475 31.509 30.5286 31.5418 30.3084 31.5419Z" fill="#EAD9AC"/>
<path d="M46.9782 11.0934C49.707 11.0934 51.9192 8.88373 51.9192 6.15801C51.9192 3.43229 49.707 1.22266 46.9782 1.22266C44.2493 1.22266 42.0371 3.43229 42.0371 6.15801C42.0371 8.88373 44.2493 11.0934 46.9782 11.0934Z" fill="#EAD9AC"/>
<path d="M46.9775 9.28315C48.7055 9.28315 50.1063 7.88394 50.1063 6.15793C50.1063 4.43192 48.7055 3.03271 46.9775 3.03271C45.2495 3.03271 43.8486 4.43192 43.8486 6.15793C43.8486 7.88394 45.2495 9.28315 46.9775 9.28315Z" fill="#FAFAFA"/>
<path d="M148.883 143.662H65.3792C64.8225 143.661 64.2887 143.44 63.8951 143.046C63.5014 142.653 63.2799 142.12 63.2793 141.564V41.6232C63.2799 41.0671 63.5014 40.5339 63.895 40.1407C64.2887 39.7474 64.8225 39.5263 65.3792 39.5256H148.883C149.44 39.5263 149.973 39.7475 150.367 40.1407C150.761 40.5339 150.982 41.0671 150.983 41.6232V141.564C150.982 142.12 150.761 142.653 150.367 143.046C149.973 143.44 149.44 143.661 148.883 143.662Z" fill="#FAFAFA"/>
<path d="M110.466 34.5903H58.4616C57.3482 34.5919 56.2809 35.0344 55.4936 35.8208C54.7063 36.6072 54.2633 37.6733 54.2617 38.7854V139.417L54.7558 139.267V38.7854C54.757 37.804 55.1478 36.8632 55.8425 36.1693C56.5373 35.4754 57.4791 35.0851 58.4616 35.0839H110.619L110.466 34.5903ZM155.8 34.5903H58.4616C57.3482 34.5919 56.2809 35.0344 55.4936 35.8208C54.7063 36.6072 54.2633 37.6733 54.2617 38.7854V151.805C54.2633 152.917 54.7063 153.983 55.4936 154.77C56.2809 155.556 57.3482 155.998 58.4616 156H155.8C156.914 155.998 157.981 155.556 158.768 154.77C159.556 153.983 159.999 152.917 160 151.805V38.7854C159.999 37.6733 159.556 36.6072 158.768 35.8208C157.981 35.0344 156.914 34.5919 155.8 34.5903ZM159.506 151.805C159.505 152.786 159.114 153.727 158.419 154.421C157.725 155.115 156.783 155.505 155.8 155.506H58.4616C57.4791 155.505 56.5373 155.115 55.8425 154.421C55.1478 153.727 54.757 152.786 54.7558 151.805V38.7854C54.757 37.804 55.1478 36.8632 55.8425 36.1693C56.5373 35.4754 57.4791 35.0851 58.4616 35.0839H155.8C156.783 35.0851 157.725 35.4754 158.419 36.1693C159.114 36.8632 159.505 37.804 159.506 38.7854V151.805Z" fill="#E0E0E0"/>
<path d="M129.86 45.448H84.4022C83.8127 45.4474 83.2475 45.2132 82.8307 44.7968C82.4138 44.3804 82.1794 43.8159 82.1787 43.2271V32.3693C82.1794 31.7805 82.4139 31.216 82.8307 30.7997C83.2475 30.3833 83.8127 30.1491 84.4022 30.1484H129.86C130.449 30.1491 131.014 30.3833 131.431 30.7997C131.848 31.216 132.083 31.7805 132.083 32.3693V43.2271C132.083 43.8159 131.848 44.3804 131.431 44.7968C131.014 45.2132 130.449 45.4474 129.86 45.448Z" fill="#EAD9AC"/>
<path d="M107.13 30.8888C109.859 30.8888 112.072 28.6791 112.072 25.9534C112.072 23.2277 109.859 21.0181 107.13 21.0181C104.402 21.0181 102.189 23.2277 102.189 25.9534C102.189 28.6791 104.402 30.8888 107.13 30.8888Z" fill="#EAD9AC"/>
<path d="M107.131 28.9597C108.793 28.9597 110.14 27.6138 110.14 25.9536C110.14 24.2934 108.793 22.9475 107.131 22.9475C105.469 22.9475 104.121 24.2934 104.121 25.9536C104.121 27.6138 105.469 28.9597 107.131 28.9597Z" fill="#FAFAFA"/>
</g>
<defs>
<clipPath id="clip0_11533_110204">
<rect width="160" height="156" fill="white"/>
</clipPath>
</defs>
</svg>
