<svg width="24" height="24" viewBox="0 0 24 24" fill="none" xmlns="http://www.w3.org/2000/svg">
<path d="M9.78182 3.89076C10.3457 3.41023 10.6276 3.16997 10.9224 3.02907C11.6042 2.7032 12.3968 2.7032 13.0786 3.02907C13.3734 3.16997 13.6553 3.41023 14.2192 3.89076C14.4436 4.08201 14.5558 4.17764 14.6757 4.25796C14.9504 4.44209 15.2589 4.56988 15.5833 4.63393C15.7249 4.66188 15.8718 4.6736 16.1658 4.69706C16.9043 4.75599 17.2735 4.78546 17.5816 4.89427C18.2941 5.14594 18.8546 5.7064 19.1062 6.41893C19.2151 6.72699 19.2445 7.09625 19.3035 7.83475C19.3269 8.12868 19.3386 8.27564 19.3666 8.41718C19.4306 8.74163 19.5584 9.05014 19.7426 9.32485C19.8229 9.44469 19.9185 9.55691 20.1098 9.78133C20.5903 10.3452 20.8305 10.6271 20.9714 10.9219C21.2973 11.6037 21.2973 12.3963 20.9714 13.0781C20.8305 13.3729 20.5903 13.6548 20.1098 14.2187C19.9185 14.4431 19.8229 14.5553 19.7426 14.6752C19.5584 14.9499 19.4306 15.2584 19.3666 15.5828C19.3386 15.7244 19.3269 15.8713 19.3035 16.1653C19.2445 16.9038 19.2151 17.273 19.1062 17.5811C18.8546 18.2936 18.2941 18.8541 17.5816 19.1058C17.2735 19.2146 16.9043 19.244 16.1658 19.303C15.8718 19.3264 15.7249 19.3381 15.5833 19.3661C15.2589 19.4301 14.9504 19.5579 14.6757 19.7421C14.5558 19.8224 14.4436 19.918 14.2192 20.1093C13.6553 20.5898 13.3734 20.8301 13.0786 20.971C12.3968 21.2968 11.6042 21.2968 10.9224 20.971C10.6276 20.8301 10.3457 20.5898 9.78182 20.1093C9.55739 19.918 9.44518 19.8224 9.32534 19.7421C9.05063 19.5579 8.74211 19.4301 8.41767 19.3661C8.27613 19.3381 8.12917 19.3264 7.83524 19.303C7.09673 19.244 6.72748 19.2146 6.41942 19.1058C5.70689 18.8541 5.14643 18.2936 4.89476 17.5811C4.78595 17.273 4.75648 16.9038 4.69755 16.1653C4.67409 15.8713 4.66236 15.7244 4.63442 15.5828C4.57037 15.2584 4.44257 14.9499 4.25845 14.6752C4.17813 14.5553 4.0825 14.4431 3.89125 14.2187C3.41072 13.6548 3.17045 13.3729 3.02956 13.0781C2.70369 12.3963 2.70369 11.6037 3.02956 10.9219C3.17045 10.6271 3.41072 10.3452 3.89125 9.78133C4.0825 9.55691 4.17813 9.4447 4.25845 9.32485C4.44257 9.05014 4.57037 8.74163 4.63442 8.41718C4.66236 8.27564 4.67409 8.12868 4.69755 7.83475C4.75648 7.09625 4.78595 6.72699 4.89476 6.41893C5.14643 5.7064 5.70689 5.14594 6.41942 4.89427C6.72748 4.78546 7.09674 4.75599 7.83524 4.69706C8.12917 4.6736 8.27613 4.66188 8.41767 4.63393C8.74211 4.56988 9.05063 4.44209 9.32534 4.25796C9.44518 4.17764 9.5574 4.08201 9.78182 3.89076Z" stroke="#AEAEAE" stroke-width="1.5"/>
<path d="M12.8539 7.59192C13.2759 7.12673 13.5352 6.91787 14.0445 6.65383V14.4002L12.8539 14.6419V7.59192Z" fill="#AEAEAE"/>
<path d="M16.658 11.4864C16.9049 10.9748 16.9339 10.7473 17 10.2224L7.87378 12.1687C7.65737 12.6422 7.5877 12.9068 7.55435 13.3769L16.658 11.4864Z" fill="#AEAEAE"/>
<path d="M16.658 13.8591C16.9049 13.3474 16.9339 13.12 17 12.5951L12.8975 13.4479C12.8685 13.917 12.9018 14.1576 12.8685 14.6277L16.658 13.8591Z" fill="#AEAEAE"/>
<path d="M16.658 16.2315C16.9049 15.7198 16.9339 15.4924 17 14.9675L13.2605 15.7647C13.0717 16.0206 12.9556 16.447 12.8685 17L16.658 16.2315Z" fill="#AEAEAE"/>
<path d="M10.7196 15.4236C11.0826 14.983 11.4601 14.4287 11.7214 13.9738L7.31943 14.9109C7.10301 15.3844 7.03335 15.6491 7 16.1191L10.7196 15.4236Z" fill="#AEAEAE"/>
<path d="M10.5308 6.9381C10.9528 6.4729 11.2121 6.26405 11.7214 6V14.0023L10.5308 14.2439V6.9381Z" fill="#AEAEAE"/>
</svg>
