<svg width="17" height="15" viewBox="0 0 17 15" fill="none" xmlns="http://www.w3.org/2000/svg">
<path d="M10.917 10.5V9H16.917V13.5C16.917 14.3125 16.1982 15 15.417 15H2.41699C1.60449 15 0.916992 14.3125 0.916992 13.5V9H6.91699V10.5C6.91699 10.7812 7.13574 11 7.41699 11H10.417C10.667 11 10.917 10.7812 10.917 10.5ZM15.417 3C16.1982 3 16.917 3.71875 16.917 4.5V8H0.916992V4.5C0.916992 3.71875 1.60449 3 2.41699 3H4.91699V1.5C4.91699 0.71875 5.60449 0 6.41699 0H11.417C12.1982 0 12.917 0.71875 12.917 1.5V3H15.417ZM11.417 3V1.5H6.41699V3H11.417Z" fill="#696D73"/>
</svg>
