<svg width="36" height="36" viewBox="0 0 36 36" fill="none" xmlns="http://www.w3.org/2000/svg">
<path fill-rule="evenodd" clip-rule="evenodd" d="M7.97492 1.92952C8.82495 2.1052 9.50189 2.67631 9.92248 3.43086L11.2623 5.83452C11.7558 6.71983 12.1711 7.46486 12.4423 8.11252C12.73 8.79954 12.9009 9.47703 12.8228 10.2261C12.7447 10.9751 12.4377 11.6028 12.0145 12.2156C11.6154 12.7934 11.0553 13.4367 10.3898 14.2012L7.04801 18.0397C9.69827 22.3837 13.6117 26.2988 17.9601 28.9518L21.7987 25.61C22.5631 24.9445 23.2064 24.3844 23.7842 23.9854C24.397 23.5621 25.0247 23.2551 25.7737 23.177C26.5228 23.0989 27.2003 23.2698 27.8873 23.5575C28.535 23.8287 29.28 24.244 30.1653 24.7375L32.569 26.0773C33.3235 26.4979 33.8946 27.1749 34.0703 28.0249C34.2478 28.8838 33.986 29.7471 33.4077 30.4567C31.3093 33.0312 27.9474 34.6705 24.4205 33.959C22.2526 33.5217 20.1137 32.7931 17.5266 31.3095C12.3286 28.3284 7.66796 23.6652 4.69035 18.4732C3.20667 15.8862 2.4781 13.7472 2.04079 11.5793C1.32934 8.05244 2.9686 4.69052 5.54314 2.59216C6.25269 2.01385 7.11601 1.752 7.97492 1.92952ZM20.0558 30.1105C21.8054 30.9726 23.3271 31.4431 24.8655 31.7535C27.4095 32.2666 29.9779 31.1033 31.6636 29.0352C31.8849 28.7636 31.8862 28.5741 31.8669 28.4803C31.8457 28.3777 31.7598 28.2022 31.4735 28.0426L29.1237 26.7329C28.1703 26.2014 27.5355 25.8495 27.0182 25.6328C26.5272 25.4272 26.2454 25.39 26.0071 25.4149C25.7689 25.4397 25.5008 25.5342 25.0628 25.8368C24.6013 26.1555 24.0528 26.6308 23.2295 27.3475L20.0558 30.1105ZM5.8893 15.944L8.65228 12.7703C9.36903 11.947 9.84435 11.3985 10.1631 10.9371C10.4656 10.499 10.5601 10.231 10.5849 9.9927C10.6098 9.75444 10.5726 9.47266 10.367 8.98162C10.1503 8.46431 9.7984 7.82956 9.26694 6.8761L7.95717 4.52633C7.7976 4.24006 7.62213 4.15416 7.5195 4.13294C7.42575 4.11357 7.23619 4.11493 6.96464 4.33625C4.89647 6.02189 3.73316 8.59028 4.24636 11.1344C4.55669 12.6727 5.02722 14.1944 5.8893 15.944Z" fill="#0C3F82"/>
</svg>
