<svg width="47" height="28" viewBox="0 0 47 28" fill="none" xmlns="http://www.w3.org/2000/svg">
<rect width="47" height="28" rx="6" fill="#F5F5F5"/>
<path d="M11.46 14.024V16.754H10.48V14.024H7.932V13.1H10.48V10.37H11.46V13.1H14.022V14.024H11.46ZM19.8767 14.78C19.1861 14.78 18.5701 14.6447 18.0287 14.374C17.4967 14.1033 17.0767 13.716 16.7687 13.212C16.4607 12.6987 16.3067 12.1013 16.3067 11.42C16.3067 10.7293 16.4607 10.1273 16.7687 9.614C17.0767 9.10067 17.5014 8.70867 18.0427 8.438C18.5841 8.158 19.2047 8.018 19.9047 8.018C20.6047 8.018 21.2254 8.158 21.7667 8.438C22.3081 8.70867 22.7327 9.10067 23.0407 9.614C23.3487 10.1273 23.5027 10.7293 23.5027 11.42C23.5027 11.9053 23.4141 12.4 23.2367 12.904C23.0594 13.408 22.7421 14.0007 22.2847 14.682L19.9747 17.972H18.7847L21.4027 14.346C20.9641 14.6353 20.4554 14.78 19.8767 14.78ZM19.9047 8.872C19.1487 8.872 18.5374 9.10067 18.0707 9.558C17.6041 10.0153 17.3707 10.6313 17.3707 11.406C17.3707 12.1807 17.5994 12.7967 18.0567 13.254C18.5234 13.7113 19.1347 13.94 19.8907 13.94C20.6561 13.94 21.2721 13.7113 21.7387 13.254C22.2054 12.7967 22.4387 12.1807 22.4387 11.406C22.4387 10.6313 22.2054 10.0153 21.7387 9.558C21.2814 9.10067 20.6701 8.872 19.9047 8.872ZM28.3849 11.406C29.0756 11.406 29.6869 11.5413 30.2189 11.812C30.7602 12.0827 31.1849 12.47 31.4929 12.974C31.8009 13.478 31.9549 14.0707 31.9549 14.752C31.9549 15.4427 31.8009 16.0447 31.4929 16.558C31.1849 17.0713 30.7602 17.468 30.2189 17.748C29.6776 18.0187 29.0569 18.154 28.3569 18.154C27.6569 18.154 27.0362 18.0187 26.4949 17.748C25.9536 17.468 25.5289 17.0713 25.2209 16.558C24.9129 16.0447 24.7589 15.4427 24.7589 14.752C24.7589 14.2293 24.8429 13.744 25.0109 13.296C25.1882 12.848 25.5102 12.2507 25.9769 11.504L28.0769 8.2H29.2669L26.8589 11.84C27.2696 11.5507 27.7782 11.406 28.3849 11.406ZM28.3569 17.3C29.1129 17.3 29.7242 17.076 30.1909 16.628C30.6576 16.1707 30.8909 15.55 30.8909 14.766C30.8909 13.9913 30.6576 13.38 30.1909 12.932C29.7336 12.4747 29.1269 12.246 28.3709 12.246C27.6056 12.246 26.9896 12.4747 26.5229 12.932C26.0562 13.38 25.8229 13.9913 25.8229 14.766C25.8229 15.55 26.0516 16.1707 26.5089 16.628C26.9756 17.076 27.5916 17.3 28.3569 17.3ZM36.7248 11.406C37.4154 11.406 38.0268 11.5413 38.5588 11.812C39.1001 12.0827 39.5248 12.47 39.8328 12.974C40.1408 13.478 40.2948 14.0707 40.2948 14.752C40.2948 15.4427 40.1408 16.0447 39.8328 16.558C39.5248 17.0713 39.1001 17.468 38.5588 17.748C38.0174 18.0187 37.3968 18.154 36.6968 18.154C35.9968 18.154 35.3761 18.0187 34.8348 17.748C34.2934 17.468 33.8688 17.0713 33.5608 16.558C33.2528 16.0447 33.0988 15.4427 33.0988 14.752C33.0988 14.2293 33.1828 13.744 33.3508 13.296C33.5281 12.848 33.8501 12.2507 34.3167 11.504L36.4168 8.2H37.6068L35.1988 11.84C35.6094 11.5507 36.1181 11.406 36.7248 11.406ZM36.6968 17.3C37.4528 17.3 38.0641 17.076 38.5308 16.628C38.9974 16.1707 39.2308 15.55 39.2308 14.766C39.2308 13.9913 38.9974 13.38 38.5308 12.932C38.0734 12.4747 37.4668 12.246 36.7108 12.246C35.9454 12.246 35.3294 12.4747 34.8628 12.932C34.3961 13.38 34.1628 13.9913 34.1628 14.766C34.1628 15.55 34.3914 16.1707 34.8488 16.628C35.3154 17.076 35.9314 17.3 36.6968 17.3Z" fill="#191919"/>
</svg>
