<svg width="20" height="20" viewBox="0 0 20 20" fill="none" xmlns="http://www.w3.org/2000/svg">
<path fill-rule="evenodd" clip-rule="evenodd" d="M5.71603 1.04166C5.74082 1.04167 5.76595 1.04167 5.79143 1.04167L5.82225 1.04167C6.11511 1.04165 6.30357 1.04164 6.48781 1.05886C7.28054 1.133 8.0325 1.44447 8.64547 1.9526C8.78793 2.07069 8.92118 2.20396 9.12825 2.41107L9.60858 2.8914C10.3133 3.59616 10.5843 3.85924 10.8973 4.03336C11.0789 4.13444 11.2717 4.21427 11.4716 4.27126C11.816 4.36944 12.1936 4.375 13.1903 4.375L13.5442 4.375C14.6049 4.37499 15.4601 4.37498 16.1366 4.46004C16.8378 4.54819 17.4336 4.73631 17.9231 5.17653C18.005 5.25026 18.0831 5.32827 18.1568 5.41024C18.597 5.8997 18.7851 6.49548 18.8733 7.19666C18.9583 7.87324 18.9583 8.72838 18.9583 9.78916V11.7137C18.9583 13.2451 18.9583 14.4582 18.8307 15.4075C18.6993 16.3845 18.4226 17.1753 17.7989 17.799C17.1753 18.4226 16.3845 18.6994 15.4075 18.8307C14.4581 18.9584 13.2451 18.9584 11.7136 18.9583H8.2863C6.75483 18.9584 5.5418 18.9584 4.59245 18.8307C3.61544 18.6994 2.82464 18.4226 2.20101 17.799C1.57737 17.1753 1.30061 16.3845 1.16925 15.4075C1.04162 14.4582 1.04163 13.2452 1.04164 11.7137L1.04164 5.79146C1.04164 5.76598 1.04164 5.74085 1.04163 5.71606C1.04154 5.05281 1.04148 4.6307 1.11027 4.26611C1.41238 2.66489 2.66486 1.41241 4.26608 1.1103C4.63067 1.04151 5.05278 1.04157 5.71603 1.04166ZM5.79143 2.29167C5.02756 2.29167 4.73223 2.2944 4.49784 2.33863C3.40227 2.54533 2.5453 3.4023 2.3386 4.49787C2.29437 4.73226 2.29164 5.02759 2.29164 5.79146V11.6667C2.29164 13.2557 2.29297 14.3846 2.40811 15.241C2.52083 16.0794 2.73222 16.5624 3.08489 16.9151C3.43757 17.2678 3.92061 17.4792 4.75901 17.5919C5.6154 17.707 6.74429 17.7083 8.33331 17.7083H11.6666C13.2557 17.7083 14.3845 17.707 15.2409 17.5919C16.0793 17.4792 16.5624 17.2678 16.9151 16.9151C17.2677 16.5624 17.4791 16.0794 17.5918 15.241C17.707 14.3846 17.7083 13.2557 17.7083 11.6667V9.83159C17.7083 8.71838 17.7071 7.94207 17.633 7.35259C17.5609 6.77872 17.4284 6.46963 17.2274 6.24615C17.1832 6.19697 17.1363 6.15016 17.0872 6.10592C16.8637 5.90492 16.5546 5.77242 15.9807 5.70027C15.3912 5.62616 14.6149 5.625 13.5017 5.625H13.1903C13.1593 5.625 13.1287 5.62501 13.0984 5.62502C12.2251 5.62519 11.662 5.62531 11.1289 5.47338C10.8367 5.39008 10.5551 5.27342 10.2895 5.12569C9.80521 4.85622 9.40705 4.4579 8.78966 3.84026C8.76828 3.81887 8.74663 3.79721 8.7247 3.77528L8.26616 3.31674C8.03009 3.08067 7.93977 2.99125 7.84772 2.91494C7.42832 2.56727 6.91382 2.35416 6.37142 2.30343C6.25237 2.2923 6.12528 2.29167 5.79143 2.29167ZM10.2083 8.33334C10.2083 7.98816 10.4881 7.70834 10.8333 7.70834H15C15.3452 7.70834 15.625 7.98816 15.625 8.33334C15.625 8.67851 15.3452 8.95834 15 8.95834H10.8333C10.4881 8.95834 10.2083 8.67851 10.2083 8.33334Z" fill="#1C4F92"/>
</svg>
