<svg width="20" height="20" viewBox="0 0 20 20" fill="none" xmlns="http://www.w3.org/2000/svg">
<path fill-rule="evenodd" clip-rule="evenodd" d="M11.246 3.61008C10.5356 2.97861 9.46505 2.97861 8.75464 3.61008L3.75464 8.05453C3.35435 8.41034 3.12533 8.92035 3.12533 9.45592V17.7083H4.37533L4.37532 13.2899C4.3753 12.5412 4.37528 11.9168 4.44192 11.4212C4.51226 10.898 4.66698 10.4257 5.04654 10.0461C5.4261 9.66658 5.89843 9.51185 6.42159 9.44151C6.91724 9.37487 7.5416 9.37489 8.29033 9.37492H11.7103C12.4591 9.37489 13.0834 9.37487 13.5791 9.44151C14.1022 9.51185 14.5746 9.66658 14.9541 10.0461C15.3337 10.4257 15.4884 10.898 15.5587 11.4212C15.6254 11.9168 15.6254 12.5412 15.6253 13.2899V17.7083H16.8753V9.45592C16.8753 8.92035 16.6463 8.41034 16.246 8.05453L11.246 3.61008ZM18.1253 17.7083V9.45592C18.1253 8.5633 17.7436 7.71329 17.0765 7.12026L12.0765 2.67582C10.8924 1.62336 9.10821 1.62336 7.92419 2.67582L2.92419 7.12026C2.25704 7.71329 1.87533 8.5633 1.87533 9.45592V17.7083H1.66699C1.32181 17.7083 1.04199 17.9881 1.04199 18.3333C1.04199 18.6784 1.32181 18.9583 1.66699 18.9583H18.3337C18.6788 18.9583 18.9587 18.6784 18.9587 18.3333C18.9587 17.9881 18.6788 17.7083 18.3337 17.7083H18.1253ZM14.3753 17.7083V13.3333C14.3753 12.5299 14.374 11.9903 14.3199 11.5877C14.2682 11.2032 14.1788 11.0386 14.0702 10.93C13.9616 10.8214 13.7971 10.7321 13.4125 10.6804C13.01 10.6262 12.4703 10.6249 11.667 10.6249H8.33366C7.53032 10.6249 6.99068 10.6262 6.58815 10.6804C6.2036 10.7321 6.03902 10.8214 5.93042 10.93C5.82183 11.0386 5.73247 11.2032 5.68077 11.5877C5.62665 11.9903 5.62533 12.5299 5.62533 13.3333V17.7083H14.3753ZM7.70866 7.49992C7.70866 7.15474 7.98848 6.87492 8.33366 6.87492H11.667C12.0122 6.87492 12.292 7.15474 12.292 7.49992C12.292 7.8451 12.0122 8.12492 11.667 8.12492H8.33366C7.98848 8.12492 7.70866 7.8451 7.70866 7.49992ZM6.87533 12.9166C6.87533 12.5714 7.15515 12.2916 7.50033 12.2916H12.5003C12.8455 12.2916 13.1253 12.5714 13.1253 12.9166C13.1253 13.2618 12.8455 13.5416 12.5003 13.5416H7.50033C7.15515 13.5416 6.87533 13.2618 6.87533 12.9166ZM6.87533 15.4166C6.87533 15.0714 7.15515 14.7916 7.50033 14.7916H12.5003C12.8455 14.7916 13.1253 15.0714 13.1253 15.4166C13.1253 15.7618 12.8455 16.0416 12.5003 16.0416H7.50033C7.15515 16.0416 6.87533 15.7618 6.87533 15.4166Z" fill="#1C4F92"/>
</svg>
