<svg width="25" height="24" viewBox="0 0 25 24" fill="none" xmlns="http://www.w3.org/2000/svg">
<path d="M20.8574 11.3V7.04001C20.8574 3.01001 19.9174 2 16.1374 2H8.57742C4.79742 2 3.85742 3.01001 3.85742 7.04001V18.3C3.85742 20.96 5.31743 21.59 7.08743 19.69L7.09741 19.68C7.91741 18.81 9.16741 18.88 9.87741 19.83L10.8874 21.18" stroke="black" stroke-width="1.5" stroke-linecap="round" stroke-linejoin="round"/>
<path d="M8.35742 7H16.3574" stroke="black" stroke-width="1.5" stroke-linecap="round" stroke-linejoin="round"/>
<path d="M9.35742 11H15.3574" stroke="black" stroke-width="1.5" stroke-linecap="round" stroke-linejoin="round"/>
<path d="M18.5684 14.7703L15.0284 18.3103C14.8884 18.4503 14.7584 18.7103 14.7284 18.9003L14.5384 20.2503C14.4684 20.7403 14.8084 21.0803 15.2984 21.0103L16.6484 20.8203C16.8384 20.7903 17.1084 20.6603 17.2384 20.5203L20.7784 16.9803C21.3884 16.3703 21.6784 15.6603 20.7784 14.7603C19.8884 13.8703 19.1784 14.1603 18.5684 14.7703Z" stroke="black" stroke-width="1.5" stroke-miterlimit="10" stroke-linecap="round" stroke-linejoin="round"/>
<path d="M18.0566 15.2803C18.3566 16.3603 19.1966 17.2003 20.2766 17.5003" stroke="black" stroke-width="1.5" stroke-miterlimit="10" stroke-linecap="round" stroke-linejoin="round"/>
</svg>
