<svg width="24" height="25" viewBox="0 0 24 25" fill="none" xmlns="http://www.w3.org/2000/svg">
<g clip-path="url(#clip0_9493_20098)">
<path fill-rule="evenodd" clip-rule="evenodd" d="M2.75 7.50012C2.75 6.80977 3.30964 6.25012 4 6.25012H20C20.6904 6.25012 21.25 6.80977 21.25 7.50012V17.5001C21.25 18.1905 20.6904 18.7501 20 18.7501H4C3.30964 18.7501 2.75 18.1905 2.75 17.5001V7.50012ZM4 4.75012C2.48122 4.75012 1.25 5.98134 1.25 7.50012V17.5001C1.25 19.0189 2.48122 20.2501 4 20.2501H20C21.5188 20.2501 22.75 19.0189 22.75 17.5001V7.50012C22.75 5.98134 21.5188 4.75012 20 4.75012H4ZM7.4301 8.8857C7.09076 8.64816 6.62312 8.73069 6.38558 9.07002C6.14804 9.40936 6.23057 9.87701 6.56991 10.1145L11.5699 13.6145C11.8281 13.7953 12.1719 13.7953 12.4301 13.6145L17.4301 10.1145C17.7694 9.87701 17.852 9.40936 17.6144 9.07002C17.3769 8.73069 16.9092 8.64816 16.5699 8.8857L12 12.0846L7.4301 8.8857Z" fill="#2E353F"/>
</g>
<defs>
<clipPath id="clip0_9493_20098">
<rect width="24" height="24" fill="white" transform="translate(0 0.500122)"/>
</clipPath>
</defs>
</svg>
