<svg width="33" height="32" viewBox="0 0 33 32" fill="none" xmlns="http://www.w3.org/2000/svg">
<path d="M22.8068 2.66666H10.1268C8.58166 2.66666 7.80907 2.66666 7.18598 2.88347C6.00442 3.2946 5.07677 4.24958 4.6774 5.46594C4.4668 6.10739 4.4668 6.90273 4.4668 8.4934V27.1656C4.4668 28.3099 5.78013 28.917 6.61093 28.1568C7.09903 27.7102 7.83457 27.7102 8.32267 28.1568L8.9668 28.7462C9.82225 29.529 11.1113 29.529 11.9668 28.7462C12.8222 27.9634 14.1113 27.9634 14.9668 28.7462C15.8222 29.529 17.1113 29.529 17.9668 28.7462C18.8222 27.9634 20.1113 27.9634 20.9668 28.7462C21.8222 29.529 23.1113 29.529 23.9668 28.7462L24.6109 28.1568C25.099 27.7102 25.8346 27.7102 26.3227 28.1568C27.1535 28.917 28.4668 28.3099 28.4668 27.1656V8.4934C28.4668 6.90273 28.4668 6.10739 28.2562 5.46594C27.8568 4.24958 26.9292 3.2946 25.7476 2.88347C25.1245 2.66666 24.3519 2.66666 22.8068 2.66666Z" stroke="#1C274C" stroke-width="1.5"/>
<path d="M13.1328 13.8667L15.0376 16L19.7995 10.6667" stroke="#22A06B" stroke-width="1.5" stroke-linecap="round" stroke-linejoin="round"/>
<path d="M10.4668 20.6667H22.4668" stroke="#22A06B" stroke-width="1.5" stroke-linecap="round"/>
</svg>
