<svg width="66" height="65" viewBox="0 0 66 65" fill="none" xmlns="http://www.w3.org/2000/svg">
<path fill-rule="evenodd" clip-rule="evenodd" d="M32.9987 3.3855C25.8938 3.3855 20.1341 9.14517 20.1341 16.2501C20.1341 23.355 25.8938 29.1147 32.9987 29.1147C40.1036 29.1147 45.8633 23.355 45.8633 16.2501C45.8633 9.14517 40.1036 3.3855 32.9987 3.3855ZM24.1966 16.2501C24.1966 11.3888 28.1374 7.448 32.9987 7.448C37.86 7.448 41.8008 11.3888 41.8008 16.2501C41.8008 21.1113 37.86 25.0522 32.9987 25.0522C28.1374 25.0522 24.1966 21.1113 24.1966 16.2501Z" fill="#7A7B7A"/>
<path d="M49.2487 8.80216C48.1269 8.80216 47.2174 9.71159 47.2174 10.8334C47.2174 11.9552 48.1269 12.8647 49.2487 12.8647C52.9767 12.8647 55.3424 15.3177 55.3424 17.6042C55.3424 19.8908 52.9767 22.3438 49.2487 22.3438C48.1269 22.3438 47.2174 23.2533 47.2174 24.3751C47.2174 25.4969 48.1269 26.4063 49.2487 26.4063C54.4953 26.4063 59.4049 22.7965 59.4049 17.6042C59.4049 12.412 54.4953 8.80216 49.2487 8.80216Z" fill="#7A7B7A"/>
<path d="M18.7799 10.8334C18.7799 9.71159 17.8705 8.80216 16.7487 8.80216C11.5021 8.80216 6.59245 12.412 6.59245 17.6042C6.59245 22.7965 11.5021 26.4063 16.7487 26.4063C17.8705 26.4063 18.7799 25.4969 18.7799 24.3751C18.7799 23.2533 17.8705 22.3438 16.7487 22.3438C13.0207 22.3438 10.6549 19.8908 10.6549 17.6042C10.6549 15.3177 13.0207 12.8647 16.7487 12.8647C17.8705 12.8647 18.7799 11.9552 18.7799 10.8334Z" fill="#7A7B7A"/>
<path fill-rule="evenodd" clip-rule="evenodd" d="M32.9987 33.1772C28.1663 33.1772 23.6995 34.4793 20.3815 36.6913C17.0777 38.8939 14.7174 42.1597 14.7174 46.0417C14.7174 49.9238 17.0777 53.1896 20.3815 55.3922C23.6995 57.6042 28.1663 58.9063 32.9987 58.9063C37.8311 58.9063 42.2979 57.6042 45.6159 55.3922C48.9197 53.1896 51.2799 49.9238 51.2799 46.0417C51.2799 42.1597 48.9197 38.8939 45.6159 36.6913C42.2979 34.4793 37.8311 33.1772 32.9987 33.1772ZM18.7799 46.0417C18.7799 43.9407 20.0574 41.7899 22.6349 40.0715C25.1983 38.3626 28.8565 37.2397 32.9987 37.2397C37.1409 37.2397 40.7991 38.3626 43.3624 40.0715C45.94 41.7899 47.2174 43.9407 47.2174 46.0417C47.2174 48.1428 45.94 50.2936 43.3624 52.012C40.7991 53.7208 37.1409 54.8438 32.9987 54.8438C28.8565 54.8438 25.1983 53.7208 22.6349 52.012C20.0574 50.2936 18.7799 48.1428 18.7799 46.0417Z" fill="#7A7B7A"/>
<path d="M52.6813 37.4816C52.9216 36.3859 54.0047 35.6923 55.1005 35.9326C57.7056 36.5039 60.053 37.5358 61.7959 38.962C63.5372 40.3868 64.8216 42.3455 64.8216 44.6876C64.8216 47.0296 63.5372 48.9883 61.7959 50.4132C60.053 51.8393 57.7056 52.8712 55.1005 53.4425C54.0047 53.6828 52.9216 52.9893 52.6813 51.8935C52.441 50.7977 53.1345 49.7146 54.2303 49.4743C56.3763 49.0037 58.0913 48.1954 59.2232 47.2692C60.3566 46.3417 60.7591 45.4359 60.7591 44.6876C60.7591 43.9393 60.3566 43.0335 59.2232 42.106C58.0913 41.1798 56.3763 40.3715 54.2303 39.9008C53.1345 39.6605 52.441 38.5774 52.6813 37.4816Z" fill="#7A7B7A"/>
<path d="M10.8969 35.9326C11.9927 35.6923 13.0758 36.3859 13.3161 37.4816C13.5564 38.5774 12.8629 39.6605 11.7671 39.9008C9.62115 40.3715 7.90613 41.1798 6.77424 42.106C5.64082 43.0335 5.23828 43.9393 5.23828 44.6876C5.23828 45.4359 5.64082 46.3417 6.77424 47.2692C7.90613 48.1954 9.62115 49.0037 11.7671 49.4743C12.8629 49.7146 13.5564 50.7977 13.3161 51.8935C13.0758 52.9893 11.9927 53.6828 10.8969 53.4425C8.29183 52.8712 5.94435 51.8393 4.20151 50.4132C2.4602 48.9883 1.17578 47.0296 1.17578 44.6876C1.17578 42.3455 2.4602 40.3868 4.20151 38.962C5.94435 37.5358 8.29183 36.5039 10.8969 35.9326Z" fill="#7A7B7A"/>
</svg>
