<svg width="24" height="30" viewBox="0 0 24 30" fill="none" xmlns="http://www.w3.org/2000/svg">
<g clip-path="url(#clip0_9448_53599)">
<path d="M10.9331 20.42H12.3853C12.5275 20.42 12.6426 20.3048 12.6426 20.1626V9.43945H10.6758V20.1626C10.6758 20.3048 10.7909 20.42 10.9331 20.42Z" fill="#0E8340"/>
<path d="M11.6597 9.43945V20.1628C11.6597 20.3048 11.5444 20.4201 11.4023 20.4201H12.3858C12.528 20.4201 12.6432 20.3048 12.6432 20.1628V9.43945H11.6597Z" fill="url(#paint0_linear_9448_53599)"/>
<path d="M11.6602 11.7746C14.6094 11.7746 17.0001 9.38379 17.0001 6.43464C17.0001 3.48549 14.6094 1.09473 11.6602 1.09473C8.71107 1.09473 6.32031 3.48549 6.32031 6.43464C6.32031 9.38379 8.71107 11.7746 11.6602 11.7746Z" fill="#00DB81"/>
<path d="M11.1994 9.53393C10.9381 9.53393 10.687 9.42996 10.5021 9.24505L8.5741 7.31731C8.18884 6.93244 8.18884 6.30808 8.5741 5.92282C8.95937 5.53756 9.58333 5.53756 9.9686 5.92282L11.1994 7.15299L13.6931 4.65907C14.0783 4.2738 14.7023 4.2738 15.0876 4.65907C15.4728 5.04394 15.4728 5.66829 15.0876 6.05356L11.8967 9.24505C11.7117 9.42996 11.4613 9.53393 11.1994 9.53393Z" fill="white"/>
<path d="M11.1994 9.11499C10.9381 9.11499 10.687 9.01102 10.5021 8.82611L8.5741 6.89837C8.18884 6.51349 8.18884 5.88914 8.5741 5.50388C8.95937 5.11861 9.58333 5.11861 9.9686 5.50388L11.1994 6.73404L13.6931 4.24012C14.0783 3.85486 14.7023 3.85486 15.0876 4.24012C15.4728 4.625 15.4728 5.24935 15.0876 5.63461L11.8967 8.82611C11.7117 9.01102 11.4613 9.11499 11.1994 9.11499Z" fill="#EAEAEA"/>
<path d="M15.0859 4.3043L11.8951 7.49579C11.7102 7.6807 11.4598 7.78467 11.1978 7.78467C10.9364 7.78467 10.6854 7.6807 10.5005 7.49579L8.57248 5.56805C8.56232 5.55789 8.55537 5.54579 8.54572 5.53524C8.19056 5.9223 8.19751 6.52221 8.57248 6.89692L10.5005 8.82466C10.6854 9.00957 10.9364 9.11354 11.1978 9.11354C11.4598 9.11354 11.7101 9.00957 11.8951 8.82466L15.0859 5.63316C15.461 5.25819 15.4679 4.65816 15.1127 4.27148C15.1031 4.28191 15.0961 4.294 15.0859 4.3043Z" fill="white"/>
</g>
<path d="M12 19.5811C13.1046 19.5811 14 18.6856 14 17.5811C14 16.4765 13.1046 15.5811 12 15.5811C10.8954 15.5811 10 16.4765 10 17.5811C10 18.6856 10.8954 19.5811 12 19.5811Z" fill="#00DB81"/>
<g opacity="0.4">
<path d="M5.46689 9.97313C5.75949 10.2663 5.75902 10.7412 5.46583 11.0338C3.78722 12.7091 2.75 15.0232 2.75 17.5811C2.75 20.1688 3.81163 22.5073 5.52503 24.1869C5.82082 24.4769 5.82554 24.9518 5.53557 25.2476C5.24561 25.5433 4.77076 25.5481 4.47497 25.2581C2.48564 23.3079 1.25 20.5881 1.25 17.5811C1.25 14.6089 2.45721 11.9172 4.40623 9.97207C4.69941 9.67947 5.17429 9.67994 5.46689 9.97313Z" fill="#00DB81"/>
<path d="M18.6164 10.0455C18.9122 9.75554 19.387 9.76026 19.677 10.0561C21.5771 11.9943 22.75 14.6515 22.75 17.5811C22.75 20.5455 21.5491 23.2309 19.609 25.1749C19.3164 25.468 18.8415 25.4685 18.5484 25.1759C18.2552 24.8833 18.2547 24.4084 18.5473 24.1153C20.2182 22.441 21.25 20.1323 21.25 17.5811C21.25 15.0598 20.2422 12.7754 18.6059 11.1061C18.3159 10.8103 18.3206 10.3355 18.6164 10.0455Z" fill="#00DB81"/>
</g>
<g opacity="0.8">
<path d="M8.30923 13.0686C8.59226 13.371 8.57652 13.8456 8.27408 14.1287C7.32517 15.0167 6.75 16.2313 6.75 17.5633C6.75 18.9107 7.33869 20.1383 8.30756 21.0289C8.61251 21.3092 8.63248 21.7837 8.35216 22.0886C8.07185 22.3936 7.59739 22.4135 7.29244 22.1332C6.03967 20.9817 5.25 19.3634 5.25 17.5633C5.25 15.784 6.02148 14.1823 7.24916 13.0334C7.5516 12.7504 8.02621 12.7662 8.30923 13.0686Z" fill="#00DB81"/>
<path d="M15.7429 13.1066C16.0292 12.8073 16.5039 12.7967 16.8033 13.083C18.0005 14.2282 18.75 15.8096 18.75 17.5633C18.75 19.3378 17.9825 20.9359 16.7604 22.0841C16.4586 22.3677 15.9839 22.3529 15.7003 22.051C15.4167 21.7492 15.4315 21.2745 15.7333 20.9909C16.6778 20.1035 17.25 18.8918 17.25 17.5633C17.25 16.2502 16.6911 15.0515 15.7664 14.167C15.4671 13.8807 15.4566 13.4059 15.7429 13.1066Z" fill="#00DB81"/>
</g>
<defs>
<linearGradient id="paint0_linear_9448_53599" x1="12.6432" y1="14.9298" x2="11.4023" y2="14.9298" gradientUnits="userSpaceOnUse">
<stop stop-color="#023936"/>
<stop offset="1" stop-color="#008079"/>
</linearGradient>
<clipPath id="clip0_9448_53599">
<rect width="14" height="16" fill="white" transform="translate(3 0.418945)"/>
</clipPath>
</defs>
</svg>
