<svg width="40" height="40" viewBox="0 0 40 40" fill="none" xmlns="http://www.w3.org/2000/svg">
<rect width="40" height="40" rx="10" fill="white"/>
<path d="M22.0846 17.7083H11.668C11.3263 17.7083 11.043 17.4249 11.043 17.0833C11.043 16.7416 11.3263 16.4583 11.668 16.4583H22.0846C22.4263 16.4583 22.7096 16.7416 22.7096 17.0833C22.7096 17.4249 22.4263 17.7083 22.0846 17.7083ZM16.668 24.3749H15.0013C14.6596 24.3749 14.3763 24.0916 14.3763 23.7499C14.3763 23.4083 14.6596 23.1249 15.0013 23.1249H16.668C17.0096 23.1249 17.293 23.4083 17.293 23.7499C17.293 24.0916 17.0096 24.3749 16.668 24.3749ZM22.0846 24.3749H18.7513C18.4096 24.3749 18.1263 24.0916 18.1263 23.7499C18.1263 23.4083 18.4096 23.1249 18.7513 23.1249H22.0846C22.4263 23.1249 22.7096 23.4083 22.7096 23.7499C22.7096 24.0916 22.4263 24.3749 22.0846 24.3749Z" fill="#22A06B"/>
<path d="M24.6346 27.7082H15.368C12.0513 27.7082 11.043 26.7082 11.043 23.4248V16.5748C11.043 13.2915 12.0513 12.2915 15.368 12.2915H22.0846C22.4263 12.2915 22.7096 12.5748 22.7096 12.9165C22.7096 13.2582 22.4263 13.5415 22.0846 13.5415H15.368C12.7513 13.5415 12.293 13.9915 12.293 16.5748V23.4165C12.293 25.9998 12.7513 26.4498 15.368 26.4498H24.6263C27.243 26.4498 27.7013 25.9998 27.7013 23.4165V21.6832C27.7013 21.3415 27.9846 21.0582 28.3263 21.0582C28.668 21.0582 28.9513 21.3415 28.9513 21.6832V23.4165C28.9596 26.7082 27.9513 27.7082 24.6346 27.7082Z" fill="#22A06B"/>
<path d="M26.668 18.5415C26.5024 18.5408 26.3438 18.4748 26.2268 18.3577C26.1097 18.2407 26.0436 18.0821 26.043 17.9165V12.9165C26.043 12.5748 26.3263 12.2915 26.668 12.2915C27.0096 12.2915 27.293 12.5748 27.293 12.9165V16.4082L27.893 15.8082C28.1346 15.5665 28.5346 15.5665 28.7763 15.8082C29.018 16.0498 29.018 16.4498 28.7763 16.6915L27.1096 18.3582C26.9925 18.4754 26.8337 18.5414 26.668 18.5415Z" fill="#22A06B"/>
<path d="M26.6675 18.5415C26.5092 18.5415 26.3508 18.4832 26.2258 18.3582L24.5592 16.6915C24.3175 16.4499 24.3175 16.0499 24.5592 15.8082C24.8008 15.5665 25.2008 15.5665 25.4425 15.8082L27.1092 17.4749C27.3508 17.7165 27.3508 18.1165 27.1092 18.3582C26.9842 18.4832 26.8258 18.5415 26.6675 18.5415Z" fill="#22A06B"/>
</svg>
