<svg width="40" height="40" viewBox="0 0 40 40" fill="none" xmlns="http://www.w3.org/2000/svg">
<rect width="40" height="40" rx="10" fill="white"/>
<path d="M17.9159 22.2915L28.3325 22.2915C28.6742 22.2915 28.9575 22.5748 28.9575 22.9165C28.9575 23.2582 28.6742 23.5415 28.3325 23.5415L17.9159 23.5415C17.5742 23.5415 17.2909 23.2582 17.2909 22.9165C17.2909 22.5748 17.5742 22.2915 17.9159 22.2915ZM23.3325 15.6248L24.9992 15.6248C25.3409 15.6248 25.6242 15.9082 25.6242 16.2498C25.6242 16.5915 25.3409 16.8748 24.9992 16.8748L23.3325 16.8748C22.9909 16.8748 22.7075 16.5915 22.7075 16.2498C22.7075 15.9082 22.9909 15.6248 23.3325 15.6248ZM17.9159 15.6248L21.2492 15.6248C21.5909 15.6248 21.8742 15.9082 21.8742 16.2498C21.8742 16.5915 21.5909 16.8748 21.2492 16.8748L17.9159 16.8748C17.5742 16.8748 17.2909 16.5915 17.2909 16.2498C17.2909 15.9082 17.5742 15.6248 17.9159 15.6248Z" fill="#E34935"/>
<path d="M15.3659 12.2916L24.6325 12.2916C27.9492 12.2916 28.9575 13.2916 28.9575 16.5749L28.9575 23.4249C28.9575 26.7083 27.9492 27.7083 24.6325 27.7083L17.9159 27.7083C17.5742 27.7083 17.2909 27.4249 17.2909 27.0833C17.2909 26.7416 17.5742 26.4583 17.9159 26.4583L24.6325 26.4583C27.2492 26.4583 27.7075 26.0083 27.7075 23.4249L27.7075 16.5833C27.7075 13.9999 27.2492 13.5499 24.6325 13.5499L15.3742 13.5499C12.7575 13.5499 12.2992 13.9999 12.2992 16.5833L12.2992 18.3166C12.2992 18.6583 12.0159 18.9416 11.6742 18.9416C11.3325 18.9416 11.0492 18.6583 11.0492 18.3166L11.0492 16.5833C11.0409 13.2916 12.0492 12.2916 15.3659 12.2916Z" fill="#E34935"/>
<path d="M13.3325 21.4583C13.4981 21.4589 13.6567 21.525 13.7737 21.642C13.8908 21.7591 13.9569 21.9177 13.9575 22.0833L13.9575 27.0833C13.9575 27.4249 13.6742 27.7083 13.3325 27.7083C12.9909 27.7083 12.7075 27.4249 12.7075 27.0833L12.7075 23.5916L12.1075 24.1916C11.8659 24.4333 11.4659 24.4333 11.2242 24.1916C10.9825 23.9499 10.9825 23.5499 11.2242 23.3083L12.8909 21.6416C13.008 21.5243 13.1668 21.4584 13.3325 21.4583Z" fill="#E34935"/>
<path d="M13.3325 21.4582C13.4908 21.4582 13.6492 21.5166 13.7742 21.6416L15.4408 23.3082C15.6825 23.5499 15.6825 23.9499 15.4408 24.1916C15.1992 24.4332 14.7992 24.4332 14.5575 24.1916L12.8908 22.5249C12.6492 22.2832 12.6492 21.8832 12.8908 21.6416C13.0158 21.5166 13.1742 21.4582 13.3325 21.4582Z" fill="#E34935"/>
</svg>
