<svg width="36" height="36" viewBox="0 0 36 36" fill="none" xmlns="http://www.w3.org/2000/svg">
<path fill-rule="evenodd" clip-rule="evenodd" d="M10.125 18C10.125 13.6508 13.6508 10.125 18 10.125C22.3492 10.125 25.875 13.6508 25.875 18C25.875 22.3492 22.3492 25.875 18 25.875C13.6508 25.875 10.125 22.3492 10.125 18ZM18 12.375C14.8934 12.375 12.375 14.8934 12.375 18C12.375 21.1066 14.8934 23.625 18 23.625C21.1066 23.625 23.625 21.1066 23.625 18C23.625 14.8934 21.1066 12.375 18 12.375Z" fill="#161616"/>
<path d="M26.2617 11.25C27.0901 11.25 27.7617 10.5784 27.7617 9.75C27.7617 8.92157 27.0901 8.25 26.2617 8.25H26.2482C25.4198 8.25 24.7482 8.92157 24.7482 9.75C24.7482 10.5784 25.4198 11.25 26.2482 11.25H26.2617Z" fill="#161616"/>
<path fill-rule="evenodd" clip-rule="evenodd" d="M18.0858 2.625C21.3718 2.62498 23.9529 2.62497 25.968 2.89589C28.033 3.17352 29.6713 3.75407 30.9586 5.04137C32.2459 6.32867 32.8265 7.96705 33.1041 10.032C33.375 12.0472 33.375 14.6282 33.375 17.9142V18.0858C33.375 21.3718 33.375 23.9528 33.1041 25.968C32.8265 28.033 32.2459 29.6713 30.9586 30.9586C29.6713 32.2459 28.033 32.8265 25.968 33.1041C23.9528 33.375 21.3718 33.375 18.0858 33.375H17.9143C14.6282 33.375 12.0472 33.375 10.032 33.1041C7.96705 32.8265 6.32867 32.2459 5.04137 30.9586C3.75407 29.6713 3.17352 28.033 2.89589 25.968C2.62496 23.9528 2.62498 21.3718 2.625 18.0858L2.625 17.9142C2.62498 14.6282 2.62496 12.0472 2.89589 10.032C3.17352 7.96705 3.75407 6.32867 5.04137 5.04137C6.32867 3.75407 7.96705 3.17352 10.032 2.89589C12.0472 2.62497 14.6282 2.62498 17.9142 2.625L18.0858 2.625ZM10.3318 5.12583C8.51636 5.36991 7.43193 5.83279 6.63236 6.63236C5.83279 7.43193 5.36991 8.51636 5.12583 10.3318C4.87739 12.1797 4.875 14.6094 4.875 18C4.875 21.3906 4.87739 23.8203 5.12583 25.6682C5.36991 27.4836 5.83279 28.5681 6.63236 29.3676C7.43193 30.1672 8.51636 30.6301 10.3318 30.8742C12.1797 31.1226 14.6094 31.125 18 31.125C21.3906 31.125 23.8203 31.1226 25.6682 30.8742C27.4836 30.6301 28.5681 30.1672 29.3676 29.3676C30.1672 28.5681 30.6301 27.4836 30.8742 25.6682C31.1226 23.8203 31.125 21.3906 31.125 18C31.125 14.6094 31.1226 12.1797 30.8742 10.3318C30.6301 8.51636 30.1672 7.43193 29.3676 6.63236C28.5681 5.83279 27.4836 5.36991 25.6682 5.12583C23.8203 4.87739 21.3906 4.875 18 4.875C14.6094 4.875 12.1797 4.87739 10.3318 5.12583Z" fill="#161616"/>
</svg>
