<svg width="40" height="40" viewBox="0 0 40 40" fill="none" xmlns="http://www.w3.org/2000/svg">
<path d="M26.6 1V9.06C26.6 10.9 28.09 12.4 29.94 12.4H38M38 13.11V35C38 37.21 36.21 39 34 39H12C9.79 39 8 37.21 8 35V5C8 2.79 9.79 1 12 1H25.89C26.95 1 27.97 1.42 28.72 2.17L36.83 10.28C37.58 11.03 38 12.05 38 13.11Z" stroke="#D1D5DB" stroke-width="1.5" stroke-miterlimit="10"/>
<rect x="1" y="16" width="20" height="16" rx="4" fill="#023936"/>
<path d="M3.66051 22.0455H4.94602V27.8125C4.94602 28.2055 4.87145 28.5298 4.7223 28.7855C4.57315 29.0412 4.35772 29.2318 4.07599 29.3572C3.79427 29.4827 3.45218 29.5455 3.04972 29.5455C3.00237 29.5455 2.95857 29.5443 2.91832 29.5419C2.87808 29.5419 2.83428 29.5407 2.78693 29.5384V28.4908C2.82244 28.4931 2.8544 28.4943 2.88281 28.4943C2.91122 28.4967 2.94081 28.4979 2.97159 28.4979C3.2178 28.4979 3.39418 28.4375 3.50071 28.3168C3.60724 28.1984 3.66051 28.0244 3.66051 27.7947V22.0455ZM4.29972 21.2713C4.09375 21.2713 3.91738 21.2038 3.7706 21.0689C3.62618 20.9316 3.55398 20.767 3.55398 20.5753C3.55398 20.3812 3.62618 20.2166 3.7706 20.0817C3.91738 19.9444 4.09375 19.8757 4.29972 19.8757C4.50331 19.8757 4.67732 19.9444 4.82173 20.0817C4.96851 20.2166 5.0419 20.3812 5.0419 20.5753C5.0419 20.767 4.96851 20.9316 4.82173 21.0689C4.67732 21.2038 4.50331 21.2713 4.29972 21.2713ZM6.26793 29.5455V22.0455H7.53214V22.9474H7.60671C7.673 22.8149 7.76651 22.674 7.88725 22.5249C8.00799 22.3733 8.17134 22.2443 8.37731 22.1378C8.58327 22.0289 8.84606 21.9744 9.16566 21.9744C9.58706 21.9744 9.96703 22.0821 10.3056 22.2976C10.6465 22.5107 10.9164 22.8267 11.1152 23.2457C11.3165 23.6624 11.4171 24.1738 11.4171 24.7798C11.4171 25.3788 11.3188 25.8878 11.1223 26.3068C10.9258 26.7259 10.6583 27.0455 10.3198 27.2656C9.98124 27.4858 9.59772 27.5959 9.16921 27.5959C8.85671 27.5959 8.59748 27.5438 8.39151 27.4396C8.18555 27.3355 8.01983 27.21 7.89435 27.0632C7.77125 26.9141 7.67537 26.7732 7.60671 26.6406H7.55344V29.5455H6.26793ZM7.52859 24.7727C7.52859 25.1255 7.5783 25.4344 7.67773 25.6996C7.77953 25.9647 7.92513 26.1719 8.11452 26.321C8.30629 26.4678 8.53829 26.5412 8.81055 26.5412C9.09464 26.5412 9.33256 26.4654 9.52433 26.3139C9.71609 26.16 9.8605 25.9505 9.95756 25.6854C10.057 25.4179 10.1067 25.1136 10.1067 24.7727C10.1067 24.4342 10.0582 24.1335 9.96112 23.8707C9.86405 23.608 9.71964 23.402 9.52788 23.2528C9.33612 23.1037 9.09701 23.0291 8.81055 23.0291C8.53593 23.0291 8.30273 23.1013 8.11097 23.2457C7.91921 23.3902 7.77362 23.5926 7.67418 23.853C7.57712 24.1134 7.52859 24.42 7.52859 24.7727ZM14.8901 29.6591C14.4284 29.6591 14.0319 29.5964 13.7005 29.4709C13.369 29.3478 13.1027 29.1821 12.9015 28.9737C12.7002 28.7654 12.5605 28.5346 12.4824 28.2812L13.6401 28.0007C13.6922 28.1072 13.7679 28.2126 13.8674 28.3168C13.9668 28.4233 14.1006 28.5109 14.2686 28.5795C14.4391 28.6506 14.6533 28.6861 14.9114 28.6861C15.276 28.6861 15.5778 28.5973 15.8169 28.4197C16.056 28.2446 16.1756 27.9557 16.1756 27.5533V26.5199H16.1117C16.0454 26.6525 15.9483 26.7886 15.8205 26.9283C15.695 27.0679 15.5281 27.1851 15.3198 27.2798C15.1138 27.3745 14.8546 27.4219 14.5421 27.4219C14.123 27.4219 13.7431 27.3236 13.4022 27.1271C13.0636 26.9283 12.7937 26.6323 12.5925 26.2393C12.3936 25.844 12.2942 25.3492 12.2942 24.755C12.2942 24.156 12.3936 23.6506 12.5925 23.2386C12.7937 22.8243 13.0648 22.5107 13.4057 22.2976C13.7466 22.0821 14.1266 21.9744 14.5456 21.9744C14.8652 21.9744 15.128 22.0289 15.334 22.1378C15.5423 22.2443 15.708 22.3733 15.8311 22.5249C15.9542 22.674 16.0478 22.8149 16.1117 22.9474H16.1827V22.0455H17.4505V27.5888C17.4505 28.0552 17.3392 28.4411 17.1167 28.7464C16.8941 29.0518 16.5899 29.2803 16.204 29.4318C15.8181 29.5833 15.3801 29.6591 14.8901 29.6591ZM14.9007 26.4134C15.173 26.4134 15.405 26.3471 15.5968 26.2145C15.7885 26.0819 15.9341 25.8913 16.0336 25.6428C16.133 25.3942 16.1827 25.0959 16.1827 24.7479C16.1827 24.4046 16.133 24.1039 16.0336 23.8459C15.9365 23.5878 15.7921 23.3878 15.6003 23.2457C15.4109 23.1013 15.1777 23.0291 14.9007 23.0291C14.6143 23.0291 14.3752 23.1037 14.1834 23.2528C13.9917 23.402 13.8472 23.6068 13.7502 23.8672C13.6531 24.1252 13.6046 24.4188 13.6046 24.7479C13.6046 25.0817 13.6531 25.3741 13.7502 25.625C13.8496 25.8736 13.9952 26.0677 14.187 26.2074C14.3811 26.3447 14.619 26.4134 14.9007 26.4134Z" fill="white"/>
</svg>
