<svg width="32" height="32" viewBox="0 0 32 32" fill="none" xmlns="http://www.w3.org/2000/svg">
<path d="M9.625 13C9.625 12.3787 9.12132 11.875 8.5 11.875C7.87868 11.875 7.375 12.3787 7.375 13L7.375 23.5C7.375 24.1213 7.87868 24.625 8.5 24.625C9.12132 24.625 9.625 24.1213 9.625 23.5L9.625 13Z" fill="#161616"/>
<path d="M14.5 11.875C15.1212 11.875 15.6248 12.3785 15.625 12.9996C16.5651 12.2934 17.7337 11.875 19 11.875C22.1066 11.875 24.625 14.3934 24.625 17.5L24.625 23.5C24.625 24.1213 24.1213 24.625 23.5 24.625C22.8787 24.625 22.375 24.1213 22.375 23.5L22.375 17.5C22.375 15.636 20.864 14.125 19 14.125C17.136 14.125 15.625 15.636 15.625 17.5L15.625 23.5C15.625 24.1213 15.1213 24.625 14.5 24.625C13.8787 24.625 13.375 24.1213 13.375 23.5L13.375 13C13.375 12.3787 13.8787 11.875 14.5 11.875Z" fill="#161616"/>
<path d="M10.0121 8.5C10.0121 9.32843 9.34051 10 8.51209 10H8.49861C7.67019 10 6.99861 9.32843 6.99861 8.5C6.99861 7.67157 7.67019 7 8.49861 7H8.51209C9.34051 7 10.0121 7.67157 10.0121 8.5Z" fill="#161616"/>
<path fill-rule="evenodd" clip-rule="evenodd" d="M16.0858 0.625H15.9142C12.6282 0.62498 10.0472 0.624966 8.03204 0.895891C5.96705 1.17352 4.32867 1.75407 3.04137 3.04137C1.75407 4.32867 1.17352 5.96705 0.895891 8.03204C0.624964 10.0472 0.62498 12.6282 0.625 15.9142V16.0858C0.62498 19.3718 0.624964 21.9528 0.895891 23.968C1.17352 26.033 1.75407 27.6713 3.04137 28.9586C4.32867 30.2459 5.96705 30.8265 8.03204 31.1041C10.0472 31.375 12.6282 31.375 15.9142 31.375H16.0858C19.3718 31.375 21.9528 31.375 23.968 31.1041C26.033 30.8265 27.6713 30.2459 28.9586 28.9586C30.2459 27.6713 30.8265 26.033 31.1041 23.968C31.375 21.9528 31.375 19.3718 31.375 16.0858V15.9142C31.375 12.6282 31.375 10.0472 31.1041 8.03204C30.8265 5.96705 30.2459 4.32867 28.9586 3.04137C27.6713 1.75407 26.033 1.17352 23.968 0.895891C21.9529 0.624966 19.3719 0.62498 16.0858 0.625ZM4.63236 4.63236C5.43193 3.83279 6.51636 3.36991 8.33184 3.12583C10.1797 2.87739 12.6094 2.875 16 2.875C19.3906 2.875 21.8203 2.87739 23.6682 3.12583C25.4836 3.36991 26.5681 3.83279 27.3676 4.63236C28.1672 5.43193 28.6301 6.51636 28.8742 8.33184C29.1226 10.1797 29.125 12.6094 29.125 16C29.125 19.3906 29.1226 21.8203 28.8742 23.6682C28.6301 25.4836 28.1672 26.5681 27.3676 27.3676C26.5681 28.1672 25.4836 28.6301 23.6682 28.8742C21.8203 29.1226 19.3906 29.125 16 29.125C12.6094 29.125 10.1797 29.1226 8.33184 28.8742C6.51636 28.6301 5.43193 28.1672 4.63236 27.3676C3.83279 26.5681 3.36991 25.4836 3.12583 23.6682C2.87739 21.8203 2.875 19.3906 2.875 16C2.875 12.6094 2.87739 10.1797 3.12583 8.33184C3.36991 6.51636 3.83279 5.43193 4.63236 4.63236Z" fill="#161616"/>
</svg>
