<svg width="17" height="24" viewBox="0 0 17 24" fill="none" xmlns="http://www.w3.org/2000/svg">
<path d="M5.58398 19.625C3.95898 17.5938 0.333984 12.75 0.333984 10C0.333984 6.6875 2.99023 4 6.33398 4C9.64648 4 12.334 6.6875 12.334 10C12.334 12.75 8.67773 17.5938 7.05273 19.625C6.67773 20.0938 5.95898 20.0938 5.58398 19.625ZM6.33398 12C7.42773 12 8.33398 11.125 8.33398 10C8.33398 8.90625 7.42773 8 6.33398 8C5.20898 8 4.33398 8.90625 4.33398 10C4.33398 11.125 5.20898 12 6.33398 12Z" fill="#FAFAFA"/>
</svg>
