<svg width="33" height="36" viewBox="0 0 33 36" fill="none" xmlns="http://www.w3.org/2000/svg">
<path fill-rule="evenodd" clip-rule="evenodd" d="M16.4986 9.2093C12.5269 9.2093 9.30724 12.3954 9.30724 16.3256C9.30724 20.2558 12.5269 23.4419 16.4986 23.4419C20.4702 23.4419 23.6899 20.2558 23.6899 16.3256C23.6899 12.3954 20.4702 9.2093 16.4986 9.2093ZM11.8453 16.3256C11.8453 13.7825 13.9287 11.7209 16.4986 11.7209C19.0685 11.7209 21.1518 13.7825 21.1518 16.3256C21.1518 18.8687 19.0685 20.9302 16.4986 20.9302C13.9287 20.9302 11.8453 18.8687 11.8453 16.3256Z" fill="#0C3F82"/>
<path fill-rule="evenodd" clip-rule="evenodd" d="M16.5003 0C10.0262 0 3.84955 3.78926 1.26421 9.7697C-1.14185 15.3354 0.160685 20.0718 2.87266 24.1276C5.09614 27.4528 8.33913 30.4205 11.2649 33.0979C11.8227 33.6084 12.3692 34.1085 12.8947 34.5983L12.8975 34.6009C13.8705 35.5024 15.1629 36 16.5003 36C17.8377 36 19.1302 35.5024 20.1031 34.6009C20.5998 34.1407 21.1147 33.6713 21.6399 33.1924C24.5975 30.4958 27.8861 27.4974 30.1329 24.1298C32.8416 20.0699 34.1395 15.3285 31.7365 9.7697C29.1511 3.78926 22.9745 0 16.5003 0ZM3.59776 10.7576C5.76162 5.7521 10.9852 2.51163 16.5003 2.51163C22.0155 2.51163 27.239 5.7521 29.4029 10.7576C31.3861 15.345 30.3854 19.1928 28.0147 22.746C25.9545 25.8339 22.9367 28.5893 19.9701 31.298C19.4325 31.7888 18.8966 32.2781 18.3684 32.7675C17.8737 33.2258 17.2045 33.4884 16.5003 33.4884C15.7967 33.4884 15.1279 33.2262 14.6333 32.7685C14.0708 32.2442 13.4994 31.7206 12.9264 31.1955C9.99766 28.5116 7.02759 25.7898 4.98935 22.7416C2.61643 19.1929 1.61203 15.351 3.59776 10.7576Z" fill="#0C3F82"/>
</svg>
