<svg width="20" height="20" viewBox="0 0 20 20" fill="none" xmlns="http://www.w3.org/2000/svg">
<path fill-rule="evenodd" clip-rule="evenodd" d="M10 0.833313C7.69881 0.833313 5.83333 2.69879 5.83333 4.99998V6.66665C3.99238 6.66665 2.5 8.15903 2.5 9.99998V15C2.5 16.8409 3.99238 18.3333 5.83333 18.3333H14.1667C16.0076 18.3333 17.5 16.8409 17.5 15V9.99998C17.5 8.15903 16.0076 6.66665 14.1667 6.66665V4.99998C14.1667 2.69879 12.3012 0.833313 10 0.833313ZM12.5 6.66665V4.99998C12.5 3.61927 11.3807 2.49998 10 2.49998C8.61929 2.49998 7.5 3.61927 7.5 4.99998V6.66665H12.5ZM4.16667 9.99998C4.16667 9.0795 4.91286 8.33331 5.83333 8.33331H14.1667C15.0871 8.33331 15.8333 9.0795 15.8333 9.99998V15C15.8333 15.9205 15.0871 16.6666 14.1667 16.6666H5.83333C4.91286 16.6666 4.16667 15.9205 4.16667 15V9.99998Z" fill="#2E353F"/>
</svg>
