<svg width="34" height="28" viewBox="0 0 34 28" fill="none" xmlns="http://www.w3.org/2000/svg">
<path fill-rule="evenodd" clip-rule="evenodd" d="M21.38 0.180147C18.4505 0.10654 15.5495 0.106536 12.62 0.180137L12.5327 0.182328C10.2455 0.239757 8.40503 0.285968 6.93005 0.542842C5.3858 0.811778 4.13072 1.3276 3.07043 2.39193C2.01457 3.4518 1.50146 4.68883 1.23764 6.20804C0.986434 7.6546 0.948175 9.45015 0.90078 11.6744L0.898902 11.7625C0.867032 13.257 0.867032 14.7428 0.898904 16.2374L0.900782 16.3255C0.948179 18.5497 0.98644 20.3453 1.23764 21.7918C1.50147 23.311 2.01458 24.5481 3.07043 25.608C4.13073 26.6723 5.3858 27.1881 6.93005 27.457C8.40501 27.7139 10.2455 27.7601 12.5327 27.8176L12.62 27.8197C15.5495 27.8933 18.4505 27.8933 21.38 27.8197L21.4674 27.8176C23.7546 27.7601 25.595 27.7139 27.07 27.457C28.6142 27.1881 29.8693 26.6723 30.9296 25.608C31.9854 24.5481 32.4985 23.311 32.7624 21.7918C33.0136 20.3453 33.0518 18.5497 33.0992 16.3255L33.1011 16.2374C33.133 14.7428 33.133 13.2571 33.1011 11.7625L33.0992 11.6745C33.0518 9.45018 33.0136 7.65463 32.7624 6.20807C32.4985 4.68886 31.9854 3.45182 30.9296 2.39195C29.8693 1.32762 28.6142 0.811802 27.07 0.542863C25.595 0.285986 23.7545 0.239772 21.4673 0.182338L21.38 0.180147ZM12.6765 2.42943C15.5684 2.35677 18.4316 2.35678 21.3235 2.42944C23.7185 2.48961 25.3921 2.53451 26.6839 2.7595C27.9252 2.97568 28.6992 3.3411 29.3356 3.97992C29.5965 4.24182 29.8108 4.52376 29.9874 4.84738L21.076 9.8966C19.1931 10.9635 18.0505 11.3749 17.0002 11.3749C15.9499 11.3749 14.8072 10.9635 12.9243 9.8966L4.01271 4.84724C4.18925 4.52367 4.40355 4.24177 4.66443 3.97989C5.30083 3.34107 6.07479 2.97565 7.31608 2.75948C8.60794 2.5345 10.2815 2.4896 12.6765 2.42943ZM3.38152 7.07568C3.22632 8.26341 3.19202 9.76464 3.14839 11.8105C3.1172 13.273 3.1172 14.7268 3.14839 16.1894C3.19815 18.5227 3.23578 20.1475 3.45447 21.4069C3.66385 22.6126 4.0236 23.3767 4.66444 24.02C5.30084 24.6588 6.07479 25.0242 7.31609 25.2404C8.60794 25.4654 10.2815 25.5103 12.6765 25.5705C15.5684 25.6431 18.4316 25.6431 21.3235 25.5705C23.7185 25.5103 25.3921 25.4654 26.6839 25.2404C27.9252 25.0242 28.6992 24.6588 29.3356 24.02C29.9764 23.3767 30.3362 22.6126 30.5455 21.4069C30.7642 20.1475 30.8019 18.5227 30.8516 16.1894C30.8828 14.7269 30.8828 13.2731 30.8516 11.8105C30.808 9.76474 30.7737 8.26355 30.6185 7.07584L22.1852 11.8542C20.2453 12.9534 18.6689 13.6249 17.0002 13.6249C15.3314 13.6249 13.755 12.9534 11.8151 11.8542L3.38152 7.07568Z" fill="#0C3F82"/>
</svg>
