<svg width="24" height="25" viewBox="0 0 24 25" fill="none" xmlns="http://www.w3.org/2000/svg">
<path fill-rule="evenodd" clip-rule="evenodd" d="M9 6.75012C7.48122 6.75012 6.25 7.98134 6.25 9.50012C6.25 11.0189 7.48122 12.2501 9 12.2501C10.5188 12.2501 11.75 11.0189 11.75 9.50012C11.75 7.98134 10.5188 6.75012 9 6.75012ZM7.75 9.50012C7.75 8.80977 8.30965 8.25012 9 8.25012C9.69036 8.25012 10.25 8.80977 10.25 9.50012C10.25 10.1905 9.69036 10.7501 9 10.7501C8.30965 10.7501 7.75 10.1905 7.75 9.50012Z" fill="#2E353F"/>
<path fill-rule="evenodd" clip-rule="evenodd" d="M9 12.7501C7.80424 12.7501 6.68461 12.9909 5.83616 13.4151C5.03258 13.8169 4.25 14.5107 4.25 15.5001L4.24987 15.5626C4.24834 16.073 4.24576 16.9323 5.06023 17.5219C5.43818 17.7955 5.9369 17.9699 6.55469 18.0811C7.1782 18.1933 7.97721 18.2501 9 18.2501C10.0228 18.2501 10.8218 18.1933 11.4453 18.0811C12.0631 17.9699 12.5618 17.7955 12.9398 17.5219C13.7542 16.9323 13.7517 16.073 13.7501 15.5626L13.75 15.5001C13.75 14.5107 12.9674 13.8169 12.1638 13.4151C11.3154 12.9909 10.1958 12.7501 9 12.7501ZM5.75 15.5001C5.75 15.385 5.86285 15.0788 6.50698 14.7567C7.10625 14.4571 7.98662 14.2501 9 14.2501C10.0134 14.2501 10.8937 14.4571 11.493 14.7567C12.1371 15.0788 12.25 15.385 12.25 15.5001C12.25 16.1046 12.2115 16.1973 12.0602 16.3068C11.9382 16.3951 11.6869 16.5135 11.1797 16.6048C10.6782 16.695 9.97721 16.7501 9 16.7501C8.02279 16.7501 7.3218 16.695 6.82031 16.6048C6.31311 16.5135 6.06182 16.3951 5.93977 16.3068C5.78849 16.1973 5.75 16.1046 5.75 15.5001Z" fill="#2E353F"/>
<path d="M19 13.2501C19.4142 13.2501 19.75 12.9143 19.75 12.5001C19.75 12.0859 19.4142 11.7501 19 11.7501H15C14.5858 11.7501 14.25 12.0859 14.25 12.5001C14.25 12.9143 14.5858 13.2501 15 13.2501H19Z" fill="#2E353F"/>
<path d="M19.75 9.50012C19.75 9.91434 19.4142 10.2501 19 10.2501H14C13.5858 10.2501 13.25 9.91434 13.25 9.50012C13.25 9.08591 13.5858 8.75012 14 8.75012H19C19.4142 8.75012 19.75 9.08591 19.75 9.50012Z" fill="#2E353F"/>
<path d="M19 16.2501C19.4142 16.2501 19.75 15.9143 19.75 15.5001C19.75 15.0859 19.4142 14.7501 19 14.7501H16C15.5858 14.7501 15.25 15.0859 15.25 15.5001C15.25 15.9143 15.5858 16.2501 16 16.2501H19Z" fill="#2E353F"/>
<path fill-rule="evenodd" clip-rule="evenodd" d="M9.94358 3.75012H14.0564C15.8942 3.75011 17.3498 3.75009 18.489 3.90326C19.6614 4.06089 20.6104 4.393 21.3588 5.14137C22.1071 5.88973 22.4392 6.83868 22.5969 8.0111C22.75 9.15031 22.75 10.6059 22.75 12.4437V12.5565C22.75 14.3943 22.75 15.8499 22.5969 16.9891C22.4392 18.1616 22.1071 19.1105 21.3588 19.8589C20.6104 20.6072 19.6614 20.9394 18.489 21.097C17.3498 21.2501 15.8942 21.2501 14.0565 21.2501H9.94359C8.10585 21.2501 6.65018 21.2501 5.51098 21.097C4.33856 20.9394 3.38961 20.6072 2.64124 19.8589C1.89288 19.1105 1.56076 18.1616 1.40314 16.9891C1.24997 15.8499 1.24998 14.3943 1.25 12.5566V12.4437C1.24998 10.606 1.24997 9.15031 1.40314 8.0111C1.56076 6.83868 1.89288 5.88973 2.64124 5.14137C3.38961 4.393 4.33856 4.06089 5.51098 3.90326C6.65019 3.75009 8.10583 3.75011 9.94358 3.75012ZM5.71085 5.38988C4.70476 5.52515 4.12511 5.77882 3.7019 6.20203C3.27869 6.62524 3.02503 7.20488 2.88976 8.21097C2.75159 9.23864 2.75 10.5933 2.75 12.5001C2.75 14.4069 2.75159 15.7616 2.88976 16.7893C3.02503 17.7954 3.27869 18.375 3.7019 18.7982C4.12511 19.2214 4.70476 19.4751 5.71085 19.6104C6.73851 19.7485 8.09318 19.7501 10 19.7501H14C15.9068 19.7501 17.2615 19.7485 18.2892 19.6104C19.2952 19.4751 19.8749 19.2214 20.2981 18.7982C20.7213 18.375 20.975 17.7954 21.1102 16.7893C21.2484 15.7616 21.25 14.4069 21.25 12.5001C21.25 10.5933 21.2484 9.23864 21.1102 8.21097C20.975 7.20488 20.7213 6.62524 20.2981 6.20203C19.8749 5.77882 19.2952 5.52515 18.2892 5.38988C17.2615 5.25172 15.9068 5.25012 14 5.25012H10C8.09318 5.25012 6.73851 5.25172 5.71085 5.38988Z" fill="#2E353F"/>
</svg>
