<svg width="130" height="130" viewBox="0 0 130 130" fill="none" xmlns="http://www.w3.org/2000/svg">
<path fill-rule="evenodd" clip-rule="evenodd" d="M85.1275 91.9412H46.0192C43.7767 91.9412 41.9567 90.1212 41.9567 87.8787C41.9567 85.6362 43.7767 83.8162 46.0192 83.8162H85.1275C87.37 83.8162 89.19 85.6362 89.19 87.8787C89.19 90.1212 87.37 91.9412 85.1275 91.9412" fill="#7A7B7A"/>
<path fill-rule="evenodd" clip-rule="evenodd" d="M85.1275 69.2642H46.0192C43.7767 69.2642 41.9567 67.4442 41.9567 65.2017C41.9567 62.9592 43.7767 61.1392 46.0192 61.1392H85.1275C87.37 61.1392 89.19 62.9592 89.19 65.2017C89.19 67.4442 87.37 69.2642 85.1275 69.2642" fill="#7A7B7A"/>
<path fill-rule="evenodd" clip-rule="evenodd" d="M60.9401 46.64H46.0172C43.7747 46.64 41.9547 44.82 41.9547 42.5775C41.9547 40.335 43.7747 38.515 46.0172 38.515H60.9401C63.1826 38.515 65.0026 40.335 65.0026 42.5775C65.0026 44.82 63.1826 46.64 60.9401 46.64" fill="#7A7B7A"/>
<mask id="mask0_9985_24310" style="mask-type:luminance" maskUnits="userSpaceOnUse" x="16" y="10" width="99" height="109">
<path fill-rule="evenodd" clip-rule="evenodd" d="M16.25 10.8347H114.642V118.679H16.25V10.8347Z" fill="white"/>
</mask>
<g mask="url(#mask0_9985_24310)">
<path fill-rule="evenodd" clip-rule="evenodd" d="M86.1724 18.9583L44.5237 18.98C31.9137 19.0558 24.3737 26.8558 24.3737 39.8504V89.6621C24.3737 102.743 31.9841 110.554 44.7187 110.554L86.3674 110.538C98.9774 110.462 106.517 102.651 106.517 89.6621V39.8504C106.517 26.7692 98.9124 18.9583 86.1724 18.9583ZM44.7241 118.679C27.6941 118.679 16.2487 107.017 16.2487 89.6621V39.8505C16.2487 22.3384 27.3366 10.958 44.4966 10.855L86.167 10.8334H86.1724C103.202 10.8334 114.642 22.4955 114.642 39.8505V89.6621C114.642 107.169 103.554 118.555 86.3945 118.663L44.7241 118.679Z" fill="#7A7B7A"/>
</g>
</svg>
