<svg width="273" height="170" viewBox="0 0 273 170" fill="none" xmlns="http://www.w3.org/2000/svg">
<g clip-path="url(#clip0_4679_25755)">
<path d="M123.191 4.89997L123.53 4.80916L123.624 5.16219C122.992 5.31658 122.37 5.50862 121.761 5.73729L121.628 5.39435C122.131 5.21922 122.659 5.04249 123.191 4.89997ZM119.802 6.2218L119.969 6.54522C119.394 6.84791 118.842 7.19304 118.319 7.57774L118.103 7.2823C118.643 6.8902 119.212 6.53886 119.804 6.2312L119.802 6.2218ZM116.589 8.59623L116.845 8.85552C116.388 9.31637 115.97 9.81318 115.593 10.3411L115.295 10.1334C115.682 9.58421 116.114 9.06845 116.587 8.59152L116.589 8.59623ZM114.265 11.8422L114.588 12.0129C114.29 12.5904 114.034 13.1884 113.822 13.8025L113.477 13.683C113.693 13.048 113.956 12.4296 114.262 11.8328L114.265 11.8422ZM112.966 15.616L113.326 15.6808C113.21 16.3196 113.148 16.9673 113.143 17.6166L112.779 17.6132C112.783 16.9418 112.844 16.2719 112.964 15.6113L112.966 15.616ZM112.948 19.6164L113.308 19.55C113.376 19.8042 113.413 20.0719 113.48 20.3214C113.575 20.6702 113.689 21.0136 113.821 21.3499C114.194 21.2764 114.571 21.2243 114.95 21.1938L114.982 21.5585C114.379 21.6088 113.782 21.7114 113.197 21.8652L113.075 21.898L112.98 21.5449L113.107 21.5109L113.46 21.4163C113.331 21.0857 113.221 20.7481 113.129 20.4053C113.056 20.1524 112.998 19.8803 112.946 19.6117L112.948 19.6164ZM111.109 22.2987L111.281 22.6208C110.714 22.9264 110.185 23.2984 109.706 23.7289L109.461 23.4564C109.962 23.0052 110.515 22.615 111.107 22.2939L111.109 22.2987ZM116.959 21.2002C117.627 21.2566 118.289 21.366 118.939 21.5274L118.846 21.8801C118.217 21.7242 117.577 21.6192 116.931 21.5659L116.959 21.2002ZM114.76 23.1214C115.124 23.6546 115.546 24.1455 116.02 24.5849L115.773 24.8526C115.278 24.3969 114.836 23.8855 114.457 23.3286L114.76 23.1214ZM108.134 24.9776L108.431 25.1854C108.062 25.7167 107.746 26.283 107.487 26.8762L107.155 26.7282C107.42 26.1087 107.746 25.5175 108.13 24.9635L108.134 24.9776ZM120.824 22.1825L120.949 22.2501C121.524 22.5346 122.031 22.9412 122.433 23.4415L122.139 23.6616C121.77 23.2037 121.306 22.8322 120.778 22.5734L120.661 22.5139L120.824 22.1825ZM106.486 28.6023L106.837 28.7052C106.654 29.3395 106.498 29.9816 106.377 30.6042L106.015 30.5346C106.138 29.9014 106.296 29.2486 106.486 28.6023ZM117.576 25.7065C118.118 26.0077 118.69 26.2501 119.284 26.4296L119.367 26.4577L119.264 26.8081L119.176 26.7813C118.563 26.5907 117.971 26.3347 117.413 26.0178L117.576 25.7065ZM122.494 25.3625L122.839 25.482C122.713 25.8192 122.508 26.1209 122.24 26.3613C121.972 26.6017 121.65 26.7737 121.302 26.8625L121.207 26.5095C121.497 26.4336 121.765 26.2901 121.988 26.0907C122.212 25.8914 122.385 25.6418 122.494 25.3625ZM105.742 32.5097L106.105 32.5438C106.045 33.193 106.019 33.8448 106.028 34.4967L105.666 34.5028C105.651 33.838 105.675 33.1729 105.738 32.511L105.742 32.5097ZM105.801 36.4946L106.167 36.4471C106.25 37.094 106.37 37.7357 106.525 38.369L106.172 38.4636C106.012 37.8147 105.888 37.1573 105.801 36.4946ZM107.096 40.2342C107.322 40.8509 107.58 41.4553 107.869 42.0451L107.539 42.209C107.247 41.6115 106.986 40.9997 106.755 40.3758L107.096 40.2342ZM108.817 43.7384C109.155 44.2836 109.527 44.8246 109.93 45.3521L109.636 45.5722C109.231 45.04 108.841 44.4886 108.506 43.9328L108.817 43.7384ZM111.169 46.8668C111.599 47.3418 112.063 47.8127 112.553 48.2667L112.301 48.531C111.814 48.0711 111.343 47.592 110.91 47.1075L111.169 46.8668ZM114.015 49.5648C114.514 49.976 115.04 50.375 115.576 50.7561L115.363 51.0552C114.821 50.6707 114.288 50.2635 113.784 49.8488L114.015 49.5648ZM117.21 51.8468C117.764 52.2027 118.334 52.5194 118.911 52.8289L118.74 53.1521C118.151 52.8357 117.558 52.5053 117.02 52.155L117.21 51.8468ZM120.67 53.7094C121.248 53.9834 121.867 54.2413 122.472 54.4829L122.34 54.8209C121.726 54.5818 121.111 54.3179 120.516 54.0383L120.67 53.7094Z" fill="#263238"/>
<path d="M125.546 4.44913C125.873 4.40363 126.203 4.376 126.533 4.36634L126.54 4.73266C126.54 4.73266 126.179 4.73874 125.592 4.81007L125.546 4.44913Z" fill="#263238"/>
<path d="M130.49 3.87932C130.206 1.93723 126.078 1.91329 126.447 4.45797C126.816 7.00265 130.777 5.83553 130.49 3.87932Z" fill="#263238"/>
<path d="M124.611 2.11216C124.778 1.30555 126.018 0.867425 127.571 1.42996C128.642 1.87029 129.618 2.51104 130.448 3.31777C129.373 3.72959 128.228 3.9318 127.076 3.91351C125.388 3.80598 124.428 2.93324 124.611 2.11216Z" fill="#EBEBEB"/>
<path d="M130.438 3.32056C129.604 3.18563 128.778 3.01869 127.952 2.85645C127.127 2.69421 126.304 2.50591 125.488 2.30096C126.321 2.43589 127.148 2.60283 127.973 2.76507C128.798 2.92731 129.621 3.11561 130.438 3.32056Z" fill="#263238"/>
<path d="M126.332 1.6675C126.553 1.81823 126.765 1.98201 126.967 2.15799C127.167 2.333 127.355 2.52011 127.531 2.71826C127.31 2.56753 127.097 2.40375 126.895 2.22777C126.695 2.05366 126.507 1.86649 126.332 1.6675Z" fill="#263238"/>
<path d="M128.352 2.89496C128.111 3.03168 127.863 3.15541 127.609 3.26562C127.352 3.37486 127.09 3.47043 126.823 3.55191C127.31 3.28242 127.822 3.06233 128.352 2.89496Z" fill="#263238"/>
<path d="M128.68 2.47633C128.896 2.63444 129.075 2.83805 129.203 3.07275C128.987 2.91465 128.809 2.71103 128.68 2.47633Z" fill="#263238"/>
<path d="M125.316 7.20594C125.708 7.93341 127.017 7.9965 128.343 7.01554C129.244 6.2858 129.997 5.39043 130.562 4.37768C129.406 4.29481 128.245 4.43473 127.141 4.78985C125.59 5.34668 124.914 6.4562 125.316 7.20594Z" fill="#EBEBEB"/>
<path d="M130.558 4.37832C129.798 4.74336 129.053 5.14479 128.311 5.54025C127.57 5.93571 126.832 6.34529 126.119 6.77337C126.875 6.40959 127.62 6.00817 128.361 5.61271C129.103 5.21724 129.831 4.81018 130.558 4.37832Z" fill="#263238"/>
<path d="M127.098 7.14234C127.264 6.94177 127.419 6.73198 127.561 6.51398C127.7 6.28812 127.828 6.05516 127.944 5.81604C127.775 6.01439 127.621 6.22436 127.482 6.44439C127.34 6.66939 127.212 6.90243 127.098 7.14234Z" fill="#263238"/>
<path d="M128.695 5.3833C128.152 5.2629 127.597 5.20012 127.041 5.196C127.584 5.31878 128.139 5.38159 128.695 5.3833Z" fill="#263238"/>
<path d="M129.104 5.69526C129.186 5.59104 129.256 5.47761 129.311 5.35725C129.366 5.23458 129.407 5.10676 129.436 4.97571C129.354 5.08158 129.285 5.1966 129.23 5.31843C129.171 5.4374 129.128 5.56429 129.104 5.69526Z" fill="#263238"/>
<path d="M130.482 3.87796C130.343 3.89839 130.201 3.87719 130.074 3.81702C129.947 3.75686 129.841 3.66042 129.769 3.53989C129.696 3.41936 129.661 3.28014 129.668 3.13977C129.675 2.99939 129.723 2.86416 129.807 2.75115C129.89 2.63813 130.005 2.5524 130.137 2.50474C130.27 2.45709 130.413 2.44964 130.549 2.48337C130.686 2.51709 130.809 2.59046 130.904 2.69423C130.999 2.79799 131.061 2.92751 131.082 3.06642C131.109 3.25347 131.062 3.44374 130.949 3.59575C130.837 3.74776 130.669 3.8492 130.482 3.87796Z" fill="#455A64"/>
<path d="M130.69 5.29199C130.597 5.30559 130.503 5.30077 130.412 5.27783C130.321 5.2549 130.236 5.21427 130.16 5.15829C130.085 5.10231 130.022 5.03208 129.974 4.95158C129.926 4.87109 129.894 4.78193 129.88 4.68917C129.867 4.59642 129.872 4.50189 129.894 4.41099C129.917 4.3201 129.958 4.23461 130.014 4.15941C130.07 4.08422 130.14 4.02078 130.221 3.97273C130.301 3.92468 130.39 3.89296 130.483 3.87937C130.67 3.85192 130.861 3.90001 131.013 4.01306C131.165 4.12611 131.266 4.29486 131.293 4.48219C131.32 4.66951 131.272 4.86006 131.159 5.01193C131.046 5.1638 130.877 5.26455 130.69 5.29199Z" fill="#455A64"/>
<path d="M138.974 85.3724C143.787 83.4435 146.125 77.978 144.196 73.165C142.267 68.352 136.801 66.014 131.988 67.943C127.175 69.8719 124.837 75.3374 126.766 80.1504C128.695 84.9634 134.161 87.3014 138.974 85.3724Z" fill="#00DB81"/>
<path d="M101.516 64.4359L169.346 89.1706L166.633 82.0902C164.96 77.7183 164.92 72.8902 166.518 68.4908L173.224 50.0879C174.415 46.8361 174.952 43.3812 174.804 39.9215C174.657 36.4617 173.827 33.0651 172.364 29.9266C170.9 26.7882 168.832 23.9695 166.276 21.6324C163.721 19.2954 160.729 17.4859 157.473 16.3077C150.922 13.9299 143.696 14.2487 137.38 17.1941C131.064 20.1396 126.175 25.471 123.786 32.0177L117.34 49.6928C115.843 53.7897 113.018 57.2671 109.313 59.57L101.516 64.4359Z" fill="#00DB81"/>
<path d="M155.321 9.7481L152.273 18.1097C151.691 19.7066 152.513 21.473 154.11 22.0552L154.98 22.3721C156.576 22.9543 158.343 22.1317 158.925 20.5348L161.973 12.1732C162.555 10.5764 161.733 8.80992 160.136 8.22776L159.267 7.91082C157.67 7.32865 155.903 8.15123 155.321 9.7481Z" fill="#00DB81"/>
<path d="M169.303 89.285C169.251 89.4202 154.123 84.0345 135.523 77.2452C116.922 70.4559 101.878 64.8415 101.93 64.6959C101.982 64.5503 117.11 69.8944 135.71 76.7357C154.31 83.577 169.355 89.1811 169.303 89.285Z" fill="#738096"/>
<g opacity="0.3">
<path d="M126.562 73.6895C128.331 76.4687 130.927 78.6218 133.986 79.8445C137.253 81.1232 140.864 81.2225 144.196 80.1253L126.562 73.6895Z" fill="black"/>
</g>
<g opacity="0.2">
<path d="M172.025 45.4825C172.333 44.7 172.451 43.8553 172.368 43.0184C172.315 42.6017 172.121 42.2157 171.819 41.9245C171.516 41.6332 171.123 41.4542 170.705 41.4172C170.255 41.3516 169.797 41.4429 169.406 41.6758C169.016 41.9088 168.718 42.2691 168.563 42.6961C167.523 45.5969 165.122 52.0535 163.562 55.7652C162.283 58.8844 160.609 62.0659 157.708 63.7398C155.383 64.9336 152.713 65.2792 150.16 64.7171C147.631 64.1434 145.16 63.3395 142.778 62.3154C139.742 61.0678 136.565 60.1983 133.317 59.7265C132.454 59.5645 131.564 59.6363 130.738 59.9345C130.336 60.0964 130 60.3904 129.787 60.7683C129.573 61.1462 129.494 61.5854 129.563 62.0139C129.782 62.7833 130.603 63.2199 131.31 63.5527C138.796 67.0565 146.396 70.4563 154.433 72.359C156.08 72.8852 157.85 72.8852 159.497 72.359C161.295 71.6104 162.377 69.7909 163.271 68.065C166.859 60.8146 169.789 53.2568 172.025 45.4825Z" fill="black"/>
</g>
<g opacity="0.2">
<path d="M152.886 21.7044C152.813 20.0201 151.763 18.1798 148.654 17.8887C143.879 17.4291 139.101 18.7429 135.232 21.5797C131.041 24.4404 127.984 28.678 126.592 33.5571C126.113 35.2415 125.885 37.1857 126.852 38.6517C128.297 40.8767 131.801 40.7311 133.942 39.2028C136.084 37.6744 137.27 35.1167 138.538 32.7774C139.806 30.438 141.439 28.0467 143.944 27.1733C145.962 26.4663 148.301 26.8406 150.183 25.8113C150.953 25.4233 151.609 24.8398 152.083 24.1191C152.558 23.3983 152.834 22.5657 152.886 21.7044Z" fill="white"/>
</g>
<path d="M170.274 25.9981C170.19 26.0605 169.234 24.6569 167.331 22.775C166.207 21.685 164.997 20.6871 163.713 19.7911C162.115 18.7171 160.42 17.7947 158.65 17.0358C156.868 16.3038 155.024 15.7366 153.139 15.3411C151.597 15.0373 150.032 14.86 148.461 14.8109C145.768 14.7485 144.115 15.05 144.094 14.946C144.467 14.8135 144.854 14.7263 145.248 14.6861C145.705 14.6001 146.167 14.5445 146.631 14.5197C147.228 14.4502 147.828 14.4189 148.429 14.4262C150.03 14.411 151.628 14.5503 153.202 14.842C157.074 15.5594 160.744 17.1058 163.963 19.3752C165.27 20.299 166.489 21.3433 167.602 22.4943C168.09 22.9726 168.465 23.4612 168.818 23.8771C169.124 24.2241 169.406 24.5924 169.66 24.9792C169.91 25.2894 170.116 25.6322 170.274 25.9981Z" fill="#738096"/>
<path d="M120.5 43.621C120.577 43.1496 120.699 42.6865 120.864 42.2381C121.124 41.3648 121.529 40.0963 122.07 38.5472C123.399 34.4522 125.236 30.5401 127.539 26.9024C129.873 23.2525 133.092 20.2518 136.896 18.1793C138.056 17.5751 139.28 17.1042 140.546 16.7757C141.003 16.6419 141.474 16.5582 141.949 16.5261C140.271 17.071 138.643 17.7598 137.083 18.5847C133.405 20.7117 130.287 23.6841 127.986 27.2559C125.722 30.8547 123.857 34.6897 122.423 38.6927C121.883 40.1587 121.384 41.3752 121.061 42.3317C120.922 42.7807 120.734 43.213 120.5 43.621Z" fill="white"/>
<path d="M111.456 59.289C111.363 59.1539 113.317 57.7918 115.158 55.5565C116.998 53.3211 118.007 51.1689 118.152 51.2417C117.684 52.984 116.799 54.5862 115.574 55.91C114.491 57.3491 113.079 58.5078 111.456 59.289Z" fill="white"/>
<path d="M133.91 84.0867C133.91 84.1595 133.297 84.1803 132.361 83.8892C131.132 83.4976 130.03 82.7837 129.171 81.8219C128.311 80.8601 127.726 79.6854 127.474 78.4203C127.332 77.9067 127.332 77.3639 127.474 76.8503C127.641 77.3359 127.773 77.8328 127.869 78.3371C128.199 79.498 128.787 80.569 129.59 81.4695C130.393 82.37 131.391 83.0765 132.506 83.5357C132.987 83.6858 133.456 83.8699 133.91 84.0867Z" fill="white"/>
<path d="M158.385 8.56226C158.448 8.70782 157.345 9.17569 156.451 10.3506C155.994 11.1012 155.604 11.8911 155.287 12.7107C155.192 12.2377 155.209 11.7494 155.335 11.2839C155.462 10.8185 155.694 10.3887 156.015 10.0282C156.263 9.61175 156.608 9.26116 157.021 9.00602C157.434 8.75088 157.901 8.59868 158.385 8.56226Z" fill="white"/>
<path d="M15.1755 131.944C14.0075 131.944 12.9355 131.656 11.9595 131.08C10.9835 130.504 10.2075 129.72 9.6315 128.728C9.0555 127.752 8.7675 126.68 8.7675 125.512V121.432H11.6475V125.512C11.6475 126.152 11.8075 126.744 12.1275 127.288C12.4475 127.832 12.8715 128.264 13.3995 128.584C13.9435 128.904 14.5355 129.064 15.1755 129.064H19.1595C19.4155 129.064 19.6315 128.976 19.8075 128.8C19.9835 128.624 20.0715 128.416 20.0715 128.176V115.816H22.9515V129.688C22.9515 130.312 22.7355 130.84 22.3035 131.272C21.8715 131.72 21.3435 131.944 20.7195 131.944H15.1755ZM15.5355 115.816C15.9995 115.816 16.3995 115.984 16.7355 116.32C17.0715 116.64 17.2395 117.032 17.2395 117.496C17.2395 117.96 17.0715 118.36 16.7355 118.696C16.3995 119.032 15.9995 119.2 15.5355 119.2C15.0715 119.2 14.6715 119.032 14.3355 118.696C13.9995 118.36 13.8315 117.96 13.8315 117.496C13.8315 117.032 13.9995 116.64 14.3355 116.32C14.6715 115.984 15.0715 115.816 15.5355 115.816ZM38.2185 110.536V123.352C38.2185 124.056 38.0425 124.712 37.6905 125.32C37.3385 125.928 36.8585 126.408 36.2505 126.76C35.6585 127.112 35.0105 127.288 34.3065 127.288H25.5945V124.384H29.2185L29.1945 113.8H32.0985V124.384H34.2825C34.5705 124.384 34.8105 124.288 35.0025 124.096C35.2105 123.888 35.3145 123.64 35.3145 123.352V110.536H38.2185ZM28.2105 109.48C28.3225 109.4 28.4345 109.36 28.5465 109.36C28.7225 109.36 28.8585 109.424 28.9545 109.552C29.4345 110.048 30.2105 110.296 31.2825 110.296C31.6985 110.296 32.3705 110.12 33.2985 109.768L33.8265 111.184C33.4745 111.36 33.0425 111.52 32.5305 111.664C32.0185 111.808 31.6025 111.88 31.2825 111.88C30.2585 111.88 29.3705 111.552 28.6185 110.896C28.5545 110.864 28.5065 110.848 28.4745 110.848C28.4265 110.848 28.3625 110.872 28.2825 110.92L27.3225 111.544L26.5065 110.608L28.2105 109.48ZM41.79 110.488H44.694V127.288H41.79V110.488ZM72.9398 124.384C73.3558 124.384 73.7078 124.52 73.9958 124.792C74.2838 125.064 74.4278 125.4 74.4278 125.8C74.4278 126.2 74.2838 126.552 73.9958 126.856C73.7078 127.144 73.3558 127.288 72.9398 127.288C72.4278 127.288 71.8278 127.224 71.1398 127.096C71.3958 127.448 71.5238 127.864 71.5238 128.344C71.5238 129.208 71.3078 130 70.8758 130.72C70.4438 131.456 69.8598 132.032 69.1238 132.448C68.4038 132.88 67.6198 133.096 66.7718 133.096H59.4518C58.2678 133.096 57.1718 132.8 56.1638 132.208C55.1558 131.616 54.3558 130.816 53.7638 129.808C53.1718 128.8 52.8758 127.696 52.8758 126.496V122.128H55.7798V126.496C55.7798 127.168 55.9398 127.784 56.2598 128.344C56.5958 128.92 57.0438 129.368 57.6038 129.688C58.1638 130.024 58.7798 130.192 59.4518 130.192H66.7718C67.2678 130.192 67.6998 130.008 68.0678 129.64C68.4358 129.272 68.6198 128.84 68.6198 128.344C68.6198 127.896 68.4838 127.496 68.2118 127.144C67.9558 126.776 67.6118 126.528 67.1798 126.4L63.3878 124.864L64.6598 122.2L66.7718 123.112C67.2998 123.336 67.6118 123.464 67.7078 123.496C69.3718 124.088 71.1158 124.384 72.9398 124.384ZM75.3855 112.144C75.8495 112.144 76.2495 112.312 76.5855 112.648C76.9215 112.968 77.0895 113.36 77.0895 113.824C77.0895 114.288 76.9215 114.688 76.5855 115.024C76.2495 115.36 75.8495 115.528 75.3855 115.528C74.9215 115.528 74.5215 115.36 74.1855 115.024C73.8495 114.688 73.6815 114.288 73.6815 113.824C73.6815 113.36 73.8495 112.968 74.1855 112.648C74.5215 112.312 74.9215 112.144 75.3855 112.144ZM79.8015 112.144C80.2655 112.144 80.6655 112.312 81.0015 112.648C81.3375 112.968 81.5055 113.36 81.5055 113.824C81.5055 114.288 81.3375 114.688 81.0015 115.024C80.6655 115.36 80.2655 115.528 79.8015 115.528C79.3375 115.528 78.9375 115.36 78.6015 115.024C78.2655 114.688 78.0975 114.288 78.0975 113.824C78.0975 113.36 78.2655 112.968 78.6015 112.648C78.9375 112.312 79.3375 112.144 79.8015 112.144ZM82.1535 124.384C82.5535 124.384 82.8895 124.528 83.1615 124.816C83.4495 125.088 83.5935 125.424 83.5935 125.824C83.5935 126.224 83.4495 126.568 83.1615 126.856C82.8735 127.144 82.5295 127.288 82.1295 127.288H80.9775C80.3855 127.288 79.8175 127.176 79.2735 126.952C78.7455 126.712 78.2815 126.392 77.8815 125.992C77.4975 126.392 77.0495 126.712 76.5375 126.952C76.0255 127.176 75.4895 127.288 74.9295 127.288H72.9615C72.5135 127.288 72.1455 127.152 71.8575 126.88C71.5695 126.608 71.4255 126.264 71.4255 125.848C71.4255 125.432 71.5695 125.088 71.8575 124.816C72.1455 124.528 72.5135 124.384 72.9615 124.384H74.5935C75.0575 124.384 75.4495 124.224 75.7695 123.904C76.0895 123.568 76.2495 123.176 76.2495 122.728V117.976H79.1535V122.752C79.2175 123.216 79.4255 123.608 79.7775 123.928C80.1295 124.232 80.5295 124.384 80.9775 124.384H82.1535ZM82.0776 127.288C81.6776 127.288 81.3336 127.144 81.0456 126.856C80.7416 126.568 80.5896 126.224 80.5896 125.824C80.5896 125.424 80.7416 125.088 81.0456 124.816C81.3336 124.528 81.6776 124.384 82.0776 124.384H92.3736C92.1976 124.272 92.0456 124.12 91.9176 123.928C91.8056 123.72 91.7496 123.496 91.7496 123.256V122.728C91.7496 121.192 91.2936 120.08 90.3816 119.392C89.6136 118.8 88.6296 118.504 87.4296 118.504C86.4056 118.504 85.2936 118.712 84.0936 119.128L82.9176 116.512C84.4696 115.92 85.9576 115.624 87.3816 115.624C89.2216 115.624 90.7976 116.12 92.1096 117.112C92.8136 117.624 93.3976 118.328 93.8616 119.224C94.3416 120.12 94.5816 121.232 94.5816 122.56V123.232C94.5816 123.584 94.6696 123.864 94.8456 124.072C95.0376 124.28 95.2936 124.384 95.6136 124.384H96.0456V127.288H82.0776ZM110.226 112.168C110.706 112.168 111.114 112.336 111.45 112.672C111.786 112.992 111.954 113.384 111.954 113.848C111.954 114.328 111.786 114.736 111.45 115.072C111.114 115.392 110.706 115.552 110.226 115.552C109.762 115.552 109.362 115.392 109.026 115.072C108.706 114.736 108.546 114.328 108.546 113.848C108.546 113.384 108.714 112.992 109.05 112.672C109.386 112.336 109.778 112.168 110.226 112.168ZM114.666 112.168C115.13 112.168 115.53 112.336 115.866 112.672C116.202 112.992 116.37 113.384 116.37 113.848C116.37 114.328 116.202 114.736 115.866 115.072C115.53 115.392 115.13 115.552 114.666 115.552C114.202 115.552 113.802 115.392 113.466 115.072C113.13 114.736 112.962 114.328 112.962 113.848C112.962 113.384 113.13 112.992 113.466 112.672C113.802 112.336 114.202 112.168 114.666 112.168ZM121.578 124.6C121.578 125.336 121.314 125.968 120.786 126.496C120.258 127.024 119.618 127.288 118.866 127.288H108.258C107.33 127.288 106.474 127.064 105.69 126.616C104.906 126.152 104.282 125.536 103.818 124.768C103.37 123.984 103.146 123.136 103.146 122.224V118.168H106.074V122.224C106.074 122.832 106.282 123.344 106.698 123.76C107.13 124.176 107.65 124.384 108.258 124.384H118.098C118.258 124.384 118.386 124.336 118.482 124.24C118.594 124.128 118.65 123.992 118.65 123.832V115.696H121.578V124.6ZM125.017 110.488H127.921V127.288H125.017V110.488ZM136.513 126.712C136.513 128.6 136.001 130.08 134.977 131.152C133.969 132.24 132.553 132.84 130.729 132.952L129.673 130.216C131.081 130.088 132.089 129.768 132.697 129.256C133.321 128.76 133.633 127.912 133.633 126.712V115.696H136.513V126.712ZM143.882 127.288C143.178 127.288 142.522 127.112 141.914 126.76C141.306 126.408 140.826 125.928 140.474 125.32C140.122 124.712 139.946 124.056 139.946 123.352V110.512H142.85V123.352C142.85 123.64 142.946 123.888 143.138 124.096C143.346 124.288 143.594 124.384 143.882 124.384H144.962V127.288H143.882ZM148.015 124.384L145.735 119.272L146.479 117.112C148.319 116.056 150.119 115.528 151.879 115.528C152.439 115.528 152.911 115.568 153.295 115.648C154.063 115.792 154.751 116.104 155.359 116.584C155.983 117.048 156.463 117.616 156.799 118.288C157.151 118.96 157.327 119.672 157.327 120.424C157.327 121.112 157.175 121.824 156.871 122.56C156.583 123.296 156.151 123.904 155.575 124.384H158.695V127.288H144.583V124.384H148.015ZM151.135 124.216C151.919 124.056 152.551 123.752 153.031 123.304C153.511 122.84 153.847 122.368 154.039 121.888C154.247 121.392 154.367 120.96 154.399 120.592C154.463 120.096 154.335 119.648 154.015 119.248C153.695 118.848 153.279 118.6 152.767 118.504C152.511 118.456 152.239 118.432 151.951 118.432C151.103 118.432 150.135 118.648 149.047 119.08L148.927 119.536L151.135 124.216ZM169.282 108.016C169.746 108.016 170.146 108.184 170.482 108.52C170.818 108.84 170.986 109.232 170.986 109.696C170.986 110.16 170.818 110.56 170.482 110.896C170.146 111.232 169.746 111.4 169.282 111.4C168.818 111.4 168.418 111.232 168.082 110.896C167.746 110.56 167.578 110.16 167.578 109.696C167.578 109.232 167.746 108.84 168.082 108.52C168.418 108.184 168.818 108.016 169.282 108.016ZM167.05 112.168C167.514 112.168 167.914 112.336 168.25 112.672C168.586 112.992 168.754 113.384 168.754 113.848C168.754 114.328 168.586 114.736 168.25 115.072C167.914 115.392 167.514 115.552 167.05 115.552C166.586 115.552 166.186 115.392 165.85 115.072C165.514 114.736 165.346 114.328 165.346 113.848C165.346 113.384 165.514 112.992 165.85 112.672C166.186 112.336 166.586 112.168 167.05 112.168ZM171.61 112.168C172.074 112.168 172.474 112.336 172.81 112.672C173.146 112.992 173.314 113.384 173.314 113.848C173.314 114.328 173.146 114.736 172.81 115.072C172.474 115.392 172.074 115.552 171.61 115.552C171.146 115.552 170.746 115.392 170.41 115.072C170.074 114.736 169.906 114.328 169.906 113.848C169.906 113.384 170.074 112.992 170.41 112.672C170.746 112.336 171.146 112.168 171.61 112.168ZM178.642 122.296C178.642 123.24 178.41 124.096 177.946 124.864C177.482 125.616 176.858 126.208 176.074 126.64C175.306 127.072 174.458 127.288 173.53 127.288C171.978 127.288 170.77 126.744 169.906 125.656C169.41 126.216 168.842 126.632 168.202 126.904C167.578 127.16 166.858 127.288 166.042 127.288C165.434 127.288 164.858 127.176 164.314 126.952C163.77 126.712 163.29 126.384 162.874 125.968C162.554 126.368 162.154 126.688 161.674 126.928C161.194 127.168 160.682 127.288 160.138 127.288H158.554C158.154 127.288 157.81 127.152 157.522 126.88C157.234 126.592 157.09 126.248 157.09 125.848C157.09 125.464 157.234 125.128 157.522 124.84C157.81 124.536 158.154 124.384 158.554 124.384H160.138C160.41 124.384 160.642 124.288 160.834 124.096C161.042 123.904 161.146 123.664 161.146 123.376V118.024H164.026V122.392C164.026 122.984 164.226 123.472 164.626 123.856C165.042 124.224 165.57 124.408 166.21 124.408C166.898 124.408 167.442 124.208 167.842 123.808C168.258 123.408 168.466 122.904 168.466 122.296V118.024H171.37V122.392C171.37 122.984 171.562 123.464 171.946 123.832C172.346 124.2 172.874 124.384 173.53 124.384C174.218 124.384 174.762 124.192 175.162 123.808C175.562 123.408 175.762 122.904 175.762 122.296V115.696H178.642V122.296ZM181.823 110.536H184.727V127.24H181.823V110.536ZM180.815 133.504V132.016H181.631C181.455 131.68 181.375 131.344 181.391 131.008C181.471 130.416 181.727 129.912 182.159 129.496C182.591 129.096 183.111 128.896 183.719 128.896C184.247 128.896 184.703 129.032 185.087 129.304C185.487 129.592 185.775 129.968 185.951 130.432L184.799 131.272C184.671 130.968 184.527 130.744 184.367 130.6C184.207 130.456 183.991 130.384 183.719 130.384C183.495 130.384 183.303 130.456 183.143 130.6C182.983 130.76 182.903 130.944 182.903 131.152C182.903 131.36 182.967 131.552 183.095 131.728C183.239 131.92 183.447 132.016 183.719 132.016H185.927V133.504H180.815ZM206.672 124.384C207.088 124.384 207.432 124.528 207.704 124.816C207.976 125.104 208.112 125.448 208.112 125.848C208.112 126.248 207.976 126.592 207.704 126.88C207.432 127.152 207.088 127.288 206.672 127.288H206.048C205.344 127.288 204.672 127.168 204.032 126.928C203.392 126.688 202.816 126.344 202.304 125.896C201.872 126.328 201.368 126.672 200.792 126.928C200.232 127.168 199.656 127.288 199.064 127.288H192.512V124.384H199.064C199.336 124.384 199.56 124.336 199.736 124.24C199.928 124.128 200.072 124 200.168 123.856C200.44 123.584 200.552 123.248 200.504 122.848L198.56 115.648L201.32 114.904L203.36 122.272C203.52 122.896 203.848 123.408 204.344 123.808C204.84 124.192 205.408 124.384 206.048 124.384H206.672ZM206.601 127.288C206.201 127.288 205.857 127.144 205.569 126.856C205.265 126.568 205.113 126.224 205.113 125.824C205.113 125.424 205.265 125.088 205.569 124.816C205.857 124.528 206.201 124.384 206.601 124.384H216.897C216.721 124.272 216.569 124.12 216.441 123.928C216.329 123.72 216.273 123.496 216.273 123.256V122.752C216.273 121.216 215.817 120.104 214.905 119.416C214.137 118.824 213.161 118.528 211.977 118.528C210.969 118.528 209.849 118.744 208.617 119.176L207.441 116.536C208.945 115.96 210.425 115.672 211.881 115.672C213.769 115.672 215.353 116.16 216.633 117.136C217.337 117.648 217.921 118.36 218.385 119.272C218.865 120.168 219.105 121.272 219.105 122.584V123.232C219.105 123.584 219.193 123.864 219.369 124.072C219.561 124.28 219.817 124.384 220.137 124.384H220.569V127.288H206.601ZM213.417 129.208C213.881 129.208 214.281 129.368 214.617 129.688C214.953 130.024 215.121 130.424 215.121 130.888C215.121 131.352 214.953 131.752 214.617 132.088C214.281 132.424 213.881 132.592 213.417 132.592C212.953 132.592 212.553 132.424 212.217 132.088C211.881 131.752 211.713 131.352 211.713 130.888C211.713 130.424 211.881 130.024 212.217 129.688C212.553 129.368 212.953 129.208 213.417 129.208ZM235.976 127.288H233.888C233.792 128.824 233.2 130.088 232.112 131.08C231.52 131.64 230.88 132.064 230.192 132.352C229.504 132.656 228.688 132.856 227.744 132.952C226.8 133.064 225.576 133.112 224.072 133.096V130.216H224.864C226.24 130.216 227.328 130.136 228.128 129.976C228.944 129.816 229.632 129.48 230.192 128.968C230.544 128.648 230.776 128.184 230.888 127.576L230.912 127.288H228.488C227.432 127.288 226.464 127.024 225.584 126.496C224.704 125.968 224.008 125.256 223.496 124.36C222.984 123.464 222.728 122.48 222.728 121.408C222.728 120.352 222.984 119.384 223.496 118.504C224.008 117.624 224.704 116.928 225.584 116.416C226.464 115.904 227.432 115.648 228.488 115.648H233.912V124.384H235.976V127.288ZM230.984 118.552H228.488C227.672 118.552 226.984 118.824 226.424 119.368C225.88 119.912 225.608 120.592 225.608 121.408C225.608 122.24 225.888 122.944 226.448 123.52C227.008 124.096 227.688 124.384 228.488 124.384H230.984V118.552ZM235.71 127.288C235.31 127.288 234.966 127.144 234.678 126.856C234.374 126.568 234.222 126.224 234.222 125.824C234.222 125.408 234.366 125.064 234.654 124.792C234.942 124.52 235.294 124.384 235.71 124.384H239.838C240.142 124.384 240.398 124.28 240.606 124.072C240.814 123.864 240.918 123.608 240.918 123.304V115.696H243.822V123.304C243.822 124.024 243.638 124.688 243.27 125.296C242.918 125.904 242.43 126.392 241.806 126.76C241.198 127.112 240.534 127.288 239.814 127.288H235.71ZM237.63 129.28C238.094 129.28 238.494 129.44 238.83 129.76C239.166 130.096 239.334 130.496 239.334 130.96C239.334 131.44 239.166 131.84 238.83 132.16C238.494 132.496 238.094 132.664 237.63 132.664C237.166 132.664 236.766 132.496 236.43 132.16C236.094 131.84 235.926 131.44 235.926 130.96C235.926 130.496 236.094 130.096 236.43 129.76C236.766 129.44 237.166 129.28 237.63 129.28ZM242.094 129.28C242.558 129.28 242.958 129.44 243.294 129.76C243.63 130.096 243.798 130.496 243.798 130.96C243.798 131.44 243.63 131.84 243.294 132.16C242.958 132.496 242.558 132.664 242.094 132.664C241.63 132.664 241.23 132.496 240.894 132.16C240.558 131.84 240.39 131.44 240.39 130.96C240.39 130.496 240.558 130.096 240.894 129.76C241.23 129.44 241.63 129.28 242.094 129.28ZM263.805 110.536V123.352C263.805 124.056 263.629 124.712 263.277 125.32C262.925 125.928 262.445 126.408 261.837 126.76C261.245 127.112 260.597 127.288 259.893 127.288H251.181V124.384H254.805L254.781 113.8H257.685V124.384H259.869C260.157 124.384 260.397 124.288 260.589 124.096C260.797 123.888 260.901 123.64 260.901 123.352V110.536H263.805Z" fill="#202726"/>
<path d="M3.81511 149.688L3.68911 158.418H2.17711L2.03311 149.688H3.81511ZM1.94311 161.208C1.94311 160.932 2.03311 160.71 2.21311 160.542C2.40511 160.362 2.66311 160.272 2.98711 160.272C3.26311 160.272 3.48511 160.368 3.65311 160.56C3.82111 160.74 3.90511 160.992 3.90511 161.316C3.90511 161.592 3.81511 161.82 3.63511 162C3.45511 162.168 3.19711 162.252 2.86111 162.252C2.59711 162.252 2.37511 162.156 2.19511 161.964C2.02711 161.772 1.94311 161.52 1.94311 161.208ZM9.10655 150.354C9.38255 150.354 9.61655 150.45 9.80855 150.642C10.0005 150.834 10.0965 151.062 10.0965 151.326C10.0965 151.59 10.0005 151.824 9.80855 152.028C9.61655 152.22 9.38255 152.316 9.10655 152.316C8.84255 152.316 8.60855 152.22 8.40455 152.028C8.21255 151.824 8.11655 151.59 8.11655 151.326C8.11655 151.062 8.21255 150.834 8.40455 150.642C8.59655 150.45 8.83055 150.354 9.10655 150.354ZM11.8605 150.354C12.1365 150.354 12.3705 150.45 12.5625 150.642C12.7545 150.834 12.8505 151.062 12.8505 151.326C12.8505 151.59 12.7545 151.824 12.5625 152.028C12.3705 152.22 12.1365 152.316 11.8605 152.316C11.5965 152.316 11.3625 152.22 11.1585 152.028C10.9665 151.824 10.8705 151.59 10.8705 151.326C10.8705 151.062 10.9665 150.834 11.1585 150.642C11.3505 150.45 11.5845 150.354 11.8605 150.354ZM10.4565 153.81C11.1645 153.81 11.8125 153.984 12.4005 154.332C13.0005 154.668 13.4685 155.13 13.8045 155.718C14.1525 156.306 14.3265 156.954 14.3265 157.662V158.382C14.3265 159.09 14.1525 159.744 13.8045 160.344C13.4685 160.932 13.0065 161.406 12.4185 161.766C11.8305 162.114 11.1765 162.288 10.4565 162.288C9.72455 162.288 9.05255 162.126 8.44055 161.802C7.84055 161.478 7.36055 161.028 7.00055 160.452C6.65255 159.876 6.47855 159.234 6.47855 158.526V153.828L10.4565 153.81ZM10.4565 160.74C11.1405 160.74 11.7045 160.518 12.1485 160.074C12.5925 159.618 12.8145 159.048 12.8145 158.364V157.734C12.8145 157.302 12.7065 156.906 12.4905 156.546C12.2865 156.174 11.9985 155.886 11.6265 155.682C11.2665 155.466 10.8765 155.358 10.4565 155.358H8.00855V158.472C8.00855 159.168 8.24855 159.72 8.72855 160.128C9.22055 160.536 9.79655 160.74 10.4565 160.74ZM26.2286 160.74C26.4446 160.74 26.6246 160.818 26.7686 160.974C26.9246 161.13 27.0026 161.316 27.0026 161.532C27.0026 161.736 26.9306 161.916 26.7866 162.072C26.6426 162.216 26.4566 162.288 26.2286 162.288H25.8146C25.2626 162.288 24.7406 162.186 24.2486 161.982C23.7566 161.766 23.3306 161.466 22.9706 161.082L22.8986 161.19C22.6106 161.526 22.2566 161.796 21.8366 162C21.4286 162.192 21.0086 162.288 20.5766 162.288H15.9866V160.74H20.5766C20.8046 160.74 21.0086 160.692 21.1886 160.596C21.3806 160.5 21.5366 160.38 21.6566 160.236C21.8726 159.96 21.9806 159.672 21.9806 159.372C21.9806 159.264 21.9626 159.15 21.9266 159.03L20.5766 153.828L22.0346 153.432L23.4926 158.904C23.6126 159.456 23.8886 159.9 24.3206 160.236C24.7526 160.572 25.2506 160.74 25.8146 160.74H26.2286ZM26.1793 162.288C25.9633 162.288 25.7773 162.21 25.6213 162.054C25.4653 161.898 25.3873 161.718 25.3873 161.514C25.3873 161.298 25.4653 161.118 25.6213 160.974C25.7773 160.818 25.9633 160.74 26.1793 160.74H28.8793C29.2153 160.74 29.4913 160.632 29.7073 160.416C29.9353 160.188 30.0493 159.912 30.0493 159.588V153.9H31.5793V159.588C31.5793 160.068 31.4593 160.518 31.2193 160.938C30.9793 161.346 30.6493 161.676 30.2293 161.928C29.8213 162.168 29.3713 162.288 28.8793 162.288H26.1793ZM27.7633 164.088C28.0393 164.088 28.2733 164.184 28.4653 164.376C28.6573 164.568 28.7533 164.796 28.7533 165.06C28.7533 165.336 28.6573 165.57 28.4653 165.762C28.2733 165.954 28.0393 166.05 27.7633 166.05C27.4993 166.05 27.2653 165.954 27.0613 165.762C26.8693 165.57 26.7733 165.336 26.7733 165.06C26.7733 164.796 26.8693 164.568 27.0613 164.376C27.2533 164.184 27.4873 164.088 27.7633 164.088ZM30.5713 164.088C30.8473 164.088 31.0813 164.184 31.2733 164.376C31.4773 164.568 31.5793 164.796 31.5793 165.06C31.5793 165.336 31.4773 165.57 31.2733 165.762C31.0813 165.954 30.8473 166.05 30.5713 166.05C30.3073 166.05 30.0793 165.948 29.8873 165.744C29.6953 165.552 29.5993 165.324 29.5993 165.06C29.5993 164.796 29.6953 164.568 29.8873 164.376C30.0793 164.184 30.3073 164.088 30.5713 164.088ZM43.754 160.74C43.97 160.74 44.15 160.818 44.294 160.974C44.45 161.13 44.528 161.316 44.528 161.532C44.528 161.736 44.456 161.916 44.312 162.072C44.168 162.216 43.982 162.288 43.754 162.288H43.34C42.788 162.288 42.266 162.186 41.774 161.982C41.282 161.766 40.856 161.466 40.496 161.082L40.424 161.19C40.136 161.526 39.782 161.796 39.362 162C38.954 162.192 38.534 162.288 38.102 162.288H33.512V160.74H38.102C38.33 160.74 38.534 160.692 38.714 160.596C38.906 160.5 39.062 160.38 39.182 160.236C39.398 159.96 39.506 159.672 39.506 159.372C39.506 159.264 39.488 159.15 39.452 159.03L38.102 153.828L39.56 153.432L41.018 158.904C41.138 159.456 41.414 159.9 41.846 160.236C42.278 160.572 42.776 160.74 43.34 160.74H43.754ZM43.6867 162.288C43.4827 162.288 43.3027 162.216 43.1467 162.072C42.9907 161.916 42.9127 161.73 42.9127 161.514C42.9127 161.298 42.9907 161.118 43.1467 160.974C43.3027 160.818 43.4827 160.74 43.6867 160.74H51.9847C51.7927 160.632 51.6367 160.476 51.5167 160.272C51.3967 160.056 51.3367 159.822 51.3367 159.57V158.94C51.3367 157.668 50.9467 156.732 50.1667 156.132C49.5187 155.628 48.6487 155.376 47.5567 155.376C47.1127 155.376 46.6807 155.412 46.2607 155.484C45.8407 155.556 45.4807 155.646 45.1807 155.754L44.5867 154.35C45.4987 154.002 46.4767 153.828 47.5207 153.828C48.9487 153.828 50.1427 154.188 51.1027 154.908C51.6187 155.292 52.0387 155.814 52.3627 156.474C52.6867 157.134 52.8487 157.932 52.8487 158.868V159.57C52.8487 159.918 52.9447 160.2 53.1367 160.416C53.3407 160.632 53.5987 160.74 53.9107 160.74H54.1807V162.288H43.6867ZM48.5287 163.962C48.8047 163.962 49.0387 164.058 49.2307 164.25C49.4347 164.442 49.5367 164.67 49.5367 164.934C49.5367 165.21 49.4347 165.444 49.2307 165.636C49.0387 165.828 48.8047 165.924 48.5287 165.924C48.2647 165.924 48.0367 165.828 47.8447 165.636C47.6527 165.444 47.5567 165.21 47.5567 164.934C47.5567 164.67 47.6527 164.442 47.8447 164.25C48.0367 164.058 48.2647 163.962 48.5287 163.962ZM65.3633 151.956C65.6393 151.956 65.8733 152.052 66.0653 152.244C66.2573 152.436 66.3533 152.664 66.3533 152.928C66.3533 153.192 66.2573 153.426 66.0653 153.63C65.8733 153.822 65.6393 153.918 65.3633 153.918C65.0993 153.918 64.8653 153.822 64.6613 153.63C64.4693 153.426 64.3733 153.192 64.3733 152.928C64.3733 152.664 64.4693 152.436 64.6613 152.244C64.8533 152.052 65.0873 151.956 65.3633 151.956ZM68.1173 151.956C68.3933 151.956 68.6273 152.052 68.8193 152.244C69.0113 152.436 69.1073 152.664 69.1073 152.928C69.1073 153.192 69.0113 153.426 68.8193 153.63C68.6273 153.822 68.3933 153.918 68.1173 153.918C67.8533 153.918 67.6193 153.822 67.4153 153.63C67.2233 153.426 67.1273 153.192 67.1273 152.928C67.1273 152.664 67.2233 152.436 67.4153 152.244C67.6073 152.052 67.8413 151.956 68.1173 151.956ZM73.3553 160.74C73.3553 161.172 73.1993 161.538 72.8873 161.838C72.5873 162.138 72.2273 162.288 71.8073 162.288H63.6353C62.9993 162.288 62.4053 162.132 61.8533 161.82C61.3133 161.496 60.8813 161.07 60.5573 160.542C60.2453 160.002 60.0893 159.414 60.0893 158.778V155.808H61.6733V158.778C61.6733 159.33 61.8593 159.798 62.2313 160.182C62.6153 160.554 63.0833 160.74 63.6353 160.74H71.4113C71.5193 160.74 71.6093 160.704 71.6813 160.632C71.7533 160.56 71.7893 160.47 71.7893 160.362V153.918H73.3553V160.74ZM76.1395 149.688H77.6875V162.288H76.1395V149.688ZM83.6568 162.108C83.6568 163.452 83.2908 164.496 82.5588 165.24C81.8268 165.984 80.8668 166.41 79.6788 166.518L79.1208 165.042C80.1168 164.922 80.8668 164.646 81.3708 164.214C81.8748 163.782 82.1268 163.08 82.1268 162.108V153.9H83.6568V162.108ZM89.0503 162.288C88.5823 162.288 88.1443 162.174 87.7363 161.946C87.3403 161.706 87.0223 161.388 86.7823 160.992C86.5543 160.584 86.4403 160.14 86.4403 159.66V149.688H87.9883V159.66C87.9883 159.96 88.0903 160.218 88.2943 160.434C88.5103 160.638 88.7683 160.74 89.0683 160.74H89.8963V162.288H89.0503ZM92.5686 160.74L90.6426 156.312L91.1286 154.89C91.7526 154.518 92.3946 154.236 93.0546 154.044C93.7266 153.84 94.3806 153.738 95.0166 153.738C95.3766 153.738 95.7186 153.774 96.0426 153.846C96.8586 154.002 97.5306 154.404 98.0586 155.052C98.5866 155.688 98.8506 156.414 98.8506 157.23C98.8506 157.842 98.6886 158.49 98.3646 159.174C98.0526 159.858 97.5726 160.38 96.9246 160.74H99.9846V162.27L89.6346 162.288V160.74H92.5686ZM94.2426 160.65C95.0106 160.542 95.6226 160.272 96.0786 159.84C96.5346 159.396 96.8526 158.928 97.0326 158.436C97.2126 157.944 97.3026 157.536 97.3026 157.212C97.3026 156.768 97.1526 156.372 96.8526 156.024C96.5646 155.676 96.2046 155.454 95.7726 155.358C95.5686 155.31 95.3346 155.286 95.0706 155.286C94.3386 155.286 93.4746 155.502 92.4786 155.934L92.3346 156.438L94.2426 160.65ZM108.11 149.31C108.386 149.31 108.62 149.406 108.812 149.598C109.016 149.79 109.118 150.018 109.118 150.282C109.118 150.558 109.016 150.792 108.812 150.984C108.62 151.176 108.386 151.272 108.11 151.272C107.846 151.272 107.618 151.176 107.426 150.984C107.234 150.78 107.138 150.546 107.138 150.282C107.138 150.018 107.234 149.79 107.426 149.598C107.618 149.406 107.846 149.31 108.11 149.31ZM106.652 151.956C106.928 151.956 107.162 152.052 107.354 152.244C107.558 152.436 107.66 152.664 107.66 152.928C107.66 153.204 107.558 153.438 107.354 153.63C107.162 153.822 106.928 153.918 106.652 153.918C106.388 153.918 106.16 153.822 105.968 153.63C105.776 153.426 105.68 153.192 105.68 152.928C105.68 152.664 105.776 152.436 105.968 152.244C106.16 152.052 106.388 151.956 106.652 151.956ZM109.622 151.956C109.898 151.956 110.132 152.052 110.324 152.244C110.528 152.436 110.63 152.664 110.63 152.928C110.63 153.204 110.528 153.438 110.324 153.63C110.132 153.822 109.898 153.918 109.622 153.918C109.358 153.918 109.13 153.822 108.938 153.63C108.746 153.426 108.65 153.192 108.65 152.928C108.65 152.664 108.746 152.436 108.938 152.244C109.13 152.052 109.358 151.956 109.622 151.956ZM114.644 158.886C114.644 159.51 114.488 160.086 114.176 160.614C113.864 161.13 113.438 161.538 112.898 161.838C112.37 162.138 111.794 162.288 111.17 162.288C110.57 162.288 110.036 162.156 109.568 161.892C109.112 161.628 108.758 161.274 108.506 160.83C108.194 161.298 107.798 161.658 107.318 161.91C106.838 162.162 106.298 162.288 105.698 162.288C105.218 162.288 104.768 162.18 104.348 161.964C103.928 161.748 103.58 161.454 103.304 161.082C103.112 161.442 102.836 161.736 102.476 161.964C102.116 162.18 101.726 162.288 101.306 162.288H99.8659C99.6619 162.288 99.4879 162.216 99.3439 162.072C99.1879 161.916 99.1099 161.73 99.1099 161.514C99.1099 161.31 99.1879 161.13 99.3439 160.974C99.4879 160.818 99.6619 160.74 99.8659 160.74H101.306C101.594 160.74 101.84 160.638 102.044 160.434C102.26 160.23 102.368 159.978 102.368 159.678V155.592H103.88V158.94C103.88 159.456 104.06 159.888 104.42 160.236C104.792 160.584 105.248 160.758 105.788 160.758C106.352 160.758 106.82 160.578 107.192 160.218C107.564 159.858 107.75 159.414 107.75 158.886V155.592H109.262V158.94C109.262 159.456 109.442 159.888 109.802 160.236C110.162 160.572 110.618 160.74 111.17 160.74C111.746 160.74 112.214 160.566 112.574 160.218C112.934 159.858 113.114 159.414 113.114 158.886V153.882H114.644V158.886ZM117.431 149.688H118.979V162.288H117.431V149.688ZM137.937 160.74C138.153 160.74 138.333 160.818 138.477 160.974C138.633 161.118 138.711 161.304 138.711 161.532C138.711 161.736 138.633 161.916 138.477 162.072C138.321 162.216 138.141 162.288 137.937 162.288H137.037C136.749 162.288 136.479 162.216 136.227 162.072C135.975 161.928 135.789 161.742 135.669 161.514V164.466C135.669 164.838 135.531 165.156 135.255 165.42C134.991 165.684 134.673 165.816 134.301 165.816H130.035C129.219 165.816 128.463 165.612 127.767 165.204C127.083 164.808 126.537 164.262 126.129 163.566C125.733 162.882 125.535 162.132 125.535 161.316V158.526H127.083V161.316C127.083 161.856 127.215 162.348 127.479 162.792C127.743 163.248 128.097 163.608 128.541 163.872C128.997 164.136 129.495 164.268 130.035 164.268H133.671C133.827 164.268 133.941 164.214 134.013 164.106C134.085 163.998 134.121 163.866 134.121 163.71V149.742H135.669V159.264C135.669 159.672 135.801 160.02 136.065 160.308C136.329 160.596 136.647 160.74 137.019 160.74H137.937ZM154.286 160.74V162.288H137.726V160.74H139.958V153.882H141.488V155.574L146.33 154.098C146.738 153.966 147.194 153.9 147.698 153.9C148.49 153.9 149.222 154.086 149.894 154.458C150.578 154.818 151.112 155.322 151.496 155.97C151.904 156.642 152.108 157.398 152.108 158.238V160.74H154.286ZM150.2 160.74C150.308 160.74 150.398 160.704 150.47 160.632C150.542 160.56 150.578 160.47 150.578 160.362V158.238C150.578 157.674 150.44 157.176 150.164 156.744C149.936 156.324 149.6 156 149.156 155.772C148.724 155.544 148.244 155.43 147.716 155.43C147.392 155.43 147.086 155.472 146.798 155.556L141.488 157.176V160.74H150.2ZM156.111 150.3C156.387 150.3 156.621 150.396 156.813 150.588C157.017 150.78 157.119 151.008 157.119 151.272C157.119 151.548 157.017 151.782 156.813 151.974C156.621 152.166 156.387 152.262 156.111 152.262C155.847 152.262 155.619 152.166 155.427 151.974C155.235 151.77 155.139 151.536 155.139 151.272C155.139 151.008 155.235 150.78 155.427 150.588C155.619 150.396 155.847 150.3 156.111 150.3ZM158.865 150.3C159.141 150.3 159.375 150.396 159.567 150.588C159.771 150.78 159.873 151.008 159.873 151.272C159.873 151.548 159.771 151.782 159.567 151.974C159.375 152.166 159.141 152.262 158.865 152.262C158.601 152.262 158.373 152.166 158.181 151.974C157.989 151.77 157.893 151.536 157.893 151.272C157.893 151.008 157.989 150.78 158.181 150.588C158.373 150.396 158.601 150.3 158.865 150.3ZM154.095 162.288C153.879 162.288 153.693 162.21 153.537 162.054C153.381 161.898 153.303 161.718 153.303 161.514C153.303 161.298 153.381 161.118 153.537 160.974C153.693 160.818 153.879 160.74 154.095 160.74H155.985C156.309 160.74 156.579 160.632 156.795 160.416C157.023 160.188 157.137 159.912 157.137 159.588V153.828H158.685V159.588C158.685 160.068 158.559 160.518 158.307 160.938C158.067 161.346 157.737 161.676 157.317 161.928C156.909 162.168 156.459 162.288 155.967 162.288H154.095ZM169.136 162.288C168.668 162.288 168.23 162.174 167.822 161.946C167.426 161.706 167.108 161.388 166.868 160.992C166.64 160.584 166.526 160.14 166.526 159.66V149.688H168.074V159.66C168.074 159.96 168.176 160.218 168.38 160.434C168.596 160.638 168.854 160.74 169.154 160.74H169.982V162.288H169.136ZM169.127 160.974C169.271 160.818 169.451 160.74 169.667 160.74H170.297C170.753 160.74 171.119 160.602 171.395 160.326C171.671 160.038 171.809 159.672 171.809 159.228V153.828H175.841C176.585 153.828 177.257 154.008 177.857 154.368C178.469 154.716 178.949 155.202 179.297 155.826C179.645 156.438 179.819 157.116 179.819 157.86V158.418C179.819 159.114 179.633 159.762 179.261 160.362C178.901 160.95 178.415 161.418 177.803 161.766C177.203 162.114 176.543 162.288 175.823 162.288C175.211 162.288 174.641 162.144 174.113 161.856C173.585 161.556 173.159 161.166 172.835 160.686C172.607 161.166 172.259 161.556 171.791 161.856C171.335 162.144 170.837 162.288 170.297 162.288H169.649C169.445 162.276 169.271 162.198 169.127 162.054C168.971 161.898 168.893 161.718 168.893 161.514C168.893 161.298 168.971 161.118 169.127 160.974ZM174.095 160.092C174.575 160.536 175.157 160.752 175.841 160.74C176.273 160.74 176.675 160.632 177.047 160.416C177.431 160.2 177.737 159.912 177.965 159.552C178.193 159.18 178.307 158.778 178.307 158.346V157.806C178.307 157.35 178.193 156.936 177.965 156.564C177.749 156.192 177.443 155.898 177.047 155.682C176.663 155.466 176.243 155.358 175.787 155.358H173.357V158.418C173.369 159.09 173.615 159.648 174.095 160.092ZM192.166 160.74C192.382 160.74 192.562 160.818 192.706 160.974C192.862 161.13 192.94 161.316 192.94 161.532C192.94 161.736 192.868 161.916 192.724 162.072C192.58 162.216 192.394 162.288 192.166 162.288H191.752C191.2 162.288 190.678 162.186 190.186 161.982C189.694 161.766 189.268 161.466 188.908 161.082L188.836 161.19C188.548 161.526 188.194 161.796 187.774 162C187.366 162.192 186.946 162.288 186.514 162.288H181.924V160.74H186.514C186.742 160.74 186.946 160.692 187.126 160.596C187.318 160.5 187.474 160.38 187.594 160.236C187.81 159.96 187.918 159.672 187.918 159.372C187.918 159.264 187.9 159.15 187.864 159.03L186.514 153.828L187.972 153.432L189.43 158.904C189.55 159.456 189.826 159.9 190.258 160.236C190.69 160.572 191.188 160.74 191.752 160.74H192.166ZM194.943 151.596C195.219 151.596 195.453 151.692 195.645 151.884C195.849 152.076 195.951 152.304 195.951 152.568C195.951 152.844 195.849 153.078 195.645 153.27C195.453 153.462 195.219 153.558 194.943 153.558C194.679 153.558 194.451 153.462 194.259 153.27C194.067 153.066 193.971 152.832 193.971 152.568C193.971 152.304 194.067 152.076 194.259 151.884C194.451 151.692 194.679 151.596 194.943 151.596ZM197.949 160.74C198.165 160.74 198.345 160.812 198.489 160.956C198.645 161.1 198.723 161.28 198.723 161.496C198.723 161.724 198.645 161.916 198.489 162.072C198.333 162.216 198.147 162.288 197.931 162.288H197.229C196.785 162.288 196.371 162.192 195.987 162C195.603 161.796 195.285 161.52 195.033 161.172C194.793 161.508 194.487 161.778 194.115 161.982C193.743 162.186 193.341 162.288 192.909 162.288H192.117C191.889 162.288 191.703 162.216 191.559 162.072C191.403 161.928 191.325 161.742 191.325 161.514C191.325 161.286 191.403 161.1 191.559 160.956C191.703 160.812 191.889 160.74 192.117 160.74H192.747C193.131 160.74 193.461 160.602 193.737 160.326C194.025 160.038 194.169 159.696 194.169 159.3V155.592H195.717V159.318C195.741 159.714 195.897 160.05 196.185 160.326C196.485 160.602 196.833 160.74 197.229 160.74H197.949ZM197.738 162.288V160.758H200.096C199.736 160.542 199.448 160.242 199.232 159.858C199.028 159.462 198.926 159.024 198.926 158.544L198.944 157.608C198.968 156.912 199.16 156.276 199.52 155.7C199.88 155.124 200.354 154.668 200.942 154.332C201.53 153.996 202.166 153.828 202.85 153.828C203.402 153.828 203.93 153.948 204.434 154.188C204.95 154.416 205.382 154.734 205.73 155.142C206.078 155.55 206.306 156.006 206.414 156.51L205.262 157.446C205.166 156.87 204.896 156.384 204.452 155.988C204.02 155.58 203.486 155.376 202.85 155.376C202.214 155.376 201.668 155.598 201.212 156.042C200.756 156.474 200.516 157.002 200.492 157.626L200.474 158.526C200.474 159.174 200.702 159.708 201.158 160.128C201.614 160.536 202.178 160.74 202.85 160.74H206.918V162.288H197.738ZM225.926 160.758C225.926 161.178 225.776 161.538 225.476 161.838C225.176 162.138 224.816 162.288 224.396 162.288H217.07C216.362 162.288 215.708 162.114 215.108 161.766C214.508 161.418 214.034 160.95 213.686 160.362C213.338 159.762 213.164 159.108 213.164 158.4V155.772H214.694V158.4C214.694 158.82 214.802 159.216 215.018 159.588C215.234 159.948 215.522 160.236 215.882 160.452C216.254 160.656 216.65 160.758 217.07 160.758H223.838C223.994 160.758 224.126 160.704 224.234 160.596C224.354 160.488 224.414 160.356 224.414 160.2V149.742H225.926V160.758ZM217.898 154.782V153.972H218.51C218.306 153.696 218.21 153.408 218.222 153.108C218.258 152.676 218.426 152.316 218.726 152.028C219.026 151.74 219.386 151.596 219.806 151.596C220.19 151.596 220.52 151.71 220.796 151.938C221.072 152.166 221.258 152.454 221.354 152.802L220.688 153.216C220.544 152.7 220.25 152.442 219.806 152.442C219.59 152.442 219.41 152.514 219.266 152.658C219.134 152.79 219.068 152.97 219.068 153.198C219.068 153.39 219.134 153.57 219.266 153.738C219.398 153.894 219.578 153.972 219.806 153.972H221.318V154.782H217.898ZM234.127 160.74C234.343 160.74 234.523 160.818 234.667 160.974C234.823 161.118 234.901 161.298 234.901 161.514C234.901 161.73 234.823 161.916 234.667 162.072C234.523 162.216 234.343 162.288 234.127 162.288H233.515C233.143 162.288 232.789 162.21 232.453 162.054C232.129 161.898 231.871 161.688 231.679 161.424V162.45C231.619 163.626 231.235 164.55 230.527 165.222C229.819 165.894 228.919 166.332 227.827 166.536L227.269 165.078C228.157 164.898 228.859 164.586 229.375 164.142C229.891 163.698 230.149 163.02 230.149 162.108V153.9H231.679V158.922C231.679 159.426 231.859 159.858 232.219 160.218C232.579 160.566 233.011 160.74 233.515 160.74H234.127ZM239.872 160.74C240.088 160.74 240.268 160.812 240.412 160.956C240.568 161.1 240.646 161.28 240.646 161.496C240.646 161.724 240.568 161.916 240.412 162.072C240.256 162.216 240.07 162.288 239.854 162.288H239.206C238.762 162.288 238.348 162.186 237.964 161.982C237.58 161.778 237.262 161.508 237.01 161.172C236.77 161.508 236.464 161.778 236.092 161.982C235.72 162.186 235.318 162.288 234.886 162.288H234.076C233.848 162.288 233.662 162.216 233.518 162.072C233.362 161.928 233.284 161.742 233.284 161.514C233.284 161.286 233.362 161.1 233.518 160.956C233.662 160.812 233.848 160.74 234.076 160.74H234.724C235.108 160.74 235.438 160.602 235.714 160.326C236.002 160.038 236.146 159.696 236.146 159.3V155.538H237.694V159.318C237.718 159.714 237.874 160.05 238.162 160.326C238.462 160.602 238.81 160.74 239.206 160.74H239.872ZM235.912 165.06C235.912 164.796 236.008 164.568 236.2 164.376C236.392 164.184 236.62 164.088 236.884 164.088C237.16 164.088 237.394 164.184 237.586 164.376C237.79 164.568 237.892 164.796 237.892 165.06C237.892 165.336 237.79 165.57 237.586 165.762C237.394 165.954 237.16 166.05 236.884 166.05C236.62 166.05 236.392 165.948 236.2 165.744C236.008 165.552 235.912 165.324 235.912 165.06ZM243.28 151.272C243.28 151.008 243.376 150.78 243.568 150.588C243.76 150.396 243.988 150.3 244.252 150.3C244.528 150.3 244.762 150.396 244.954 150.588C245.158 150.78 245.26 151.008 245.26 151.272C245.26 151.548 245.158 151.782 244.954 151.974C244.762 152.166 244.528 152.262 244.252 152.262C243.988 152.262 243.76 152.166 243.568 151.974C243.376 151.77 243.28 151.536 243.28 151.272ZM239.806 162.288C239.602 162.288 239.422 162.216 239.266 162.072C239.11 161.916 239.032 161.73 239.032 161.514C239.032 161.298 239.11 161.118 239.266 160.974C239.422 160.818 239.602 160.74 239.806 160.74H247.924C247.732 160.632 247.576 160.476 247.456 160.272C247.336 160.056 247.276 159.822 247.276 159.57V158.922C247.276 157.65 246.886 156.714 246.106 156.114C245.458 155.61 244.588 155.358 243.496 155.358C242.68 155.358 241.912 155.478 241.192 155.718L240.652 154.314C241 154.158 241.414 154.038 241.894 153.954C242.386 153.858 242.896 153.81 243.424 153.81C244.084 153.81 244.726 153.9 245.35 154.08C245.974 154.248 246.538 154.518 247.042 154.89C247.558 155.274 247.978 155.796 248.302 156.456C248.626 157.116 248.788 157.914 248.788 158.85V159.57C248.788 159.918 248.884 160.2 249.076 160.416C249.28 160.632 249.538 160.74 249.85 160.74H251.344V162.288H239.806ZM253.882 151.596C254.158 151.596 254.392 151.692 254.584 151.884C254.788 152.076 254.89 152.304 254.89 152.568C254.89 152.844 254.788 153.078 254.584 153.27C254.392 153.462 254.158 153.558 253.882 153.558C253.618 153.558 253.39 153.462 253.198 153.27C253.006 153.066 252.91 152.832 252.91 152.568C252.91 152.304 253.006 152.076 253.198 151.884C253.39 151.692 253.618 151.596 253.882 151.596ZM256.888 160.74C257.104 160.74 257.284 160.812 257.428 160.956C257.584 161.1 257.662 161.28 257.662 161.496C257.662 161.724 257.584 161.916 257.428 162.072C257.272 162.216 257.086 162.288 256.87 162.288H256.168C255.724 162.288 255.31 162.192 254.926 162C254.542 161.796 254.224 161.52 253.972 161.172C253.732 161.508 253.426 161.778 253.054 161.982C252.682 162.186 252.28 162.288 251.848 162.288H251.056C250.828 162.288 250.642 162.216 250.498 162.072C250.342 161.928 250.264 161.742 250.264 161.514C250.264 161.286 250.342 161.1 250.498 160.956C250.642 160.812 250.828 160.74 251.056 160.74H251.686C252.07 160.74 252.4 160.602 252.676 160.326C252.964 160.038 253.108 159.696 253.108 159.3V155.592H254.656V159.318C254.68 159.714 254.836 160.05 255.124 160.326C255.424 160.602 255.772 160.74 256.168 160.74H256.888ZM271.545 158.886C271.545 159.51 271.389 160.086 271.077 160.614C270.765 161.13 270.339 161.538 269.799 161.838C269.271 162.138 268.695 162.288 268.071 162.288C267.459 162.288 266.925 162.156 266.469 161.892C266.013 161.628 265.653 161.274 265.389 160.83C265.065 161.298 264.669 161.658 264.201 161.91C263.733 162.162 263.199 162.288 262.599 162.288C262.107 162.288 261.651 162.18 261.231 161.964C260.823 161.748 260.475 161.454 260.187 161.082C260.007 161.442 259.737 161.736 259.377 161.964C259.017 162.18 258.621 162.288 258.189 162.288H256.803C256.599 162.288 256.425 162.216 256.281 162.072C256.125 161.916 256.047 161.73 256.047 161.514C256.047 161.31 256.125 161.136 256.281 160.992C256.425 160.836 256.599 160.758 256.803 160.758H258.189C258.489 160.758 258.741 160.656 258.945 160.452C259.149 160.248 259.251 159.996 259.251 159.696V155.592H260.781V158.94C260.781 159.456 260.961 159.888 261.321 160.236C261.681 160.584 262.131 160.758 262.671 160.758C263.247 160.758 263.721 160.578 264.093 160.218C264.465 159.858 264.645 159.414 264.633 158.886V155.592H266.163V158.94C266.163 159.456 266.343 159.888 266.703 160.236C267.063 160.572 267.519 160.74 268.071 160.74C268.635 160.74 269.097 160.566 269.457 160.218C269.829 159.858 270.015 159.414 270.015 158.886V153.882H271.545V158.886Z" fill="#6F6F6F"/>
</g>
<defs>
<clipPath id="clip0_4679_25755">
<rect width="273" height="169.288" fill="white"/>
</clipPath>
</defs>
</svg>
