<svg width="1136" height="352" viewBox="0 0 1136 352" fill="none" xmlns="http://www.w3.org/2000/svg">
<path d="M568 45.4287C611.394 45.4287 646.571 80.6062 646.571 124C646.571 167.394 611.394 202.571 568 202.571C524.606 202.571 489.429 167.394 489.429 124C489.429 80.6062 524.606 45.4287 568 45.4287Z" stroke="#EEEEEE" stroke-width="2.85714"/>
<path d="M574.825 149.306C570.928 153.633 564.848 153.685 560.913 149.306" stroke="#2E353F" stroke-width="4.28571" stroke-linecap="round" stroke-linejoin="round"/>
<path fill-rule="evenodd" clip-rule="evenodd" d="M568 140.706C584.112 140.706 591.566 138.639 592.286 130.342C592.286 122.052 587.089 122.585 587.089 112.413C587.089 104.467 579.558 95.4268 568 95.4268C556.442 95.4268 548.911 104.467 548.911 112.413C548.911 122.585 543.714 122.052 543.714 130.342C544.437 138.67 551.891 140.706 568 140.706Z" stroke="#2E353F" stroke-width="4.28571" stroke-linecap="round" stroke-linejoin="round"/>
<path d="M449.91 248.672C450.342 248.672 450.71 248.824 451.014 249.128C451.318 249.432 451.47 249.8 451.47 250.232C451.47 250.664 451.318 251.032 451.014 251.336C450.71 251.64 450.342 251.792 449.91 251.792C449.494 251.792 449.134 251.64 448.83 251.336C448.526 251.032 448.374 250.664 448.374 250.232C448.374 249.8 448.526 249.432 448.83 249.128C449.134 248.824 449.494 248.672 449.91 248.672ZM458.07 248.96V259.424C458.07 261.408 457.454 262.952 456.222 264.056C454.99 265.176 453.334 265.736 451.254 265.736H448.878C446.67 265.736 444.95 265.12 443.718 263.888C442.614 262.784 442.062 261.296 442.062 259.424V255.128L443.55 253.928H444.99V259.16C444.99 260.664 445.374 261.728 446.142 262.352C446.91 262.976 448.222 263.288 450.078 263.288C451.87 263.288 453.142 263 453.894 262.424C454.726 261.784 455.142 260.696 455.142 259.16V248.96H458.07ZM460.487 243.584C461.079 242.48 461.799 241.928 462.647 241.928C463.063 241.928 463.591 242.08 464.231 242.384C464.471 242.496 464.647 242.576 464.759 242.624C465.127 242.784 465.439 242.864 465.695 242.864C466.095 242.864 466.495 242.616 466.895 242.12L467.711 242.744C467.039 243.752 466.287 244.256 465.455 244.256C464.911 244.256 464.287 244.072 463.583 243.704C463.151 243.48 462.831 243.368 462.623 243.368C462.287 243.368 461.831 243.632 461.255 244.16L460.487 243.584ZM473.975 242.816V257.36C473.975 258.032 473.743 258.616 473.279 259.112C472.783 259.704 472.143 260 471.359 260H461.735L460.535 258.512V257.552H466.367L462.407 245.768H465.167L469.127 257.552H470.423C470.615 257.552 470.775 257.488 470.903 257.36C470.999 257.2 471.047 257.064 471.047 256.952V242.816H473.975ZM480.217 242.816V259.4L478.729 260.6H477.289V242.816H480.217ZM490.857 255.824V259.16C490.857 260.68 491.233 261.744 491.985 262.352C492.753 262.976 494.065 263.288 495.921 263.288C497.537 263.288 498.705 263.08 499.425 262.664C500.305 262.168 500.809 261.28 500.937 260H499.449L498.201 258.464V257.552H504.825V260H503.913C503.785 262 502.985 263.504 501.513 264.512C500.361 265.328 498.897 265.736 497.121 265.736H494.745C492.729 265.736 491.121 265.216 489.921 264.176C488.593 263.088 487.929 261.504 487.929 259.424V257L489.417 255.824H490.857ZM505.076 243.68C505.508 243.68 505.876 243.832 506.18 244.136C506.484 244.44 506.636 244.808 506.636 245.24C506.636 245.656 506.484 246.016 506.18 246.32C505.876 246.624 505.508 246.776 505.076 246.776C504.644 246.776 504.276 246.624 503.972 246.32C503.668 246.016 503.516 245.656 503.516 245.24C503.516 244.808 503.668 244.44 503.972 244.136C504.276 243.832 504.644 243.68 505.076 243.68ZM508.724 243.68C509.156 243.68 509.524 243.832 509.828 244.136C510.132 244.44 510.284 244.808 510.284 245.24C510.284 245.656 510.132 246.016 509.828 246.32C509.524 246.624 509.156 246.776 508.724 246.776C508.308 246.776 507.948 246.624 507.644 246.32C507.34 246.016 507.188 245.656 507.188 245.24C507.188 244.808 507.34 244.44 507.644 244.136C507.948 243.832 508.308 243.68 508.724 243.68ZM509.972 248.96V257.192V257.552H511.196V260H510.356L509.468 259.016H509.42C508.876 259.672 508.196 260 507.38 260H502.748V257.552H506.372C506.596 257.552 506.756 257.488 506.852 257.36C506.996 257.232 507.068 257.072 507.068 256.88V248.96H509.972ZM514.214 249.368C515.798 248.904 517.182 248.672 518.366 248.672C520.302 248.672 521.862 249.28 523.046 250.496C524.118 251.6 524.654 252.976 524.654 254.624V257.36C524.654 258.016 524.43 258.608 523.982 259.136C523.454 259.712 522.814 260 522.062 260H511.022V257.552H521.126C521.526 257.552 521.726 257.352 521.726 256.952V254.792C521.726 253.672 521.358 252.792 520.622 252.152C519.902 251.512 518.902 251.192 517.622 251.192C516.886 251.192 515.75 251.36 514.214 251.696V249.368ZM540.343 248.312C540.775 248.312 541.143 248.464 541.447 248.768C541.751 249.072 541.903 249.44 541.903 249.872C541.903 250.304 541.751 250.672 541.447 250.976C541.143 251.28 540.775 251.432 540.343 251.432C539.927 251.432 539.567 251.28 539.263 250.976C538.959 250.672 538.807 250.304 538.807 249.872C538.807 249.44 538.959 249.072 539.263 248.768C539.567 248.464 539.927 248.312 540.343 248.312ZM544.015 248.312C544.431 248.312 544.791 248.464 545.095 248.768C545.399 249.072 545.551 249.44 545.551 249.872C545.551 250.304 545.399 250.672 545.095 250.976C544.791 251.28 544.431 251.432 544.015 251.432C543.583 251.432 543.215 251.28 542.911 250.976C542.607 250.672 542.455 250.304 542.455 249.872C542.455 249.44 542.607 249.072 542.911 248.768C543.215 248.464 543.583 248.312 544.015 248.312ZM552.271 248.96V257.36C552.271 258.032 552.063 258.6 551.647 259.064C551.135 259.688 550.479 260 549.679 260H536.239C535.199 260 534.303 259.664 533.551 258.992C532.543 258.144 532.039 257.04 532.039 255.68V251.888L533.527 250.688H534.967V255.68C534.967 256.24 535.159 256.696 535.543 257.048C535.911 257.384 536.335 257.552 536.815 257.552H548.743C549.143 257.552 549.343 257.352 549.343 256.952V248.96H552.271ZM558.522 242.816V259.4L557.034 260.6H555.594V242.816H558.522ZM566.884 248.96V259.424C566.884 261.408 566.276 262.944 565.06 264.032C564.276 264.752 563.268 265.256 562.036 265.544C561.46 265.656 560.86 265.712 560.236 265.712C560.028 265.712 559.748 265.696 559.396 265.664L558.22 264.2V263.168C558.732 263.248 559.228 263.288 559.708 263.288C562.54 263.288 563.956 261.912 563.956 259.16V248.96H566.884ZM573.123 242.816V256.952C573.123 257.112 573.171 257.24 573.267 257.336C573.363 257.48 573.515 257.552 573.723 257.552H574.347V260H572.787C572.131 260 571.555 259.768 571.059 259.304C570.483 258.776 570.195 258.128 570.195 257.36V242.816H573.123ZM577.522 253.184C578.066 251.616 579.058 250.424 580.498 249.608C581.57 249 582.73 248.696 583.978 248.696C585.226 248.696 586.37 249.032 587.41 249.704C588.706 250.488 589.634 251.648 590.194 253.184L589.906 253.856C589.266 254.144 588.594 254.64 587.89 255.344C587.218 256.08 586.778 256.816 586.57 257.552H590.434V260H585.154C584.706 260 584.298 259.792 583.93 259.376H583.81C583.442 259.792 583.018 260 582.538 260H574.186V257.552H581.146C580.954 256.896 580.546 256.2 579.922 255.464C579.234 254.696 578.522 254.16 577.786 253.856L577.522 253.184ZM587.122 252.992C586.738 252.32 586.218 251.824 585.562 251.504C585.066 251.264 584.514 251.144 583.906 251.144C583.266 251.144 582.658 251.28 582.082 251.552C581.442 251.872 580.946 252.352 580.594 252.992C581.138 253.232 581.714 253.712 582.322 254.432C582.994 255.184 583.49 256 583.81 256.88H583.906C584.21 255.984 584.73 255.128 585.466 254.312C586.058 253.656 586.61 253.216 587.122 252.992ZM606.272 240.8C606.672 240.8 607.008 240.944 607.28 241.232C607.568 241.504 607.712 241.84 607.712 242.24C607.712 242.64 607.568 242.976 607.28 243.248C607.008 243.52 606.672 243.656 606.272 243.656C605.872 243.656 605.536 243.52 605.264 243.248C604.992 242.976 604.856 242.64 604.856 242.24C604.856 241.84 604.992 241.504 605.264 241.232C605.536 240.944 605.872 240.8 606.272 240.8ZM604.448 243.68C604.88 243.68 605.248 243.832 605.552 244.136C605.856 244.44 606.008 244.808 606.008 245.24C606.008 245.656 605.856 246.016 605.552 246.32C605.248 246.624 604.88 246.776 604.448 246.776C604.032 246.776 603.672 246.624 603.368 246.32C603.064 246.016 602.912 245.656 602.912 245.24C602.912 244.808 603.064 244.44 603.368 244.136C603.672 243.832 604.032 243.68 604.448 243.68ZM608.096 243.68C608.528 243.68 608.896 243.832 609.2 244.136C609.504 244.44 609.656 244.808 609.656 245.24C609.656 245.656 609.504 246.016 609.2 246.32C608.896 246.624 608.528 246.776 608.096 246.776C607.664 246.776 607.296 246.624 606.992 246.32C606.688 246.016 606.536 245.656 606.536 245.24C606.536 244.808 606.688 244.44 606.992 244.136C607.296 243.832 607.664 243.68 608.096 243.68ZM615.728 248.96V257.36C615.728 258.08 615.472 258.704 614.96 259.232C614.464 259.744 613.856 260 613.136 260H608.096L607.208 259.016H607.136C606.608 259.672 605.936 260 605.12 260H600.08L599.168 259.016H599.096C598.568 259.672 597.896 260 597.08 260H590.264V257.552H596.144C596.544 257.552 596.744 257.352 596.744 256.952V251.72H599.672V256.52C599.672 256.984 599.664 257.328 599.648 257.552H604.184C604.584 257.552 604.784 257.352 604.784 256.952V250.328H607.712V256.736C607.712 256.832 607.704 256.976 607.688 257.168C607.688 257.344 607.688 257.472 607.688 257.552H612.2C612.6 257.552 612.8 257.352 612.8 256.952V248.96H615.728ZM621.967 242.816V259.4L620.479 260.6H619.039V242.816H621.967ZM618.607 265.928C618.335 265.528 618.199 265.072 618.199 264.56C618.199 263.872 618.399 263.32 618.799 262.904C619.215 262.488 619.767 262.28 620.455 262.28C620.823 262.28 621.231 262.352 621.679 262.496V263.768C621.359 263.672 621.063 263.624 620.791 263.624C620.087 263.624 619.735 264.008 619.735 264.776C619.735 265.096 619.815 265.352 619.975 265.544C620.167 265.8 620.455 265.928 620.839 265.928H622.447V266.528L621.895 267.224H617.647V265.928H618.607ZM630.751 248.816C631.295 248.72 631.927 248.672 632.647 248.672C634.487 248.672 635.975 249.264 637.111 250.448C638.119 251.52 638.623 252.848 638.623 254.432V256.736C638.623 257.104 638.615 257.376 638.599 257.552H639.223V260H638.911L638.119 259.016H638.047C637.919 259.16 637.783 259.296 637.639 259.424C637.159 259.808 636.623 260 636.031 260H628.327V257.552H635.095C635.495 257.552 635.695 257.352 635.695 256.952V254.72C635.695 253.616 635.359 252.728 634.687 252.056C634.063 251.432 633.159 251.096 631.975 251.048C631.431 251.048 631.023 251.08 630.751 251.144V248.816ZM642.253 249.368C643.837 248.904 645.221 248.672 646.405 248.672C648.341 248.672 649.901 249.28 651.085 250.496C652.157 251.6 652.693 252.976 652.693 254.624V257.36C652.693 258.016 652.469 258.608 652.021 259.136C651.493 259.712 650.853 260 650.101 260H639.061V257.552H649.165C649.565 257.552 649.765 257.352 649.765 256.952V254.792C649.765 253.672 649.397 252.792 648.661 252.152C647.941 251.512 646.941 251.192 645.661 251.192C644.925 251.192 643.789 251.36 642.253 251.696V249.368ZM645.613 261.752C646.045 261.752 646.413 261.904 646.717 262.208C647.021 262.512 647.173 262.88 647.173 263.312C647.173 263.744 647.021 264.112 646.717 264.416C646.413 264.72 646.045 264.872 645.613 264.872C645.197 264.872 644.837 264.72 644.533 264.416C644.229 264.112 644.077 263.744 644.077 263.312C644.077 262.88 644.229 262.512 644.533 262.208C644.837 261.904 645.197 261.752 645.613 261.752ZM660.784 260C659.024 260 657.64 259.4 656.632 258.2C655.784 257.176 655.36 255.912 655.36 254.408C655.36 252.616 655.864 251.216 656.872 250.208C657.928 249.184 659.28 248.672 660.928 248.672C662.128 248.672 663.168 248.968 664.048 249.56C665.2 250.392 665.776 251.576 665.776 253.112V257.552H666.544V260H665.752C665.64 261.728 665.032 263.08 663.928 264.056C663.16 264.744 662.24 265.216 661.168 265.472C660.416 265.648 659.68 265.736 658.96 265.736C658.72 265.736 658.376 265.72 657.928 265.688H657.856L656.632 264.176V263.12C657.288 263.232 657.904 263.288 658.48 263.288C661.104 263.288 662.536 262.192 662.776 260H660.784ZM662.848 253.112C662.848 252.472 662.64 251.968 662.224 251.6C661.856 251.28 661.424 251.12 660.928 251.12C660.112 251.12 659.464 251.408 658.984 251.984C658.504 252.56 658.264 253.352 658.264 254.36C658.264 255.336 658.528 256.112 659.056 256.688C659.584 257.264 660.304 257.552 661.216 257.552H662.848V253.112ZM673.59 248.96V257.36C673.59 257.984 673.382 258.56 672.966 259.088C672.438 259.696 671.782 260 670.998 260H666.365V257.552H670.062C670.238 257.552 670.39 257.488 670.518 257.36C670.63 257.248 670.686 257.112 670.686 256.952V248.96H673.59ZM668.334 261.752C668.766 261.752 669.134 261.904 669.438 262.208C669.742 262.512 669.894 262.88 669.894 263.312C669.894 263.744 669.742 264.112 669.438 264.416C669.134 264.72 668.766 264.872 668.334 264.872C667.918 264.872 667.558 264.72 667.254 264.416C666.95 264.112 666.798 263.744 666.798 263.312C666.798 262.88 666.95 262.512 667.254 262.208C667.558 261.904 667.918 261.752 668.334 261.752ZM672.006 261.752C672.438 261.752 672.798 261.904 673.086 262.208C673.39 262.512 673.542 262.88 673.542 263.312C673.542 263.744 673.39 264.112 673.086 264.416C672.798 264.72 672.438 264.872 672.006 264.872C671.574 264.872 671.206 264.72 670.902 264.416C670.598 264.112 670.446 263.744 670.446 263.312C670.446 262.88 670.598 262.512 670.902 262.208C671.206 261.904 671.574 261.752 672.006 261.752ZM693.936 242.816V257.36C693.936 258.048 693.712 258.632 693.264 259.112C692.752 259.704 692.112 260 691.344 260H681.72L680.52 258.512V257.552H686.352L682.392 245.768H685.128L689.112 257.552H690.408C690.6 257.552 690.76 257.488 690.888 257.36C690.968 257.232 691.008 257.096 691.008 256.952V242.816H693.936Z" fill="#212121"/>
<path d="M452.803 290.544V298.688L452.115 299.248H451.443V290.544H452.803ZM452.147 300.512C452.371 300.512 452.558 300.587 452.707 300.736C452.856 300.885 452.931 301.072 452.931 301.296C452.931 301.509 452.856 301.696 452.707 301.856C452.558 302.005 452.371 302.08 452.147 302.08C451.934 302.08 451.747 302.005 451.587 301.856C451.438 301.696 451.363 301.509 451.363 301.296C451.363 301.072 451.438 300.885 451.587 300.736C451.747 300.587 451.934 300.512 452.147 300.512ZM458.614 291.12C458.828 291.12 459.009 291.2 459.158 291.36C459.318 291.509 459.398 291.691 459.398 291.904C459.398 292.128 459.318 292.32 459.158 292.48C459.009 292.629 458.828 292.704 458.614 292.704C458.401 292.704 458.214 292.629 458.054 292.48C457.905 292.32 457.83 292.128 457.83 291.904C457.83 291.691 457.905 291.509 458.054 291.36C458.214 291.2 458.401 291.12 458.614 291.12ZM460.55 291.12C460.774 291.12 460.961 291.2 461.11 291.36C461.27 291.509 461.35 291.691 461.35 291.904C461.35 292.128 461.27 292.32 461.11 292.48C460.961 292.629 460.774 292.704 460.55 292.704C460.337 292.704 460.15 292.629 459.99 292.48C459.841 292.32 459.766 292.128 459.766 291.904C459.766 291.691 459.841 291.509 459.99 291.36C460.15 291.2 460.337 291.12 460.55 291.12ZM461.35 294.208V299.248C461.35 300.112 461.105 300.795 460.614 301.296C460.07 301.861 459.249 302.144 458.15 302.144C457.19 302.144 456.412 301.899 455.814 301.408C455.014 300.747 454.614 299.749 454.614 298.416C454.614 297.211 454.982 296.219 455.718 295.44C456.401 294.725 457.254 294.368 458.278 294.368C458.844 294.368 459.414 294.496 459.99 294.752L460.678 294.208H461.35ZM459.99 295.872C459.521 295.637 459.046 295.52 458.566 295.52C457.724 295.52 457.062 295.851 456.582 296.512C456.177 297.045 455.974 297.685 455.974 298.432C455.974 299.253 456.166 299.888 456.55 300.336C456.934 300.784 457.468 301.008 458.15 301.008C458.79 301.008 459.26 300.843 459.558 300.512C459.846 300.192 459.99 299.765 459.99 299.232V295.872ZM464.474 294.544C464.858 294.48 465.269 294.448 465.706 294.448C466.89 294.448 467.845 294.805 468.57 295.52C469.221 296.181 469.546 297.019 469.546 298.032V300.48C469.546 300.619 469.536 300.747 469.514 300.864H469.962V302H469.722L469.274 301.44H469.226C469.141 301.547 469.045 301.643 468.938 301.728C468.682 301.909 468.405 302 468.106 302H462.858V300.864H467.594C467.989 300.864 468.186 300.661 468.186 300.256V298.224C468.186 297.467 467.957 296.837 467.498 296.336C467.008 295.824 466.25 295.563 465.226 295.552C464.928 295.552 464.677 295.573 464.474 295.616V294.544ZM474.067 294.64V300.48C474.067 300.875 473.939 301.216 473.683 301.504C473.395 301.835 473.037 302 472.611 302H469.827V300.864H472.099C472.28 300.864 472.429 300.8 472.547 300.672C472.653 300.565 472.707 300.427 472.707 300.256V294.64H474.067ZM471.187 303.664C471.4 303.664 471.581 303.739 471.731 303.888C471.891 304.048 471.971 304.235 471.971 304.448C471.971 304.672 471.891 304.859 471.731 305.008C471.581 305.168 471.4 305.248 471.187 305.248C470.963 305.248 470.771 305.168 470.611 305.008C470.461 304.859 470.387 304.672 470.387 304.448C470.387 304.235 470.461 304.048 470.611 303.888C470.771 303.739 470.963 303.664 471.187 303.664ZM473.123 303.664C473.347 303.664 473.533 303.739 473.683 303.888C473.832 304.048 473.907 304.235 473.907 304.448C473.907 304.672 473.832 304.859 473.683 305.008C473.533 305.168 473.347 305.248 473.123 305.248C472.909 305.248 472.723 305.168 472.563 305.008C472.413 304.859 472.339 304.672 472.339 304.448C472.339 304.235 472.413 304.048 472.563 303.888C472.723 303.739 472.909 303.664 473.123 303.664ZM477.412 294.544C477.796 294.48 478.207 294.448 478.644 294.448C479.828 294.448 480.783 294.805 481.508 295.52C482.159 296.181 482.484 297.019 482.484 298.032V300.48C482.484 300.619 482.473 300.747 482.452 300.864H482.9V302H482.66L482.212 301.44H482.164C482.079 301.547 481.983 301.643 481.876 301.728C481.62 301.909 481.343 302 481.044 302H475.796V300.864H480.532C480.927 300.864 481.124 300.661 481.124 300.256V298.224C481.124 297.467 480.895 296.837 480.436 296.336C479.945 295.824 479.188 295.563 478.164 295.552C477.865 295.552 477.615 295.573 477.412 295.616V294.544ZM484.892 294.912C485.873 294.603 486.791 294.448 487.644 294.448C488.967 294.448 489.975 294.859 490.668 295.68C491.265 296.384 491.564 297.307 491.564 298.448V300.48C491.564 300.843 491.452 301.163 491.228 301.44C490.951 301.813 490.583 302 490.124 302H482.764V300.864H489.596C490.001 300.864 490.204 300.661 490.204 300.256V298.4C490.204 297.568 489.985 296.912 489.548 296.432C489.068 295.899 488.369 295.632 487.452 295.632C486.897 295.632 486.044 295.749 484.892 295.984V294.912ZM486.796 303.664C487.02 303.664 487.207 303.739 487.356 303.888C487.516 304.048 487.596 304.235 487.596 304.448C487.596 304.672 487.516 304.859 487.356 305.008C487.207 305.168 487.02 305.248 486.796 305.248C486.583 305.248 486.396 305.168 486.236 305.008C486.087 304.859 486.012 304.672 486.012 304.448C486.012 304.235 486.087 304.048 486.236 303.888C486.396 303.739 486.583 303.664 486.796 303.664ZM502.095 294.208C502.308 294.208 502.489 294.288 502.639 294.448C502.799 294.597 502.879 294.784 502.879 295.008C502.879 295.221 502.799 295.408 502.639 295.568C502.489 295.717 502.308 295.792 502.095 295.792C501.871 295.792 501.684 295.717 501.535 295.568C501.385 295.408 501.311 295.221 501.311 295.008C501.311 294.784 501.385 294.597 501.535 294.448C501.684 294.288 501.871 294.208 502.095 294.208ZM504.031 294.208C504.255 294.208 504.441 294.288 504.591 294.448C504.751 294.597 504.831 294.784 504.831 295.008C504.831 295.221 504.751 295.408 504.591 295.568C504.441 295.717 504.255 295.792 504.031 295.792C503.817 295.792 503.631 295.717 503.471 295.568C503.321 295.408 503.247 295.221 503.247 295.008C503.247 294.784 503.321 294.597 503.471 294.448C503.631 294.288 503.817 294.208 504.031 294.208ZM509.599 294.64V300.48C509.599 300.864 509.481 301.195 509.247 301.472C508.948 301.824 508.585 302 508.159 302H499.007C498.388 302 497.855 301.797 497.407 301.392C496.799 300.869 496.495 300.192 496.495 299.36V296.352L497.183 295.792H497.855V299.36C497.855 299.776 498.004 300.128 498.303 300.416C498.591 300.715 498.953 300.864 499.391 300.864H507.631C508.036 300.864 508.239 300.661 508.239 300.256V294.64H509.599ZM513.167 290.544V301.84L512.479 302.4H511.807V290.544H513.167ZM518.468 294.64V301.856C518.468 303.04 518.132 303.973 517.46 304.656C516.938 305.189 516.234 305.541 515.348 305.712C515.007 305.776 514.634 305.808 514.228 305.808C513.972 305.808 513.727 305.803 513.492 305.792L512.964 305.136V304.624C513.274 304.667 513.61 304.688 513.972 304.688C516.063 304.688 517.108 303.728 517.108 301.808V294.64H518.468ZM522.058 290.544V300.256C522.058 300.427 522.111 300.571 522.218 300.688C522.335 300.805 522.484 300.864 522.666 300.864H522.874V302H522.138C521.796 302 521.498 301.888 521.242 301.664C520.879 301.355 520.698 300.96 520.698 300.48V290.544H522.058ZM524.988 297.248C525.361 296.309 525.985 295.579 526.86 295.056C527.564 294.651 528.295 294.448 529.052 294.448C529.809 294.448 530.535 294.651 531.228 295.056C532.113 295.579 532.737 296.309 533.1 297.248L532.956 297.632C532.22 297.941 531.617 298.363 531.148 298.896C530.668 299.451 530.364 300.107 530.236 300.864H533.26V302H530.012C529.692 302 529.383 301.845 529.084 301.536H529.036C528.748 301.845 528.439 302 528.108 302H522.764V300.864H527.868C527.751 300.213 527.484 299.6 527.068 299.024C526.588 298.427 525.948 297.963 525.148 297.632L524.988 297.248ZM531.628 297.088C531.276 296.576 530.876 296.192 530.428 295.936C530.001 295.712 529.543 295.6 529.052 295.6C528.561 295.6 528.119 295.701 527.724 295.904C527.255 296.139 526.839 296.533 526.476 297.088C527.031 297.333 527.505 297.68 527.9 298.128C528.391 298.683 528.764 299.376 529.02 300.208H529.068C529.335 299.344 529.719 298.635 530.22 298.08C530.625 297.653 531.095 297.323 531.628 297.088ZM542.947 289.584C543.16 289.584 543.336 289.659 543.475 289.808C543.624 289.957 543.699 290.133 543.699 290.336C543.699 290.539 543.624 290.715 543.475 290.864C543.336 291.013 543.16 291.088 542.947 291.088C542.744 291.088 542.568 291.013 542.419 290.864C542.269 290.715 542.195 290.539 542.195 290.336C542.195 290.133 542.269 289.957 542.419 289.808C542.568 289.659 542.744 289.584 542.947 289.584ZM541.971 291.12C542.195 291.12 542.381 291.2 542.531 291.36C542.691 291.509 542.771 291.691 542.771 291.904C542.771 292.128 542.691 292.32 542.531 292.48C542.381 292.629 542.195 292.704 541.971 292.704C541.757 292.704 541.571 292.629 541.411 292.48C541.261 292.32 541.187 292.128 541.187 291.904C541.187 291.691 541.261 291.509 541.411 291.36C541.571 291.2 541.757 291.12 541.971 291.12ZM543.923 291.12C544.136 291.12 544.317 291.2 544.467 291.36C544.627 291.509 544.707 291.691 544.707 291.904C544.707 292.128 544.627 292.32 544.467 292.48C544.317 292.629 544.136 292.704 543.923 292.704C543.709 292.704 543.523 292.629 543.363 292.48C543.213 292.32 543.139 292.128 543.139 291.904C543.139 291.691 543.213 291.509 543.363 291.36C543.523 291.2 543.709 291.12 543.923 291.12ZM548.371 294.64V300.48C548.371 300.896 548.227 301.253 547.939 301.552C547.661 301.851 547.325 302 546.931 302H543.843L543.331 301.44H543.283C542.984 301.813 542.611 302 542.163 302H539.091L538.563 301.44H538.515C538.216 301.813 537.843 302 537.395 302H533.155V300.864H536.867C537.272 300.864 537.475 300.661 537.475 300.256V296.48H538.835V300.48C538.835 300.619 538.824 300.747 538.803 300.864H541.635C542.04 300.864 542.243 300.661 542.243 300.256V295.552H543.603V300.48C543.603 300.619 543.587 300.747 543.555 300.864H546.403C546.808 300.864 547.011 300.661 547.011 300.256V294.64H548.371ZM551.933 290.544V301.84L551.245 302.4H550.573V290.544H551.933ZM567.345 290.544V300.864H568.161V302H567.345C567.313 303.205 566.923 304.144 566.177 304.816C565.419 305.488 564.395 305.824 563.105 305.824H561.329C560.059 305.824 559.046 305.499 558.289 304.848C557.478 304.155 557.073 303.157 557.073 301.856V298.512L557.761 297.952H558.433V301.824C558.433 302.891 558.71 303.632 559.265 304.048C559.83 304.475 560.811 304.688 562.209 304.688C563.542 304.688 564.481 304.507 565.025 304.144C565.665 303.707 565.985 302.933 565.985 301.824V290.544H567.345ZM572.238 298.16C573.71 295.685 575.64 294.448 578.03 294.448C579.299 294.448 580.318 294.843 581.086 295.632C581.779 296.347 582.126 297.253 582.126 298.352V300.48C582.126 300.619 582.11 300.747 582.078 300.864H582.638V302H582.302L581.854 301.44H581.806C581.507 301.813 581.134 302 580.686 302H568.03V300.864H570.91L570.894 294.64H572.254L572.238 298.16ZM580.766 298.208C580.755 297.355 580.44 296.693 579.822 296.224C579.31 295.819 578.638 295.616 577.806 295.616C576.974 295.616 576.195 295.845 575.47 296.304C574.126 297.147 573.048 298.667 572.238 300.864H580.158C580.563 300.864 580.766 300.661 580.766 300.256V298.208ZM584.178 291.12C584.402 291.12 584.588 291.2 584.738 291.36C584.887 291.509 584.962 291.691 584.962 291.904C584.962 292.128 584.887 292.32 584.738 292.48C584.588 292.629 584.402 292.704 584.178 292.704C583.964 292.704 583.778 292.629 583.618 292.48C583.468 292.32 583.394 292.128 583.394 291.904C583.394 291.691 583.468 291.509 583.618 291.36C583.778 291.2 583.964 291.12 584.178 291.12ZM586.13 291.12C586.343 291.12 586.524 291.2 586.674 291.36C586.834 291.509 586.914 291.691 586.914 291.904C586.914 292.128 586.834 292.32 586.674 292.48C586.524 292.629 586.343 292.704 586.13 292.704C585.906 292.704 585.714 292.629 585.554 292.48C585.404 292.32 585.33 292.128 585.33 291.904C585.33 291.691 585.404 291.509 585.554 291.36C585.714 291.2 585.906 291.12 586.13 291.12ZM586.77 294.64V300.48C586.77 300.875 586.642 301.216 586.386 301.504C586.098 301.835 585.74 302 585.314 302H582.53V300.864H584.802C584.983 300.864 585.132 300.8 585.25 300.672C585.356 300.565 585.41 300.427 585.41 300.256V294.64H586.77ZM593.417 290.544V300.256C593.417 300.427 593.47 300.571 593.577 300.688C593.694 300.805 593.844 300.864 594.025 300.864H594.233V302H593.497C593.156 302 592.857 301.888 592.601 301.664C592.238 301.355 592.057 300.96 592.057 300.48V290.544H593.417ZM597.004 297.36C597.004 296.272 597.388 295.472 598.156 294.96C598.657 294.629 599.324 294.464 600.156 294.464C601.169 294.464 602.017 294.811 602.7 295.504C603.382 296.197 603.724 297.168 603.724 298.416C603.724 299.579 603.382 300.56 602.7 301.36C602.06 302.107 601.249 302.48 600.268 302.48C599.35 302.48 598.604 302.133 598.028 301.44C597.74 301.813 597.356 302 596.876 302H594.123V300.864H596.396C596.566 300.864 596.71 300.805 596.828 300.688C596.945 300.571 597.004 300.427 597.004 300.256V297.36ZM598.364 300.496C598.918 301.061 599.532 301.344 600.204 301.344C600.844 301.344 601.361 301.083 601.756 300.56C602.161 300.027 602.364 299.339 602.364 298.496C602.364 297.557 602.129 296.816 601.66 296.272C601.265 295.824 600.742 295.6 600.092 295.6C599.601 295.6 599.201 295.744 598.891 296.032C598.54 296.363 598.364 296.805 598.364 297.36V300.496ZM606.709 294.544C607.093 294.48 607.503 294.448 607.941 294.448C609.125 294.448 610.079 294.805 610.805 295.52C611.455 296.181 611.781 297.019 611.781 298.032V300.48C611.781 300.619 611.77 300.747 611.749 300.864H612.197V302H611.957L611.509 301.44H611.461C611.375 301.547 611.279 301.643 611.173 301.728C610.917 301.909 610.639 302 610.341 302H605.093V300.864H609.829C610.223 300.864 610.421 300.661 610.421 300.256V298.224C610.421 297.467 610.191 296.837 609.733 296.336C609.242 295.824 608.485 295.563 607.461 295.552C607.162 295.552 606.911 295.573 606.709 295.616V294.544ZM615.613 291.12C615.837 291.12 616.024 291.2 616.173 291.36C616.333 291.509 616.413 291.691 616.413 291.904C616.413 292.128 616.333 292.32 616.173 292.48C616.024 292.629 615.837 292.704 615.613 292.704C615.4 292.704 615.213 292.629 615.053 292.48C614.904 292.32 614.829 292.128 614.829 291.904C614.829 291.691 614.904 291.509 615.053 291.36C615.213 291.2 615.4 291.12 615.613 291.12ZM616.301 294.64V300.48C616.301 300.608 616.285 300.736 616.253 300.864H617.101V302H616.477L616.013 301.44H615.965C615.677 301.813 615.304 302 614.845 302H612.061V300.864H614.333C614.504 300.864 614.642 300.811 614.749 300.704C614.877 300.587 614.941 300.437 614.941 300.256V294.64H616.301ZM620.487 300.864C619.794 300.149 619.447 299.232 619.447 298.112C619.447 296.917 619.842 295.979 620.631 295.296C621.292 294.731 622.146 294.448 623.191 294.448C623.756 294.448 624.348 294.539 624.967 294.72V295.792C624.338 295.632 623.788 295.552 623.319 295.552C622.53 295.552 621.911 295.797 621.463 296.288C621.026 296.768 620.807 297.435 620.807 298.288C620.807 298.981 621.042 299.595 621.511 300.128C621.948 300.619 622.455 300.864 623.031 300.864H626.263V301.312L625.703 302H616.983V300.864H620.487ZM644.083 290.544V300.48C644.083 300.907 643.934 301.269 643.635 301.568C643.347 301.856 643.016 302 642.643 302H633.491C632.798 302 632.206 301.749 631.715 301.248C631.224 300.725 630.979 300.096 630.979 299.36V296.352L631.667 295.792H632.339V299.36C632.339 299.797 632.499 300.16 632.819 300.448C633.118 300.725 633.47 300.864 633.875 300.864H642.115C642.296 300.864 642.446 300.805 642.563 300.688C642.67 300.571 642.723 300.427 642.723 300.256V290.544H644.083ZM636.451 295.792C636.152 295.355 636.003 294.875 636.003 294.352C636.003 293.733 636.195 293.248 636.579 292.896C636.974 292.544 637.507 292.368 638.179 292.368C638.446 292.368 638.707 292.395 638.963 292.448V293.184C638.739 293.109 638.51 293.072 638.275 293.072C637.379 293.072 636.931 293.499 636.931 294.352C636.931 294.779 637.032 295.125 637.235 295.392C637.448 295.659 637.72 295.792 638.051 295.792H639.843V296.144L639.507 296.56H635.187V295.792H636.451ZM649.39 294.64V300.864H650.206V302H649.39C649.358 303.333 648.883 304.331 647.966 304.992C647.23 305.536 646.275 305.808 645.102 305.808C644.921 305.808 644.691 305.803 644.414 305.792L643.886 305.136V304.624C644.195 304.667 644.531 304.688 644.894 304.688C646.985 304.688 648.03 303.728 648.03 301.808V294.64H649.39ZM654.332 294.64V300.48C654.332 300.608 654.316 300.736 654.284 300.864H655.132V302H654.508L654.044 301.44H653.996C653.708 301.813 653.335 302 652.876 302H650.092V300.864H652.364C652.535 300.864 652.674 300.811 652.78 300.704C652.908 300.587 652.972 300.437 652.972 300.256V294.64H654.332ZM653.532 303.664C653.756 303.664 653.943 303.739 654.092 303.888C654.252 304.048 654.332 304.235 654.332 304.448C654.332 304.672 654.252 304.859 654.092 305.008C653.943 305.168 653.756 305.248 653.532 305.248C653.319 305.248 653.132 305.168 652.972 305.008C652.823 304.859 652.748 304.672 652.748 304.448C652.748 304.235 652.823 304.048 652.972 303.888C653.132 303.739 653.319 303.664 653.532 303.664ZM660.07 291.12C660.294 291.12 660.481 291.2 660.63 291.36C660.779 291.509 660.854 291.691 660.854 291.904C660.854 292.128 660.779 292.32 660.63 292.48C660.481 292.629 660.294 292.704 660.07 292.704C659.857 292.704 659.67 292.629 659.51 292.48C659.361 292.32 659.286 292.128 659.286 291.904C659.286 291.691 659.361 291.509 659.51 291.36C659.67 291.2 659.857 291.12 660.07 291.12ZM657.142 294.912C658.123 294.603 659.041 294.448 659.894 294.448C661.217 294.448 662.225 294.859 662.918 295.68C663.515 296.384 663.814 297.307 663.814 298.448V300.48C663.814 300.608 663.798 300.736 663.766 300.864H664.326V302H663.99L663.542 301.44H663.494C663.195 301.813 662.822 302 662.374 302H655.014V300.864H661.846C662.251 300.864 662.454 300.661 662.454 300.256V298.4C662.454 297.568 662.235 296.912 661.798 296.432C661.318 295.899 660.619 295.632 659.702 295.632C659.147 295.632 658.294 295.749 657.142 295.984V294.912ZM667.769 291.12C667.993 291.12 668.18 291.2 668.329 291.36C668.489 291.509 668.569 291.691 668.569 291.904C668.569 292.128 668.489 292.32 668.329 292.48C668.18 292.629 667.993 292.704 667.769 292.704C667.556 292.704 667.369 292.629 667.209 292.48C667.06 292.32 666.985 292.128 666.985 291.904C666.985 291.691 667.06 291.509 667.209 291.36C667.369 291.2 667.556 291.12 667.769 291.12ZM668.457 294.64V300.48C668.457 300.608 668.441 300.736 668.409 300.864H669.257V302H668.633L668.169 301.44H668.121C667.833 301.813 667.46 302 667.001 302H664.217V300.864H666.489C666.66 300.864 666.799 300.811 666.905 300.704C667.033 300.587 667.097 300.437 667.097 300.256V294.64H668.457ZM684.355 294.64V300.48C684.355 300.896 684.211 301.253 683.923 301.552C683.646 301.851 683.31 302 682.915 302H679.827L679.315 301.44H679.267C678.968 301.813 678.595 302 678.147 302H675.075L674.547 301.44H674.499C674.2 301.813 673.827 302 673.379 302H669.139V300.864H672.851C673.256 300.864 673.459 300.661 673.459 300.256V296.48H674.819V300.48C674.819 300.619 674.808 300.747 674.787 300.864H677.619C678.024 300.864 678.227 300.661 678.227 300.256V295.552H679.587V300.48C679.587 300.619 679.571 300.747 679.539 300.864H682.387C682.792 300.864 682.995 300.661 682.995 300.256V294.64H684.355Z" fill="#616161"/>
</svg>
