<svg width="28" height="24" viewBox="0 0 28 24" fill="none" xmlns="http://www.w3.org/2000/svg">
<g clip-path="url(#clip0_11087_18149)">
<path fill-rule="evenodd" clip-rule="evenodd" d="M11.4646 4.54483C10.9405 5.07255 10.9291 5.92379 11.4418 6.44005L11.7175 6.71768L9.49587 8.91806L15.115 14.372L17.2797 12.1142L25.7175 20.6106C26.228 21.1246 27.0756 21.1154 27.5997 20.5877C28.1238 20.0599 28.1352 19.2087 27.6225 18.6924L19.1528 10.1639L20.8481 8.39033L15.5366 2.93412L13.6339 4.81328L13.3422 4.51959C12.8341 4.00563 11.9887 4.0171 11.4646 4.54483ZM0.000749588 22.9188C0.000749588 23.5131 0.470148 23.9995 1.04665 23.9995L13.1257 24.0018C13.7022 24.0018 14.1716 23.5154 14.1716 22.9211C14.1716 22.3383 13.7114 21.8404 13.1257 21.8404H11.8383C12.1619 21.6569 12.3829 21.3012 12.3829 20.8928C12.3829 20.31 11.9226 19.8121 11.337 19.8121H2.83766C2.26117 19.8098 1.78949 20.2963 1.78949 20.8905C1.78949 21.2989 2.01279 21.6569 2.33864 21.8404H1.04893C0.47015 21.8381 0.000749588 22.3246 0.000749588 22.9188ZM15.769 0.320736C15.352 0.740621 15.3429 1.41978 15.7507 1.82819L21.9487 8.06911C22.3565 8.47982 23.0287 8.47064 23.4457 8.05075C23.8627 7.63087 23.8718 6.95171 23.464 6.5433L17.266 0.30238C16.8582 -0.108327 16.186 -0.0991496 15.769 0.320736ZM6.95745 9.1911C6.54046 9.61098 6.53135 10.2901 6.93922 10.6986L13.1371 16.9395C13.545 17.3502 14.2172 17.341 14.6342 16.9211C15.0512 16.5012 15.0603 15.8221 14.6524 15.4137L8.45452 9.17274C8.04893 8.76203 7.37673 8.77121 6.95745 9.1911Z" fill="#2E353F"/>
</g>
<defs>
<clipPath id="clip0_11087_18149">
<rect width="28" height="24" fill="white" transform="matrix(-1 0 0 1 28 0)"/>
</clipPath>
</defs>
</svg>
