<svg width="32" height="33" viewBox="0 0 32 33" fill="none" xmlns="http://www.w3.org/2000/svg">
<path d="M16.0273 4.38013C11.6139 4.38013 8.02727 7.96679 8.02727 12.3801V16.2335C8.02727 17.0468 7.68061 18.2868 7.26727 18.9801L5.73394 21.5268C4.78727 23.1001 5.44061 24.8468 7.17394 25.4335C12.9206 27.3535 19.1206 27.3535 24.8673 25.4335C26.4806 24.9001 27.1873 22.9935 26.3073 21.5268L24.7739 18.9801C24.3739 18.2868 24.0273 17.0468 24.0273 16.2335V12.3801C24.0273 7.98013 20.4273 4.38013 16.0273 4.38013Z" stroke="white" stroke-width="1.8" stroke-miterlimit="10" stroke-linecap="round"/>
<path d="M18.4929 4.76667C18.0796 4.64667 17.6529 4.55334 17.2129 4.5C15.9329 4.34 14.7062 4.43334 13.5596 4.76667C13.9462 3.78 14.9062 3.08667 16.0262 3.08667C17.1462 3.08667 18.1062 3.78 18.4929 4.76667Z" stroke="white" stroke-width="1.8" stroke-miterlimit="10" stroke-linecap="round" stroke-linejoin="round"/>
<path d="M20.0269 25.9133C20.0269 28.1133 18.2269 29.9133 16.0269 29.9133C14.9335 29.9133 13.9202 29.46 13.2002 28.74C12.4802 28.02 12.0269 27.0067 12.0269 25.9133" stroke="white" stroke-width="1.8" stroke-miterlimit="10"/>
</svg>
