<svg width="56" height="56" viewBox="0 0 56 56" fill="none" xmlns="http://www.w3.org/2000/svg">
<path d="M28 0.5C43.1878 0.5 55.5 12.8122 55.5 28C55.5 43.1878 43.1878 55.5 28 55.5C12.8122 55.5 0.5 43.1878 0.5 28C0.5 12.8122 12.8122 0.5 28 0.5Z" stroke="#EEEEEE"/>
<path d="M30.3889 36.8574C29.0247 38.3721 26.8967 38.3901 25.5195 36.8574" stroke="#2E353F" stroke-width="1.5" stroke-linecap="round" stroke-linejoin="round"/>
<path fill-rule="evenodd" clip-rule="evenodd" d="M28 33.8476C33.6392 33.8476 36.2481 33.1242 36.5 30.2205C36.5 27.3188 34.6812 27.5054 34.6812 23.9451C34.6812 21.1641 32.0452 18 28 18C23.9548 18 21.3188 21.1641 21.3188 23.9451C21.3188 27.5054 19.5 27.3188 19.5 30.2205C19.753 33.1352 22.3618 33.8476 28 33.8476Z" stroke="#2E353F" stroke-width="1.5" stroke-linecap="round" stroke-linejoin="round"/>
</svg>
