<svg width="32" height="32" viewBox="0 0 32 32" fill="none" xmlns="http://www.w3.org/2000/svg">
<g id="vuesax/linear/notification">
<g id="notification">
<path id="Vector" d="M16.0268 3.88C11.6135 3.88 8.02678 7.46667 8.02678 11.88V15.7333C8.02678 16.5467 7.68012 17.7867 7.26678 18.48L5.73345 21.0267C4.78678 22.6 5.44012 24.3467 7.17345 24.9333C12.9201 26.8533 19.1201 26.8533 24.8668 24.9333C26.4801 24.4 27.1868 22.4933 26.3068 21.0267L24.7734 18.48C24.3734 17.7867 24.0268 16.5467 24.0268 15.7333V11.88C24.0268 7.48 20.4268 3.88 16.0268 3.88Z" stroke="black" stroke-width="1.8" stroke-miterlimit="10" stroke-linecap="round"/>
<path id="Vector_2" d="M18.4939 4.26665C18.0805 4.14665 17.6539 4.05332 17.2139 3.99999C15.9339 3.83999 14.7072 3.93332 13.5605 4.26665C13.9472 3.27999 14.9072 2.58665 16.0272 2.58665C17.1472 2.58665 18.1072 3.27999 18.4939 4.26665Z" stroke="black" stroke-width="1.8" stroke-miterlimit="10" stroke-linecap="round" stroke-linejoin="round"/>
<path id="Vector_3" d="M20.0254 25.4133C20.0254 27.6133 18.2254 29.4133 16.0254 29.4133C14.9321 29.4133 13.9187 28.96 13.1987 28.24C12.4787 27.52 12.0254 26.5067 12.0254 25.4133" stroke="black" stroke-width="1.8" stroke-miterlimit="10"/>
</g>
</g>
</svg>
