<svg width="23" height="28" viewBox="0 0 23 28" fill="none" xmlns="http://www.w3.org/2000/svg">
<path d="M14.0983 16.1636C14.7749 15.6845 14.9972 14.7812 14.62 14.0428L14.569 13.9431C14.4612 13.732 14.203 13.6484 13.9919 13.7562C12.7047 14.6862 11.3074 15.4535 9.83194 16.0409L8.42789 16.5997L8.27334 16.5583L6.06359 15.9662L4.74521 20.8865L5.72202 21.1482C5.98011 21.2173 6.1764 21.4272 6.22831 21.6892C6.40263 22.5697 7.06225 23.2744 7.92919 23.5067L12.1412 24.6353L13.9013 18.0664L12.0948 17.5824L14.0983 16.1636Z" fill="white"/>
<path d="M13.9007 18.0661L12.1408 24.6344L8.38522 23.6281C9.20174 23.5227 9.91214 22.9391 10.1383 22.095C10.3626 21.2581 10.0463 20.4038 9.4034 19.903C9.28113 19.8081 9.335 19.6071 9.48832 19.5861C10.2332 19.4825 10.8878 18.9785 11.1603 18.2433C11.1832 18.1828 11.2035 18.1195 11.2208 18.0552C11.2785 17.8399 11.3008 17.6237 11.2888 17.4118C11.2886 17.3963 11.2883 17.3806 11.2868 17.3658L13.9007 18.0662L13.9007 18.0661Z" fill="#D1D3D4"/>
<path d="M6.36787 21.17C6.31596 20.9079 6.11966 20.6981 5.86158 20.6289L4.88477 20.3672L4.74597 20.8852L5.72278 21.1469C5.98087 21.2161 6.17716 21.4259 6.22907 21.688C6.4034 22.5684 7.06302 23.2731 7.92995 23.5054L12.1419 24.634L12.2807 24.116L8.06874 22.9875C7.20181 22.7552 6.54219 22.0504 6.36787 21.17Z" fill="#D1D3D4"/>
<path d="M6.78951 16.1601L6.06445 15.9658L4.74611 20.8859L5.47117 21.0802L6.78951 16.1601Z" fill="#D1D3D4"/>
<path d="M1.58605 20.7609L4.14972 21.4479C4.37853 21.5092 4.61372 21.3734 4.67503 21.1446L6.11134 15.7842C6.17265 15.5554 6.03686 15.3202 5.80805 15.2589L3.24438 14.5719C3.01557 14.5106 2.78038 14.6464 2.71907 14.8752L1.28276 20.2356C1.22145 20.4644 1.35724 20.6996 1.58605 20.7609Z" fill="#00DB81"/>
<path d="M4.42751 20.4134L1.86384 19.7265C1.63503 19.6652 1.49924 19.43 1.56055 19.2012L1.283 20.237C1.22169 20.4658 1.35748 20.701 1.58629 20.7623L4.14996 21.4492C4.37877 21.5105 4.61396 21.3748 4.67527 21.146L4.95282 20.1101C4.89166 20.339 4.65647 20.4748 4.42751 20.4134Z" fill="#EAEAEA"/>
<path d="M14.0982 16.1634L12.0937 17.5825L11.1604 18.2438C11.1832 18.1833 11.2036 18.12 11.2208 18.0557C11.2785 17.8404 11.3008 17.6242 11.2889 17.4123L11.3354 17.3794L13.7947 15.6381C14.392 15.2153 14.6339 14.4619 14.424 13.7828C14.4821 13.8228 14.5335 13.8754 14.5686 13.9437L14.6196 14.043C14.997 14.7813 14.775 15.6843 14.0982 16.1634Z" fill="#E6E7E8"/>
<path d="M3.08424 20.299C3.51686 20.4149 3.96153 20.1582 4.07745 19.7256C4.19337 19.2929 3.93664 18.8483 3.50402 18.7324C3.07141 18.6164 2.62673 18.8732 2.51081 19.3058C2.39489 19.7384 2.65163 20.1831 3.08424 20.299Z" fill="#023936"/>
<path d="M9.81182 25.6271L11.5151 26.0835C11.6818 26.1281 11.8531 26.0293 11.8978 25.8625L15.2679 13.2851L12.9609 12.667L9.59085 25.2443C9.54616 25.4111 9.64505 25.5824 9.81182 25.6271Z" fill="#0E8340"/>
<path d="M14.1144 12.9754L10.7442 25.5529C10.6996 25.7195 10.5281 25.8185 10.3615 25.7739L11.515 26.083C11.6818 26.1277 11.8531 26.0286 11.8978 25.862L15.2679 13.2845L14.1144 12.9754Z" fill="url(#paint0_linear_8942_52966)"/>
<path d="M13.3814 15.7164C16.8405 16.6433 20.396 14.5905 21.3229 11.1314C22.2497 7.67233 20.1969 4.11681 16.7378 3.18995C13.2788 2.26309 9.72324 4.31587 8.79638 7.77496C7.86952 11.234 9.9223 14.7896 13.3814 15.7164Z" fill="#00DB81"/>
<path d="M13.5472 12.9452C13.2407 12.8631 12.9789 12.6623 12.8201 12.3873L11.1646 9.52026C10.8337 8.94775 11.0299 8.21545 11.6029 7.88465C12.1758 7.55385 12.9077 7.74995 13.2385 8.32291L14.2955 10.1526L18.0041 8.01117C18.5771 7.68037 19.309 7.87647 19.6398 8.44943C19.9707 9.02194 19.7745 9.75425 19.2015 10.085L14.4559 12.8256C14.1807 12.9843 13.8544 13.0275 13.5472 12.9452Z" fill="white"/>
<path d="M13.6781 12.4531C13.3715 12.3709 13.1098 12.1701 12.951 11.8951L11.2955 9.02807C10.9646 8.45557 11.1608 7.72326 11.7337 7.39246C12.3067 7.06166 13.0386 7.25776 13.3694 7.83072L14.4264 9.66042L18.135 7.51898C18.708 7.18818 19.4398 7.38428 19.7706 7.95724C20.1015 8.52975 19.9053 9.26206 19.3324 9.59286L14.5868 12.3334C14.3116 12.4921 13.9852 12.5354 13.6781 12.4531Z" fill="#EAEAEA"/>
<path d="M19.7496 8.03326L15.004 10.7738C14.729 10.9325 14.4026 10.9758 14.0953 10.8935C13.7888 10.8113 13.527 10.6105 13.3682 10.3355L11.7127 7.46848C11.704 7.45336 11.6996 7.43699 11.6916 7.42158C11.1534 7.76396 10.973 8.46977 11.2951 9.02712L12.9506 11.8941C13.1094 12.1691 13.3712 12.37 13.6777 12.4521C13.985 12.5344 14.3112 12.4911 14.5864 12.3324L19.332 9.5919C19.8898 9.26998 20.0863 8.56835 19.7913 8.00319C19.7767 8.01238 19.7648 8.02438 19.7496 8.03326Z" fill="white"/>
<path d="M12.0626 25.244L12.4941 23.6336C12.4465 23.6107 12.3969 23.5907 12.3439 23.5765L12.4983 23.6179L13.8184 18.6913L12.5309 18.3463C12.1157 18.2351 11.6906 18.4518 11.5286 18.8374C11.5272 18.8408 11.5255 18.844 11.5243 18.8474C11.5111 18.8798 11.4993 18.9129 11.49 18.9474C11.4748 19.0042 11.4658 19.061 11.4625 19.1173C11.4607 19.1455 11.4605 19.1736 11.4616 19.2014C11.4666 19.326 11.4999 19.4461 11.5555 19.5544C11.5744 19.5914 11.595 19.6273 11.6191 19.6611C11.6822 19.7497 11.7625 19.8267 11.8569 19.8863C11.9276 19.9309 12.0061 19.9659 12.0912 19.9887L11.8927 19.9355C11.511 19.8332 11.1211 20.0084 10.9345 20.3368C10.9182 20.3656 10.9034 20.3953 10.8905 20.4263C10.889 20.4298 10.8873 20.4332 10.8859 20.4367C10.8727 20.4689 10.8609 20.5021 10.8517 20.5365C10.8365 20.5933 10.8274 20.6501 10.8241 20.7065C10.8174 20.8192 10.8334 20.9301 10.8689 21.0331C10.8778 21.0589 10.8879 21.0843 10.8992 21.109C10.9105 21.1337 10.923 21.1579 10.9366 21.1814C10.9502 21.205 10.9649 21.2279 10.9806 21.25C10.9964 21.2722 11.0133 21.2936 11.0312 21.3142C11.1385 21.4379 11.2827 21.5319 11.4528 21.5774L11.6512 21.6306C11.236 21.5194 10.8109 21.7361 10.6489 22.1217C10.6475 22.125 10.6458 22.1283 10.6445 22.1319C10.6313 22.1642 10.6196 22.1973 10.6103 22.2319C10.5647 22.402 10.5742 22.5739 10.6275 22.7286C10.6364 22.7544 10.6465 22.7798 10.6578 22.8045C10.6805 22.8539 10.7077 22.9013 10.7394 22.9455C10.8025 23.0341 10.8828 23.1111 10.9772 23.1707C11.0479 23.2154 11.1263 23.2503 11.2115 23.2731L11.6172 23.3818C11.2353 23.2795 10.8454 23.4547 10.6589 23.7831C10.6426 23.8119 10.6278 23.8418 10.6148 23.8729C10.6134 23.8762 10.6117 23.8795 10.6103 23.8829C10.5973 23.9153 10.5854 23.9483 10.5761 23.9829C10.5609 24.0395 10.5518 24.0964 10.5485 24.1528C10.5401 24.2937 10.5672 24.4315 10.6238 24.5554C10.6464 24.6049 10.6737 24.6522 10.7054 24.6964C10.7211 24.7186 10.738 24.74 10.7559 24.7606C10.8632 24.8843 11.0074 24.9783 11.1775 25.0239L11.9047 25.2187C11.9568 25.2331 12.0097 25.2402 12.0626 25.244Z" fill="#00DB81"/>
<path d="M14.2915 19.93L12.2521 19.3836C11.7986 19.2621 11.5296 18.7959 11.6511 18.3425C11.7726 17.889 12.2388 17.62 12.6921 17.7415L14.7315 18.2879C15.185 18.4095 15.454 18.8756 15.3325 19.329C15.2111 19.7824 14.745 20.0516 14.2915 19.93Z" fill="white"/>
<path d="M14.4011 19.5152L12.3618 18.9688C11.9799 18.8665 11.7299 18.5198 11.7325 18.1421C11.6976 18.2038 11.6688 18.2701 11.6496 18.342C11.528 18.7955 11.7972 19.2616 12.2506 19.383L14.29 19.9295C14.7435 20.051 15.2095 19.7818 15.331 19.3284C15.3502 19.2567 15.3586 19.1849 15.3592 19.1139C15.1729 19.4423 14.783 19.6175 14.4011 19.5152Z" fill="#E6E7E8"/>
<path d="M14.3821 21.7143L11.6135 20.9725C11.1599 20.8509 10.8909 20.3848 11.0124 19.9314C11.1339 19.4779 11.6001 19.2089 12.0535 19.3304L14.8221 20.0722C15.2756 20.1937 15.5446 20.6599 15.4232 21.1133C15.3018 21.5667 14.8356 21.8358 14.3821 21.7143Z" fill="white"/>
<path d="M14.4937 21.2995L11.725 20.5577C11.3432 20.4553 11.0932 20.1086 11.0958 19.731C11.0609 19.7926 11.0321 19.859 11.0128 19.9309C10.8913 20.3844 11.1605 20.8504 11.6139 20.9719L14.3825 21.7138C14.8361 21.8353 15.3021 21.5661 15.4236 21.1127C15.4428 21.041 15.4512 20.9692 15.4516 20.8981C15.2654 21.2266 14.8755 21.4018 14.4937 21.2995Z" fill="#E6E7E8"/>
<path d="M13.2941 23.183L11.3713 22.6678C10.9177 22.5462 10.6487 22.0801 10.7702 21.6267C10.8918 21.1732 11.3579 20.9042 11.8113 21.0257L13.7341 21.5409C14.1877 21.6624 14.4567 22.1285 14.3352 22.5819C14.2137 23.0353 13.7477 23.3045 13.2941 23.183Z" fill="white"/>
<path d="M13.4057 22.7682L11.4829 22.253C11.101 22.1506 10.851 21.804 10.8536 21.4263C10.8187 21.488 10.7899 21.5545 10.7706 21.6262C10.6491 22.0797 10.9183 22.5459 11.3717 22.6674L13.2945 23.1826C13.748 23.3041 14.2141 23.0349 14.3356 22.5814C14.3548 22.5097 14.3632 22.4379 14.3636 22.3668C14.1774 22.6953 13.7875 22.8705 13.4057 22.7682Z" fill="#E6E7E8"/>
<path d="M12.0653 24.6136L11.3381 24.4187C10.8845 24.2972 10.6155 23.8311 10.737 23.3777C10.8586 22.9242 11.3247 22.6552 11.7781 22.7766L12.5053 22.9715C12.9588 23.093 13.2278 23.5591 13.1063 24.0125C12.9848 24.4659 12.5188 24.7351 12.0653 24.6136Z" fill="white"/>
<path d="M12.175 24.2018L11.4477 24.0069C11.066 23.9046 10.8158 23.5579 10.8185 23.1802C10.7835 23.2419 10.7547 23.3082 10.7355 23.3801C10.614 23.8336 10.8832 24.2996 11.3365 24.4211L12.0639 24.616C12.5174 24.7375 12.9834 24.4684 13.1049 24.015C13.1241 23.9433 13.1325 23.8714 13.133 23.8004C12.9468 24.1289 12.5569 24.3041 12.175 24.2018Z" fill="#E6E7E8"/>
<defs>
<linearGradient id="paint0_linear_8942_52966" x1="13.5424" y1="19.7242" x2="12.087" y2="19.3342" gradientUnits="userSpaceOnUse">
<stop stop-color="#023936"/>
<stop offset="1" stop-color="#008079"/>
</linearGradient>
</defs>
</svg>
