<svg width="33" height="32" viewBox="0 0 33 32" fill="none" xmlns="http://www.w3.org/2000/svg">
<path d="M3.39844 14.6667C3.39844 10.8954 3.39844 9.0098 4.57001 7.83823C5.74158 6.66666 7.6272 6.66666 11.3984 6.66666H18.0651C21.8363 6.66666 23.722 6.66666 24.8935 7.83823C26.0651 9.0098 26.0651 10.8954 26.0651 14.6667C26.0651 18.4379 26.0651 20.3235 24.8935 21.4951C23.722 22.6667 21.8363 22.6667 18.0651 22.6667H11.3984C7.6272 22.6667 5.74158 22.6667 4.57001 21.4951C3.39844 20.3235 3.39844 18.4379 3.39844 14.6667Z" stroke="#2E353F" stroke-width="1.5"/>
<path d="M26.0652 10.7682C27.3653 10.8961 28.2404 11.1851 28.8936 11.8383C30.0652 13.0099 30.0652 14.8955 30.0652 18.6667C30.0652 22.438 30.0652 24.3236 28.8936 25.4952C27.722 26.6667 25.8364 26.6667 22.0652 26.6667H15.3985C11.6273 26.6667 9.74166 26.6667 8.57009 25.4952C7.91689 24.842 7.62788 23.9668 7.5 22.6667" stroke="#2E353F" stroke-width="1.5"/>
<path d="M18.0651 14.6667C18.0651 16.5076 16.5727 18 14.7318 18C12.8908 18 11.3984 16.5076 11.3984 14.6667C11.3984 12.8257 12.8908 11.3333 14.7318 11.3333C16.5727 11.3333 18.0651 12.8257 18.0651 14.6667Z" stroke="#22A06B" stroke-width="1.5"/>
<path d="M22.0664 17.3333L22.0664 12" stroke="#22A06B" stroke-width="1.5" stroke-linecap="round"/>
<path d="M7.39844 17.3333L7.39844 12" stroke="#22A06B" stroke-width="1.5" stroke-linecap="round"/>
</svg>
