<svg width="40" height="40" viewBox="0 0 40 40" fill="none" xmlns="http://www.w3.org/2000/svg">
<path d="M26.6 1V9.06C26.6 10.9 28.09 12.4 29.94 12.4H38M38 13.11V35C38 37.21 36.21 39 34 39H12C9.79 39 8 37.21 8 35V5C8 2.79 9.79 1 12 1H25.89C26.95 1 27.97 1.42 28.72 2.17L36.83 10.28C37.58 11.03 38 12.05 38 13.11Z" stroke="#D1D5DB" stroke-width="1.5" stroke-miterlimit="10"/>
<rect x="1" y="16" width="21" height="16" rx="4" fill="#D32F2F"/>
<path d="M3.66051 29.5455V22.0455H4.92472V22.9474H4.99929C5.06558 22.8149 5.15909 22.674 5.27983 22.5249C5.40057 22.3733 5.56392 22.2443 5.76989 22.1378C5.97585 22.0289 6.23864 21.9744 6.55824 21.9744C6.97964 21.9744 7.35961 22.0821 7.69815 22.2976C8.03906 22.5107 8.30895 22.8267 8.50781 23.2457C8.70904 23.6624 8.80966 24.1738 8.80966 24.7798C8.80966 25.3788 8.71141 25.8878 8.51491 26.3068C8.31842 26.7259 8.0509 27.0455 7.71236 27.2656C7.37382 27.4858 6.99029 27.5959 6.56179 27.5959C6.24929 27.5959 5.99006 27.5438 5.78409 27.4396C5.57813 27.3355 5.41241 27.21 5.28693 27.0632C5.16383 26.9141 5.06795 26.7732 4.99929 26.6406H4.94602V29.5455H3.66051ZM4.92116 24.7727C4.92116 25.1255 4.97088 25.4344 5.07031 25.6996C5.17211 25.9647 5.31771 26.1719 5.5071 26.321C5.69886 26.4678 5.93087 26.5412 6.20312 26.5412C6.48722 26.5412 6.72514 26.4654 6.9169 26.3139C7.10866 26.16 7.25308 25.9505 7.35014 25.6854C7.44957 25.4179 7.49929 25.1136 7.49929 24.7727C7.49929 24.4342 7.45076 24.1335 7.35369 23.8707C7.25663 23.608 7.11222 23.402 6.92045 23.2528C6.72869 23.1037 6.48958 23.0291 6.20312 23.0291C5.9285 23.0291 5.69531 23.1013 5.50355 23.2457C5.31179 23.3902 5.16619 23.5926 5.06676 23.853C4.9697 24.1134 4.92116 24.42 4.92116 24.7727ZM11.9347 27.5959C11.5062 27.5959 11.1226 27.4858 10.7841 27.2656C10.4455 27.0455 10.178 26.7259 9.98153 26.3068C9.78504 25.8878 9.68679 25.3788 9.68679 24.7798C9.68679 24.1738 9.78622 23.6624 9.98509 23.2457C10.1863 22.8267 10.4574 22.5107 10.7983 22.2976C11.1392 22.0821 11.5192 21.9744 11.9382 21.9744C12.2578 21.9744 12.5206 22.0289 12.7266 22.1378C12.9325 22.2443 13.0959 22.3733 13.2166 22.5249C13.3374 22.674 13.4309 22.8149 13.4972 22.9474H13.5504V20.2273H14.8395V27.5H13.5753V26.6406H13.4972C13.4309 26.7732 13.335 26.9141 13.2095 27.0632C13.084 27.21 12.9183 27.3355 12.7124 27.4396C12.5064 27.5438 12.2472 27.5959 11.9347 27.5959ZM12.2933 26.5412C12.5656 26.5412 12.7976 26.4678 12.9893 26.321C13.1811 26.1719 13.3267 25.9647 13.4261 25.6996C13.5256 25.4344 13.5753 25.1255 13.5753 24.7727C13.5753 24.42 13.5256 24.1134 13.4261 23.853C13.3291 23.5926 13.1847 23.3902 12.9929 23.2457C12.8035 23.1013 12.5703 23.0291 12.2933 23.0291C12.0069 23.0291 11.7678 23.1037 11.576 23.2528C11.3842 23.402 11.2398 23.608 11.1428 23.8707C11.0457 24.1335 10.9972 24.4342 10.9972 24.7727C10.9972 25.1136 11.0457 25.4179 11.1428 25.6854C11.2422 25.9505 11.3878 26.16 11.5795 26.3139C11.7737 26.4654 12.0116 26.5412 12.2933 26.5412ZM18.9721 22.0455V23.0398H15.7477V22.0455H18.9721ZM16.5538 27.5V21.5305C16.5538 21.1636 16.6296 20.8582 16.7811 20.6143C16.935 20.3705 17.1409 20.1882 17.399 20.0675C17.657 19.9467 17.9435 19.8864 18.2583 19.8864C18.4809 19.8864 18.6786 19.9041 18.8514 19.9396C19.0242 19.9751 19.152 20.0071 19.2349 20.0355L18.9792 21.0298C18.9248 21.0133 18.8561 20.9967 18.7733 20.9801C18.6904 20.9612 18.5981 20.9517 18.4963 20.9517C18.2572 20.9517 18.0879 21.0097 17.9885 21.1257C17.8914 21.2393 17.8429 21.4027 17.8429 21.6158V27.5H16.5538Z" fill="white"/>
</svg>
