<svg width="40" height="40" viewBox="0 0 40 40" fill="none" xmlns="http://www.w3.org/2000/svg">
<path fill-rule="evenodd" clip-rule="evenodd" d="M6.66602 5.8335C6.66602 4.45278 7.7853 3.3335 9.16602 3.3335H25.6305C26.2935 3.3335 26.9294 3.59689 27.3982 4.06573L32.6004 9.26793C33.0693 9.73677 33.3327 10.3727 33.3327 11.0357V34.1668C33.3327 35.5475 32.2134 36.6668 30.8327 36.6668H9.16602C7.7853 36.6668 6.66602 35.5475 6.66602 34.1668V5.8335ZM31.666 11.6668H25.8327C25.3724 11.6668 24.9993 11.2937 24.9993 10.8335V5.00016H9.16602C8.70578 5.00016 8.33268 5.37326 8.33268 5.8335V34.1668C8.33268 34.6271 8.70578 35.0002 9.16602 35.0002H30.8327C31.2929 35.0002 31.666 34.6271 31.666 34.1668V11.6668Z" fill="#18365F"/>
<path d="M6.66602 15.8335H33.3327V25.8335H6.66602V15.8335Z" fill="#18365F"/>
<path d="M12.125 24.1666V18.106H14.6286C15.0823 18.106 15.4739 18.1947 15.8034 18.3723C16.1348 18.5479 16.3903 18.7935 16.5698 19.1092C16.7494 19.4228 16.8391 19.7878 16.8391 20.2041C16.8391 20.6223 16.7474 20.9883 16.5639 21.302C16.3824 21.6137 16.123 21.8554 15.7856 22.027C15.4483 22.1986 15.0478 22.2845 14.5842 22.2845H13.0394V21.1303H14.3119C14.5329 21.1303 14.7173 21.0919 14.8653 21.0149C15.0152 20.938 15.1287 20.8305 15.2056 20.6924C15.2826 20.5523 15.321 20.3895 15.321 20.2041C15.321 20.0167 15.2826 19.8549 15.2056 19.7188C15.1287 19.5807 15.0152 19.4741 14.8653 19.3992C14.7154 19.3242 14.5309 19.2867 14.3119 19.2867H13.5898V24.1666H12.125Z" fill="white"/>
<path d="M19.8014 24.1666H17.5612V18.106H19.7984C20.4159 18.106 20.9476 18.2273 21.3935 18.4699C21.8413 18.7106 22.1866 19.0579 22.4292 19.5116C22.6719 19.9634 22.7932 20.504 22.7932 21.1333C22.7932 21.7646 22.6719 22.3071 22.4292 22.7609C22.1885 23.2147 21.8443 23.5629 21.3964 23.8055C20.9486 24.0462 20.4169 24.1666 19.8014 24.1666ZM19.026 22.9177H19.7451C20.0845 22.9177 20.3715 22.8605 20.6063 22.7461C20.843 22.6297 21.0216 22.4413 21.1419 22.1809C21.2642 21.9185 21.3254 21.5693 21.3254 21.1333C21.3254 20.6973 21.2642 20.3501 21.1419 20.0916C21.0196 19.8312 20.8391 19.6438 20.6004 19.5294C20.3636 19.413 20.0717 19.3548 19.7244 19.3548H19.026V22.9177Z" fill="white"/>
<path d="M23.6484 24.1666V18.106H27.7855V19.2956H25.1133V20.5385H27.5221V21.7311H25.1133V24.1666H23.6484Z" fill="white"/>
</svg>
