<svg width="25" height="25" viewBox="0 0 25 25" fill="none" xmlns="http://www.w3.org/2000/svg">
<g clip-path="url(#clip0_9493_20071)">
<path d="M10.5376 5.81617L11.1866 6.9791C11.7723 8.02858 11.5372 9.40532 10.6147 10.3278C10.6147 10.3278 10.6147 10.3278 10.6147 10.3278C10.6146 10.3279 9.49588 11.4468 11.5245 13.4755C13.5525 15.5035 14.6714 14.3861 14.6722 14.3853C14.6722 14.3853 14.6722 14.3853 14.6722 14.3853C15.5947 13.4628 16.9714 13.2277 18.0209 13.8134L19.1838 14.4624C20.7686 15.3468 20.9557 17.5692 19.5628 18.9622C18.7258 19.7992 17.7004 20.4505 16.5669 20.4934C14.6588 20.5658 11.4183 20.0829 8.1677 16.8323C4.91713 13.5817 4.43421 10.3412 4.50655 8.43309C4.54952 7.2996 5.2008 6.27423 6.03781 5.43723C7.43076 4.04428 9.65317 4.23144 10.5376 5.81617Z" stroke="#2E353F" stroke-width="1.5" stroke-linecap="round"/>
</g>
<defs>
<clipPath id="clip0_9493_20071">
<rect width="24" height="24" fill="white" transform="translate(0.5 0.5)"/>
</clipPath>
</defs>
</svg>
