<svg width="14" height="18" viewBox="0 0 14 18" fill="none" xmlns="http://www.w3.org/2000/svg">
<path fill-rule="evenodd" clip-rule="evenodd" d="M6.90719 9.51555H6.93386C9.37385 9.51555 11.358 7.53138 11.358 5.09138C11.358 2.65138 9.37385 0.666382 6.93386 0.666382C4.49302 0.666382 2.50802 2.65138 2.50802 5.08888C2.49969 7.52222 4.47219 9.50805 6.90719 9.51555ZM3.69802 5.09138C3.69802 3.30722 5.14969 1.85638 6.93386 1.85638C8.71719 1.85638 10.168 3.30722 10.168 5.09138C10.168 6.87472 8.71719 8.32638 6.93386 8.32638H6.90969C5.13302 8.31972 3.69219 6.86972 3.69802 5.09138Z" fill="#0C3F82"/>
<path fill-rule="evenodd" clip-rule="evenodd" d="M0.333008 14.1442C0.333008 17.225 5.30134 17.225 6.93384 17.225C9.76634 17.225 13.533 16.9075 13.533 14.1608C13.533 11.08 8.56634 11.08 6.93384 11.08C4.10051 11.08 0.333008 11.3975 0.333008 14.1442ZM1.58301 14.1442C1.58301 12.94 3.38301 12.33 6.93384 12.33C10.4838 12.33 12.283 12.9458 12.283 14.1608C12.283 15.365 10.4838 15.975 6.93384 15.975C3.38301 15.975 1.58301 15.3592 1.58301 14.1442Z" fill="#0C3F82"/>
</svg>
