<svg width="20" height="21" viewBox="0 0 20 21" fill="none" xmlns="http://www.w3.org/2000/svg">
<path fill-rule="evenodd" clip-rule="evenodd" d="M12.4566 1.41181H14.21C14.9587 1.41178 15.583 1.41176 16.0787 1.4784C16.6019 1.54874 17.0742 1.70346 17.4537 2.08302C17.8333 2.46258 17.988 2.93491 18.0584 3.45807C18.125 3.95373 18.125 4.57808 18.125 5.32681V18.0785H18.3333C18.6785 18.0785 18.9583 18.3583 18.9583 18.7035C18.9583 19.0486 18.6785 19.3285 18.3333 19.3285H1.66663C1.32145 19.3285 1.04163 19.0486 1.04163 18.7035C1.04163 18.3583 1.32145 18.0785 1.66663 18.0785H1.87496L1.87496 7.82681C1.87493 7.07807 1.87491 6.45372 1.94155 5.95807C2.01189 5.43491 2.16661 4.96258 2.54617 4.58302C2.92573 4.20346 3.39806 4.04874 3.92123 3.9784C4.41688 3.91176 5.04123 3.91178 5.78996 3.91181L8.56495 3.91181C8.60783 3.18333 8.74212 2.55373 9.21284 2.08302C9.5924 1.70346 10.0647 1.54874 10.5879 1.4784C11.0835 1.41176 11.7079 1.41178 12.4566 1.41181ZM9.17232 5.16181C9.17125 5.16181 9.17018 5.16181 9.16911 5.16181C9.16828 5.16181 9.16745 5.16181 9.16663 5.16181H5.83329C5.02995 5.16181 4.49032 5.16313 4.08779 5.21725C3.70323 5.26895 3.53865 5.35831 3.43006 5.4669C3.32146 5.5755 3.23211 5.74008 3.18041 6.12463C3.12629 6.52716 3.12496 7.0668 3.12496 7.87014V18.0785H6.87496V16.2035C6.87496 15.8583 7.15478 15.5785 7.49996 15.5785C7.84514 15.5785 8.12496 15.8583 8.12496 16.2035V18.0785H11.875V7.87014C11.875 7.0668 11.8736 6.52716 11.8195 6.12463C11.7678 5.74008 11.6785 5.5755 11.5699 5.4669C11.4613 5.35831 11.2967 5.26895 10.9121 5.21725C10.5106 5.16326 9.97252 5.16181 9.17232 5.16181ZM13.125 18.0785L13.125 7.82681C13.125 7.07808 13.125 6.45373 13.0584 5.95807C12.988 5.43491 12.8333 4.96258 12.4537 4.58302C12.0742 4.20346 11.6019 4.04874 11.0787 3.9784C10.7242 3.93074 10.3039 3.91718 9.81942 3.91333C9.86123 3.3303 9.95296 3.11066 10.0967 2.9669C10.2053 2.85831 10.3699 2.76895 10.7545 2.71725C11.157 2.66313 11.6966 2.66181 12.5 2.66181H14.1666C14.97 2.66181 15.5096 2.66313 15.9121 2.71725C16.2967 2.76895 16.4613 2.85831 16.5699 2.9669C16.6785 3.0755 16.7678 3.24008 16.8195 3.62463C16.8736 4.02716 16.875 4.5668 16.875 5.37014V18.0785H13.125ZM4.37496 7.03681C4.37496 6.69163 4.65478 6.41181 4.99996 6.41181H9.99996C10.3451 6.41181 10.625 6.69163 10.625 7.03681C10.625 7.38198 10.3451 7.66181 9.99996 7.66181H4.99996C4.65478 7.66181 4.37496 7.38198 4.37496 7.03681ZM4.37496 9.53681C4.37496 9.19163 4.65478 8.91181 4.99996 8.91181H9.99996C10.3451 8.91181 10.625 9.19163 10.625 9.53681C10.625 9.88198 10.3451 10.1618 9.99996 10.1618H4.99996C4.65478 10.1618 4.37496 9.88198 4.37496 9.53681ZM4.37496 12.0368C4.37496 11.6916 4.65478 11.4118 4.99996 11.4118H9.99996C10.3451 11.4118 10.625 11.6916 10.625 12.0368C10.625 12.382 10.3451 12.6618 9.99996 12.6618H4.99996C4.65478 12.6618 4.37496 12.382 4.37496 12.0368Z" fill="#1C4F92"/>
</svg>
