<svg width="20" height="21" viewBox="0 0 20 21" fill="none" xmlns="http://www.w3.org/2000/svg">
<path d="M5.37021 3.44122C5.80925 3.14786 6.27301 2.89833 6.75477 2.69464C7.92386 2.20036 8.5084 1.95322 9.25418 2.44761C9.99996 2.94199 9.99996 3.75137 9.99996 5.37014V7.0368C9.99996 8.60815 9.99996 9.39382 10.4881 9.88198C10.9763 10.3701 11.7619 10.3701 13.3333 10.3701H15C16.6187 10.3701 17.4281 10.3701 17.9225 11.1159C18.4169 11.8617 18.1697 12.4462 17.6755 13.6153C17.4718 14.0971 17.2222 14.5608 16.9289 14.9999C16.0132 16.3703 14.7117 17.4384 13.189 18.0691C11.6663 18.6999 9.99072 18.8649 8.37421 18.5433C6.7577 18.2218 5.27284 17.4281 4.10741 16.2627C2.94197 15.0973 2.1483 13.6124 1.82675 11.9959C1.50521 10.3794 1.67024 8.70382 2.30097 7.18111C2.9317 5.65839 3.9998 4.3569 5.37021 3.44122Z" stroke="#18365F" stroke-width="1.5"/>
<path d="M12.0834 2.29932C15.0117 3.05302 17.3171 5.35843 18.0708 8.28678" stroke="#18365F" stroke-width="1.5" stroke-linecap="round"/>
</svg>
