<svg width="42" height="42" viewBox="0 0 42 42" fill="none" xmlns="http://www.w3.org/2000/svg">
<g clip-path="url(#clip0_117_640)">
<path d="M30 0H12C5.37258 0 0 5.37258 0 12V30C0 36.6274 5.37258 42 12 42H30C36.6274 42 42 36.6274 42 30V12C42 5.37258 36.6274 0 30 0Z" fill="#FAFAFA"/>
<path d="M22.25 16.3125C22.25 16.8281 22.6719 17.25 23.1875 17.25H28.5V30.0625C28.5 30.582 28.082 31 27.5625 31H14.4375C13.918 31 13.5 30.582 13.5 30.0625V11.9375C13.5 11.418 13.918 11 14.4375 11H22.25V16.3125ZM21.3818 26.8389C21.2499 27.0212 21.1684 27.3249 21.1074 27.7188L23.7607 27.1709C23.9333 26.8066 23.9538 26.6444 24 26.2705L21.3818 26.8389ZM20.3047 19.8789C19.9482 20.0671 19.767 20.2163 19.4717 20.5479V23.8711L17.6113 24.2754C17.4598 24.6128 17.411 24.8017 17.3877 25.1367L19.4717 24.6953V25.7422L17.2236 26.2305C17.0723 26.5676 17.0233 26.7561 17 27.0908L19.6035 26.5957C19.8518 26.2889 20.1087 25.9038 20.291 25.584L20.3047 25.582V24.5186L21.0977 24.3516V26.0381L21.9307 25.8662V25.8574L23.7607 25.4805C23.9334 25.1159 23.9537 24.9532 24 24.5791L21.9307 25.0166V24.1758L23.7607 23.7891C23.9333 23.4247 23.9538 23.2626 24 22.8887L21.9307 23.3369V20.3447C21.5742 20.5329 21.393 20.6822 21.0977 21.0137V23.5186L20.3047 23.6904V19.8789ZM16.3125 16C16.1398 16 16 16.1398 16 16.3125V16.9375C16 17.1102 16.1398 17.25 16.3125 17.25H19.4375C19.6102 17.25 19.75 17.1102 19.75 16.9375V16.3125C19.75 16.1398 19.6102 16 19.4375 16H16.3125ZM23.7383 11C23.9883 11 24.2266 11.0977 24.4023 11.2734L28.2266 15.1016C28.4023 15.2773 28.5 15.5156 28.5 15.7617V16H23.5V11H23.7383ZM16.3125 13.5C16.1398 13.5 16 13.6398 16 13.8125V14.4375C16 14.6102 16.1398 14.75 16.3125 14.75H19.4375C19.6102 14.75 19.75 14.6102 19.75 14.4375V13.8125C19.75 13.6398 19.6102 13.5 19.4375 13.5H16.3125Z" fill="#18365F"/>
</g>
<defs>
<clipPath id="clip0_117_640">
<rect width="42" height="42" fill="white"/>
</clipPath>
</defs>
</svg>
