<svg width="17" height="18" viewBox="0 0 17 18" fill="none" xmlns="http://www.w3.org/2000/svg">
<path d="M16.7324 14.6484C16.6267 15.5035 16.5804 15.8745 16.1855 16.708L10.1221 17.9599C10.2615 17.0591 10.447 16.364 10.749 15.9472L16.7324 14.6484ZM8.28711 8.75191L10.0986 8.35933V2.63374C10.7738 1.87589 11.189 1.53558 12.0039 1.10542V7.94527L16.7324 6.9189C16.6267 7.77375 16.5803 8.14428 16.1855 8.97749L12.0039 9.86128V11.7851L16.7324 10.7841C16.6267 11.6392 16.5805 12.0101 16.1855 12.8437L12.0039 13.707V13.7246L10.0986 14.1181V10.2636L8.28711 10.6464V13.0761L8.25586 13.082C7.83914 13.8127 7.25069 14.6906 6.68359 15.3916L0.732422 16.5253C0.785783 15.7596 0.896901 15.3279 1.24316 14.5566L6.38184 13.4423V11.0498L1.61914 12.0576C1.6725 11.2919 1.78466 10.861 2.13086 10.0898L6.38184 9.16597V1.56831C7.05696 0.810465 7.47219 0.470151 8.28711 0.0399933V8.75191Z" fill="black"/>
</svg>
