<svg width="20" height="20" viewBox="0 0 20 20" fill="none" xmlns="http://www.w3.org/2000/svg">
<path d="M10 12.5C11.3807 12.5 12.5 11.3807 12.5 10C12.5 8.61929 11.3807 7.5 10 7.5C8.61929 7.5 7.5 8.61929 7.5 10C7.5 11.3807 8.61929 12.5 10 12.5Z" stroke="#0C3F82" stroke-width="1.25" stroke-miterlimit="10" stroke-linecap="round" stroke-linejoin="round"/>
<path d="M1.66602 10.7333V9.26666C1.66602 8.4 2.37435 7.68333 3.24935 7.68333C4.75768 7.68333 5.37435 6.61666 4.61602 5.30833C4.18268 4.55833 4.44102 3.58333 5.19935 3.15L6.64102 2.325C7.29935 1.93333 8.14935 2.16666 8.54102 2.825L8.63268 2.98333C9.38268 4.29166 10.616 4.29166 11.3743 2.98333L11.466 2.825C11.8577 2.16666 12.7077 1.93333 13.366 2.325L14.8077 3.15C15.566 3.58333 15.8243 4.55833 15.391 5.30833C14.6327 6.61666 15.2493 7.68333 16.7577 7.68333C17.6243 7.68333 18.341 8.39166 18.341 9.26666V10.7333C18.341 11.6 17.6327 12.3167 16.7577 12.3167C15.2493 12.3167 14.6327 13.3833 15.391 14.6917C15.8243 15.45 15.566 16.4167 14.8077 16.85L13.366 17.675C12.7077 18.0667 11.8577 17.8333 11.466 17.175L11.3743 17.0167C10.6243 15.7083 9.39102 15.7083 8.63268 17.0167L8.54102 17.175C8.14935 17.8333 7.29935 18.0667 6.64102 17.675L5.19935 16.85C4.44102 16.4167 4.18268 15.4417 4.61602 14.6917C5.37435 13.3833 4.75768 12.3167 3.24935 12.3167C2.37435 12.3167 1.66602 11.6 1.66602 10.7333Z" stroke="#0C3F82" stroke-width="1.25" stroke-miterlimit="10" stroke-linecap="round" stroke-linejoin="round"/>
</svg>
