<svg width="20" height="20" viewBox="0 0 20 20" fill="none" xmlns="http://www.w3.org/2000/svg">
<path d="M8.33329 18.3333C12.0152 18.3333 15 15.3486 15 11.6667C15 7.98477 12.0152 5 8.33329 5C4.65139 5 1.66663 7.98477 1.66663 11.6667C1.66663 12.6963 1.90002 13.6713 2.31679 14.5419C2.46004 14.8411 2.51033 15.1801 2.42459 15.5005L2.15122 16.5222C1.93575 17.3275 2.67247 18.0642 3.47775 17.8487L4.49945 17.5754C4.8199 17.4896 5.15888 17.5399 5.45809 17.6832C6.32863 18.0999 7.3037 18.3333 8.33329 18.3333Z" stroke="#0C3F82" stroke-width="1.25"/>
<path d="M15 12.0849C15.0554 12.0618 15.1103 12.0378 15.1647 12.0129C15.4665 11.8751 15.805 11.8235 16.1255 11.9093L16.5222 12.0154C17.3274 12.2309 18.0642 11.4941 17.8487 10.6889L17.7426 10.2922C17.6568 9.97171 17.7084 9.63316 17.8462 9.33142C18.159 8.64665 18.3333 7.88534 18.3333 7.08332C18.3333 4.09178 15.9082 1.66666 12.9166 1.66666C10.6647 1.66666 8.73381 3.04081 7.91663 4.99632" stroke="#0C3F82" stroke-width="1.25"/>
<path d="M5.43194 11.6667H5.43944M8.34087 11.6667H8.34837M11.25 11.6667H11.2575" stroke="#0C3F82" stroke-width="1.66667" stroke-linecap="round" stroke-linejoin="round"/>
</svg>
