<svg width="72" height="72" viewBox="0 0 72 72" fill="none" xmlns="http://www.w3.org/2000/svg">
<rect width="72" height="72" rx="36" fill="#FCE8E8"/>
<path d="M47.9998 25.3333H43.8665C43.2286 22.2314 40.4999 20.004 37.3331 20H34.6664C31.4996 20.004 28.771 22.2314 28.1331 25.3333H23.9998C23.2634 25.3333 22.6665 25.9303 22.6665 26.6666C22.6665 27.403 23.2634 28 23.9998 28H25.3331V45.3333C25.3376 49.0134 28.3198 51.9956 31.9998 52H39.9998C43.6799 51.9956 46.6621 49.0134 46.6665 45.3333V28H47.9998C48.7362 28 49.3331 27.4031 49.3331 26.6667C49.3331 25.9303 48.7362 25.3333 47.9998 25.3333ZM34.6665 42.6667C34.6665 43.4031 34.0696 44 33.3332 44C32.5968 44 31.9998 43.4031 31.9998 42.6667V34.6667C31.9998 33.9303 32.5968 33.3334 33.3331 33.3334C34.0695 33.3334 34.6664 33.9303 34.6664 34.6667V42.6667H34.6665ZM39.9998 42.6667C39.9998 43.4031 39.4029 44 38.6665 44C37.9301 44 37.3332 43.4031 37.3332 42.6667V34.6667C37.3332 33.9303 37.9301 33.3334 38.6665 33.3334C39.4029 33.3334 39.9998 33.9303 39.9998 34.6667V42.6667ZM30.8945 25.3333C31.4616 23.7364 32.9719 22.6687 34.6665 22.6666H37.3332C39.0278 22.6687 40.5381 23.7364 41.1052 25.3333H30.8945Z" fill="#E51B1B"/>
</svg>
