<svg width="25" height="24" viewBox="0 0 25 24" fill="none" xmlns="http://www.w3.org/2000/svg">
<path d="M21.667 3.99998H18.567C18.0885 1.67358 16.0421 0.003 13.667 0H11.6669C9.29184 0.003 7.24537 1.67358 6.76696 3.99998H3.66698C3.1147 3.99998 2.66699 4.44769 2.66699 4.99997C2.66699 5.55225 3.1147 6 3.66698 6H4.66696V19C4.67029 21.76 6.90693 23.9967 9.66698 24H15.667C18.427 23.9967 20.6637 21.76 20.667 19V6H21.667C22.2193 6 22.667 5.5523 22.667 5.00002C22.667 4.44773 22.2193 3.99998 21.667 3.99998ZM11.667 17C11.667 17.5523 11.2193 18 10.667 18C10.1147 18 9.66698 17.5523 9.66698 17V11C9.66698 10.4477 10.1147 10 10.667 10C11.2192 10 11.6669 10.4477 11.6669 11V17H11.667ZM15.667 17C15.667 17.5523 15.2193 18 14.667 18C14.1147 18 13.667 17.5523 13.667 17V11C13.667 10.4477 14.1147 10 14.667 10C15.2193 10 15.667 10.4477 15.667 11V17ZM8.83799 3.99998C9.26334 2.80228 10.396 2.00152 11.667 1.99997H13.667C14.938 2.00152 16.0707 2.80228 16.496 3.99998H8.83799Z" fill="#E51B1B"/>
</svg>
