<svg width="32" height="32" viewBox="0 0 32 32" fill="none" xmlns="http://www.w3.org/2000/svg">
<path d="M2.66602 15.9998C2.66602 9.71444 2.66602 6.57175 4.61864 4.61913C6.57126 2.6665 9.71396 2.6665 15.9993 2.6665C22.2847 2.6665 25.4274 2.6665 27.3801 4.61913C29.3327 6.57175 29.3327 9.71444 29.3327 15.9998C29.3327 22.2852 29.3327 25.4279 27.3801 27.3805C25.4274 29.3332 22.2847 29.3332 15.9993 29.3332C9.71396 29.3332 6.57126 29.3332 4.61864 27.3805C2.66602 25.4279 2.66602 22.2852 2.66602 15.9998Z" stroke="#2E9C95" stroke-width="1.5"/>
<path d="M12 20.6665L16 16.6665L20 20.6665" stroke="#2E9C95" stroke-width="1.5" stroke-linecap="round" stroke-linejoin="round"/>
<path d="M12 15.3335L16 11.3335L20 15.3335" stroke="#2E9C95" stroke-width="1.5" stroke-linecap="round" stroke-linejoin="round"/>
</svg>
