<svg width="44" height="44" viewBox="0 0 44 44" fill="none" xmlns="http://www.w3.org/2000/svg">
<g clip-path="url(#clip0_4857_2632)">
<path opacity="0.2" d="M43.2286 22.0015C43.2286 33.7254 33.7245 43.2296 22.0005 43.2296C10.2766 43.2296 0.772461 33.7254 0.772461 22.0015C0.772461 10.2776 10.2766 0.773438 22.0005 0.773438C33.7245 0.773438 43.2286 10.2776 43.2286 22.0015Z" fill="#135C58"/>
<path d="M32.2045 36.8835C29.3021 38.8771 25.7874 40.0439 22.0003 40.0439C18.213 40.0439 14.6982 38.8771 11.7959 36.8833C10.514 36.0028 9.9662 34.3254 10.7115 32.9604C12.2565 30.1309 15.4402 28.3684 22.0002 28.3684C28.5603 28.3684 31.7439 30.1309 33.2889 32.9606C34.0342 34.3255 33.4863 36.0029 32.2045 36.8835Z" fill="#135C58"/>
<path d="M22.0003 22C25.5175 22 28.3687 19.1488 28.3687 15.6316C28.3687 12.1144 25.5175 9.26318 22.0003 9.26318C18.4831 9.26318 15.6319 12.1144 15.6319 15.6316C15.6319 19.1488 18.4831 22 22.0003 22Z" fill="#135C58"/>
</g>
<defs>
<clipPath id="clip0_4857_2632">
<rect width="44" height="44" fill="white"/>
</clipPath>
</defs>
</svg>
