<svg width="49" height="63" viewBox="0 0 49 63" fill="none" xmlns="http://www.w3.org/2000/svg">
<path d="M45.1607 56.2045C39.2844 60.2411 32.1686 62.6034 24.4999 62.6034C16.8311 62.6034 9.71517 60.241 3.83877 56.2043C1.35318 54.4968 0.331178 51.2775 1.74288 48.6921C4.80353 43.0868 11.1358 39.5 24.4997 39.5C37.8638 39.5 44.1961 43.0869 47.2567 48.6924C48.6683 51.2778 47.6463 54.4971 45.1607 56.2045ZM37.1379 13.0345C37.1379 20.0142 31.4797 25.6724 24.5 25.6724C17.5203 25.6724 11.8621 20.0142 11.8621 13.0345C11.8621 6.05476 17.5203 0.396578 24.5 0.396578C31.4797 0.396578 37.1379 6.05476 37.1379 13.0345Z" fill="#D32F2F" stroke="#D32F2F" stroke-width="0.793156"/>
</svg>
