<svg width="18" height="17" viewBox="0 0 18 17" fill="none" xmlns="http://www.w3.org/2000/svg">
<path fill-rule="evenodd" clip-rule="evenodd" d="M17.2407 11.6163H13.8674C12.2865 11.6163 10.9999 10.3305 10.999 8.75051C10.999 7.16885 12.2857 5.88218 13.8674 5.88135H17.2407C17.5857 5.88135 17.8657 6.16135 17.8657 6.50635C17.8657 6.85135 17.5857 7.13135 17.2407 7.13135H13.8674C12.9749 7.13218 12.249 7.85801 12.249 8.74968C12.249 9.64051 12.9757 10.3663 13.8674 10.3663H17.2407C17.5857 10.3663 17.8657 10.6463 17.8657 10.9913C17.8657 11.3363 17.5857 11.6163 17.2407 11.6163Z" fill="#18365F"/>
<path fill-rule="evenodd" clip-rule="evenodd" d="M14.2493 9.32324H13.9893C13.6443 9.32324 13.3643 9.04324 13.3643 8.69824C13.3643 8.35324 13.6443 8.07324 13.9893 8.07324H14.2493C14.5943 8.07324 14.8743 8.35324 14.8743 8.69824C14.8743 9.04324 14.5943 9.32324 14.2493 9.32324Z" fill="#18365F"/>
<mask id="mask0_11937_3395" style="mask-type:luminance" maskUnits="userSpaceOnUse" x="0" y="0" width="18" height="17">
<path fill-rule="evenodd" clip-rule="evenodd" d="M0.666992 0.870117H17.8658V16.8475H0.666992V0.870117Z" fill="white"/>
</mask>
<g mask="url(#mask0_11937_3395)">
<path fill-rule="evenodd" clip-rule="evenodd" d="M5.66533 2.12012C3.59866 2.12012 1.91699 3.80178 1.91699 5.86845V11.8493C1.91699 13.916 3.59866 15.5976 5.66533 15.5976H12.8687C14.9353 15.5976 16.6162 13.916 16.6162 11.8493V5.86845C16.6162 3.80178 14.9353 2.12012 12.8687 2.12012H5.66533ZM12.8687 16.8476H5.66533C2.90949 16.8476 0.666992 14.6051 0.666992 11.8493V5.86845C0.666992 3.11178 2.90949 0.870117 5.66533 0.870117H12.8687C15.6245 0.870117 17.8662 3.11178 17.8662 5.86845V11.8493C17.8662 14.6051 15.6245 16.8476 12.8687 16.8476Z" fill="#18365F"/>
</g>
<path fill-rule="evenodd" clip-rule="evenodd" d="M9.57046 5.90186H5.07129C4.72629 5.90186 4.44629 5.62186 4.44629 5.27686C4.44629 4.93186 4.72629 4.65186 5.07129 4.65186H9.57046C9.91546 4.65186 10.1955 4.93186 10.1955 5.27686C10.1955 5.62186 9.91546 5.90186 9.57046 5.90186Z" fill="#18365F"/>
</svg>
