<svg width="32" height="32" viewBox="0 0 32 32" fill="none" xmlns="http://www.w3.org/2000/svg">
<path fill-rule="evenodd" clip-rule="evenodd" d="M28.1339 10.6714C28.0583 10.6666 27.9761 10.6666 27.8908 10.6667L27.8695 10.6667H24.5248C21.7679 10.6667 19.409 12.8368 19.409 15.6667C19.409 18.4966 21.7679 20.6667 24.5248 20.6667H27.8695L27.8908 20.6667C27.9761 20.6667 28.0583 20.6667 28.1339 20.662C29.2537 20.5913 30.244 19.7149 30.3273 18.491C30.3328 18.4107 30.3327 18.3242 30.3327 18.244L30.3327 18.2222V13.1111L30.3327 13.0894C30.3327 13.0092 30.3328 12.9227 30.3273 12.8424C30.244 11.6184 29.2537 10.7421 28.1339 10.6714ZM24.2283 17C24.938 17 25.5134 16.403 25.5134 15.6667C25.5134 14.9303 24.938 14.3333 24.2283 14.3333C23.5185 14.3333 22.9431 14.9303 22.9431 15.6667C22.9431 16.403 23.5185 17 24.2283 17Z" fill="#D32F2F"/>
<path fill-rule="evenodd" clip-rule="evenodd" d="M27.8899 22.6667C28.0887 22.6615 28.2392 22.8457 28.1852 23.0371C27.9176 23.987 27.4927 24.7966 26.811 25.4783C25.8132 26.4762 24.5479 26.919 22.9847 27.1292C21.4658 27.3334 19.5249 27.3334 17.0746 27.3333H14.2575C11.8071 27.3334 9.86627 27.3334 8.34732 27.1292C6.78409 26.919 5.51883 26.4762 4.52101 25.4783C3.52319 24.4805 3.08037 23.2153 2.8702 21.652C2.66598 20.1331 2.66599 18.1922 2.66602 15.7419V15.5914C2.66599 13.1411 2.66598 11.2003 2.8702 9.6813C3.08037 8.11807 3.52319 6.85281 4.52101 5.85499C5.51882 4.85717 6.78409 4.41435 8.34732 4.20418C9.86627 3.99996 11.8071 3.99998 14.2575 4L17.0746 4C19.5249 3.99998 21.4658 3.99996 22.9847 4.20418C24.5479 4.41435 25.8132 4.85717 26.811 5.85499C27.4927 6.5367 27.9175 7.34632 28.1852 8.29624C28.2392 8.48767 28.0887 8.67183 27.8899 8.66667L24.5247 8.66668C20.7425 8.66668 17.4089 11.6545 17.4089 15.6667C17.4089 19.6788 20.7425 22.6667 24.5247 22.6667L27.8899 22.6667ZM9.33268 20.6667C8.7804 20.6667 8.33268 20.219 8.33268 19.6667V11.6667C8.33268 11.1144 8.7804 10.6667 9.33268 10.6667C9.88497 10.6667 10.3327 11.1144 10.3327 11.6667V19.6667C10.3327 20.219 9.88497 20.6667 9.33268 20.6667Z" fill="#D32F2F"/>
</svg>
