<svg width="36" height="36" viewBox="0 0 36 36" fill="none" xmlns="http://www.w3.org/2000/svg">
<path fill-rule="evenodd" clip-rule="evenodd" d="M18 33.75C26.6985 33.75 33.75 26.6985 33.75 18C33.75 9.30152 26.6985 2.25 18 2.25C9.30152 2.25 2.25 9.30152 2.25 18C2.25 20.8247 2.99362 23.4758 4.29578 25.7681L2.25 33.75L10.4792 31.8418C12.714 33.0586 15.2763 33.75 18 33.75ZM18 31.3269C25.3603 31.3269 31.3269 25.3603 31.3269 18C31.3269 10.6397 25.3603 4.67308 18 4.67308C10.6397 4.67308 4.67308 10.6397 4.67308 18C4.67308 20.8418 5.56256 23.4759 7.07832 25.639L5.88462 30.1154L10.4399 28.9766C12.588 30.4589 15.1926 31.3269 18 31.3269Z" fill="#0C3F82"/>
<path d="M14.0625 10.6875C13.6881 9.93535 13.1136 10.0019 12.5333 10.0019C11.4961 10.0019 9.87891 11.2443 9.87891 13.5563C9.87891 15.4512 10.7139 17.5254 13.5275 20.6283C16.2428 23.6227 19.8106 25.1718 22.7725 25.1191C25.7344 25.0663 26.3438 22.5175 26.3438 21.6567C26.3438 21.2752 26.107 21.0849 25.9439 21.0331C24.9346 20.5487 23.073 19.6462 22.6494 19.4766C22.2259 19.307 22.0047 19.5364 21.8672 19.6611C21.4831 20.0272 20.7217 21.106 20.461 21.3486C20.2002 21.5913 19.8116 21.4685 19.6498 21.3768C19.0546 21.1379 17.4408 20.4201 16.1544 19.1731C14.5635 17.6309 14.4701 17.1003 14.1704 16.628C13.9306 16.2501 14.1066 16.0183 14.1944 15.917C14.5371 15.5215 15.0104 14.9109 15.2227 14.6074C15.4349 14.304 15.2664 13.8433 15.1653 13.5563C14.7305 12.3223 14.3621 11.2892 14.0625 10.6875Z" fill="#0C3F82"/>
</svg>
