<svg width="25" height="24" viewBox="0 0 25 24" fill="none" xmlns="http://www.w3.org/2000/svg">
<path d="M4.5 12C4.5 10.8954 5.39543 10 6.5 10H15.5C16.6046 10 17.5 10.8954 17.5 12V12C17.5 13.1046 16.6046 14 15.5 14H6.5C5.39543 14 4.5 13.1046 4.5 12V12Z" stroke="white" stroke-width="1.5"/>
<path d="M12.5 18C12.5 20.2091 14.2909 22 16.5 22C18.7091 22 20.5 20.2091 20.5 18C20.5 15.7909 18.7091 14 16.5 14C16.3007 14 16.1047 14.0146 15.9132 14.0427M12.5 18C12.5 15.9902 13.9823 14.3266 15.9132 14.0427M12.5 18H6.5C5.39543 18 4.5 17.1046 4.5 16C4.5 14.8954 5.39543 14 6.5 14H15.5C15.6417 14 15.7799 14.0147 15.9132 14.0427" stroke="white" stroke-width="1.5"/>
<path d="M14.5 5.41421L13.2071 6.70711C12.8166 7.09763 12.1834 7.09763 11.7929 6.70711L10.5 5.41421M12.5 2L12.5 6.41421" stroke="white" stroke-width="1.5" stroke-linecap="round"/>
</svg>
