<svg width="32" height="32" viewBox="0 0 32 32" fill="none" xmlns="http://www.w3.org/2000/svg">
<path fill-rule="evenodd" clip-rule="evenodd" d="M8.50049 7.37518C8.07802 7.37518 7.69117 7.61187 7.49883 7.98802C7.3065 8.36418 7.34113 8.81637 7.58848 9.15886L13.3179 17.0918L7.705 22.7047C7.26566 23.144 7.26566 23.8563 7.705 24.2957C8.14434 24.735 8.85665 24.735 9.29599 24.2957L14.6522 18.9394L18.4218 24.1589C18.6333 24.4517 18.9726 24.6252 19.3338 24.6252H23.5005C23.923 24.6252 24.3098 24.3885 24.5022 24.0123C24.6945 23.6362 24.6599 23.184 24.4125 22.8415L18.6831 14.9085L24.296 9.29568C24.7353 8.85634 24.7353 8.14403 24.296 7.70469C23.8566 7.26535 23.1443 7.26535 22.705 7.70469L17.3488 13.0609L13.5792 7.84151C13.3677 7.54865 13.0284 7.37518 12.6672 7.37518H8.50049ZM21.3003 22.3752H19.9091L10.7007 9.62518H12.0919L21.3003 22.3752Z" fill="#161616"/>
<path fill-rule="evenodd" clip-rule="evenodd" d="M16.0863 0.625183H15.9147C12.6287 0.625163 10.0476 0.625147 8.03252 0.896074C5.96754 1.1737 4.32916 1.75426 3.04186 3.04155C1.75456 4.32885 1.17401 5.96723 0.896379 8.03222C0.625453 10.0473 0.625469 12.6284 0.625489 15.9144V16.0859C0.625469 19.372 0.625453 21.953 0.896379 23.9681C1.17401 26.0331 1.75456 27.6715 3.04186 28.9588C4.32916 30.2461 5.96754 30.8267 8.03252 31.1043C10.0476 31.3752 12.6286 31.3752 15.9147 31.3752H16.0862C19.3723 31.3752 21.9533 31.3752 23.9685 31.1043C26.0334 30.8267 27.6718 30.2461 28.9591 28.9588C30.2464 27.6715 30.827 26.0331 31.1046 23.9681C31.3755 21.953 31.3755 19.372 31.3755 16.086V15.9144C31.3755 12.6284 31.3755 10.0473 31.1046 8.03222C30.827 5.96723 30.2464 4.32885 28.9591 3.04155C27.6718 1.75426 26.0334 1.1737 23.9685 0.896074C21.9533 0.625147 19.3723 0.625163 16.0863 0.625183ZM4.63285 4.63254C5.43242 3.83298 6.51684 3.3701 8.33233 3.12601C10.1802 2.87757 12.6099 2.87518 16.0005 2.87518C19.391 2.87518 21.8208 2.87757 23.6686 3.12601C25.4841 3.3701 26.5686 3.83298 27.3681 4.63254C28.1677 5.43211 28.6306 6.51654 28.8747 8.33203C29.1231 10.1799 29.1255 12.6096 29.1255 16.0002C29.1255 19.3907 29.1231 21.8205 28.8747 23.6683C28.6306 25.4838 28.1677 26.5683 27.3681 27.3678C26.5686 28.1674 25.4841 28.6303 23.6686 28.8744C21.8208 29.1228 19.391 29.1252 16.0005 29.1252C12.6099 29.1252 10.1802 29.1228 8.33233 28.8744C6.51684 28.6303 5.43242 28.1674 4.63285 27.3678C3.83328 26.5683 3.3704 25.4838 3.12632 23.6683C2.87788 21.8205 2.87549 19.3907 2.87549 16.0002C2.87549 12.6096 2.87788 10.1799 3.12632 8.33203C3.3704 6.51654 3.83328 5.43211 4.63285 4.63254Z" fill="#161616"/>
</svg>
